<svg xmlns="http://www.w3.org/2000/svg" width="169.742" height="30.569" viewBox="0 0 169.742 30.569"><g transform="translate(-1224.05 -363.283)" opacity="0.498"><g transform="translate(1225.55 370.609)"><path d="M22.958,6.076c0,1.7-4.132,3.076-9.229,3.076S4.5,7.775,4.5,6.076,8.632,3,13.729,3s9.229,1.377,9.229,3.076Z" transform="translate(-4.5 -3)" fill="none" stroke="#fff" stroke-linecap="round" stroke-linejoin="round" stroke-width="3"/><path d="M22.958,18c0,1.7-4.1,3.076-9.229,3.076S4.5,19.7,4.5,18" transform="translate(-4.5 -7.746)" fill="none" stroke="#fff" stroke-linecap="round" stroke-linejoin="round" stroke-width="3"/><path d="M4.5,7.5V21.856c0,1.7,4.1,3.076,9.229,3.076s9.229-1.374,9.229-3.076V7.5" transform="translate(-4.5 -4.424)" fill="none" stroke="#fff" stroke-linecap="round" stroke-linejoin="round" stroke-width="3"/></g><path d="M25.109,13.838a9.722,9.722,0,0,0-18.167-2.6,7.782,7.782,0,0,0,.843,15.519H24.655a6.469,6.469,0,0,0,.454-12.924Zm-.454,10.329H7.786a5.19,5.19,0,1,1,0-10.381h.921a7.136,7.136,0,0,1,14,1.946v.649h1.946a3.893,3.893,0,1,1,0,7.786Z" transform="translate(1287.076 363.425)" fill="#fff"/><g transform="translate(1374.168 375.629)"><path d="M17.464,12.314l-3.819,5.842a2.08,2.08,0,0,1,.473,1.327,2.1,2.1,0,1,1-4.2,0,2.3,2.3,0,0,1,.035-.39L7.427,17.626a2.089,2.089,0,0,1-1.458.587,2.114,2.114,0,0,1-1.034-.272L2.25,20.456v2.505a1.875,1.875,0,0,0,1.87,1.87H20a1.875,1.875,0,0,0,1.87-1.87V13.65l-2.566-1.7a2.1,2.1,0,0,1-1.844.368Z" transform="translate(-2.25 -6.607)" fill="#fff"/><path d="M5.973,10.776a2.1,2.1,0,0,1,2.1,2.1c0,.092-.009.184-.018.272l2.632,1.472a2.084,2.084,0,0,1,1.331-.473,2.2,2.2,0,0,1,.455.048L16.3,8.267a2.08,2.08,0,0,1-.39-1.218,2.1,2.1,0,1,1,4.2,0,2.285,2.285,0,0,1-.057.495L21.87,8.753V5.245A1.875,1.875,0,0,0,20,3.375H4.12a1.875,1.875,0,0,0-1.87,1.87V15.287L4,13.61a2.1,2.1,0,0,1,1.971-2.834Z" transform="translate(-2.25 -3.375)" fill="#fff"/></g><g transform="translate(1260.422 375.882)"><path d="M18,7.5v9.341" transform="translate(-13.33 -7.5)" fill="none" stroke="#fff" stroke-linecap="round" stroke-linejoin="round" stroke-width="3"/><path d="M7.5,18h9.341" transform="translate(-7.5 -13.33)" fill="none" stroke="#fff" stroke-linecap="round" stroke-linejoin="round" stroke-width="3"/></g><g transform="translate(1334.633 376.193)"><path d="M18,7.5v9.341" transform="translate(-13.33 -7.5)" fill="none" stroke="#fff" stroke-linecap="round" stroke-linejoin="round" stroke-width="3"/><path d="M7.5,18h9.341" transform="translate(-7.5 -13.33)" fill="none" stroke="#fff" stroke-linecap="round" stroke-linejoin="round" stroke-width="3"/></g><path d="M13.783,9.882a3.7,3.7,0,0,0,.03-.592c0-.207-.03-.384-.03-.592l1.27-.976a.272.272,0,0,0,.061-.384L13.9,5.3a.3.3,0,0,0-.363-.118l-1.513.592A4.4,4.4,0,0,0,11,5.179l-.212-1.568a.324.324,0,0,0-.3-.237H8.065a.324.324,0,0,0-.3.237L7.521,5.179a5.123,5.123,0,0,0-1.029.592L4.979,5.179a.283.283,0,0,0-.363.118L3.406,7.339a.357.357,0,0,0,.061.384l1.3.976c0,.207-.03.384-.03.592s.03.384.03.592l-1.27.976a.272.272,0,0,0-.061.384l1.21,2.041a.3.3,0,0,0,.363.118l1.513-.592a4.4,4.4,0,0,0,1.028.592l.242,1.568a.293.293,0,0,0,.3.237h2.42a.324.324,0,0,0,.3-.237L11.06,13.4a5.12,5.12,0,0,0,1.028-.592L13.6,13.4a.283.283,0,0,0,.363-.118l1.21-2.041a.357.357,0,0,0-.061-.384ZM9.275,11.361a2.071,2.071,0,1,1,2.118-2.07A2.081,2.081,0,0,1,9.275,11.361Z" transform="translate(1357.013 371.203)" fill="#fff"/><path d="M5.124,9.4,4,9.076A.221.221,0,0,1,3.852,8.8L6.361.162A.221.221,0,0,1,6.635.011L7.756.336A.221.221,0,0,1,7.906.61L5.4,9.251A.22.22,0,0,1,5.124,9.4ZM3.029,7.34l.8-.853a.221.221,0,0,0-.015-.316L2.149,4.706,3.814,3.242a.219.219,0,0,0,.015-.316l-.8-.853a.221.221,0,0,0-.312-.009L.069,4.545a.219.219,0,0,0,0,.322L2.717,7.349a.219.219,0,0,0,.312-.009Zm6.013.011L11.69,4.868a.219.219,0,0,0,0-.322L9.042,2.062a.223.223,0,0,0-.312.009l-.8.853a.221.221,0,0,0,.015.316L9.61,4.706,7.945,6.171a.219.219,0,0,0-.015.316l.8.853a.221.221,0,0,0,.312.011Z" transform="translate(1372.221 363.28)" fill="#fff"/></g></svg>