<svg xmlns="http://www.w3.org/2000/svg" width="780" height="240" viewBox="0 0 780 240"><g transform="translate(-1288 -3400)"><rect width="780" height="240" rx="18" transform="translate(1288 3400)" fill="#fff"/><g transform="translate(1348.871 3444.506)"><g transform="translate(0 -0.006)"><path d="M444.989,93.151h0l-.2.3a34.381,34.381,0,0,1-11.764,11.258,31.454,31.454,0,0,1-16.087,4.616c-9.389,0-17.6-3.749-24.373-11.123a37.567,37.567,0,0,1-9.76-26.579A36.959,36.959,0,0,1,392.866,46.42c6.541-7,14.421-10.56,23.427-10.56,12.327-.1,21.615,4.976,28.414,15.558l.191.3h.191l8.015-4.953a44.176,44.176,0,0,0-13.239-13.993,41.2,41.2,0,0,0-22.921-6.935,40.212,40.212,0,0,0-30.621,13.036c-8.522,8.781-12.845,19.971-12.845,33.266A48.1,48.1,0,0,0,386.2,105.512c8.421,9.13,18.609,13.757,30.306,13.757h.439c15.378-.315,28.054-7.768,36.126-21.1Z" transform="translate(46.971 3.255)" fill="#172d72"/><path d="M495.914,26.82H485.039L444.59,117.354H457.5L470,87.262h.023l4.413-9.4h-.023L490.7,39.654l15.952,38.209H483.744l-4.165,9.4h30.79l12.62,30.092h11.37Z" transform="translate(55.915 3.38)" fill="#172d72"/><path d="M582.669,35.092c-6.012-5.415-13.509-8.162-22.459-8.162H530.94v90.41h10.684V81.924h0V72.411h0V36.679h19.138a21.187,21.187,0,0,1,13.914,4.83A15.535,15.535,0,0,1,581,53.487a15.907,15.907,0,0,1-5.629,13.779,20.084,20.084,0,0,1-13.993,5.145H550.146v9.513h12.834a28.64,28.64,0,0,0,19.926-7.633,24.857,24.857,0,0,0,8.556-18.8,25.577,25.577,0,0,0-8.792-20.4Z" transform="translate(66.775 3.394)" fill="#172d72"/><rect width="10.672" height="10.672" transform="translate(251.947 31.99)" fill="#172d72"/><rect width="10.672" height="64.979" transform="translate(251.947 55.901)" fill="#172d72"/><path d="M374.315,108.654v-27.9a33.12,33.12,0,0,0-10.5-25.048,33.841,33.841,0,0,0-49.05.473,34.437,34.437,0,0,0-9.682,24.452,35.124,35.124,0,0,0,10.5,25.375,32.647,32.647,0,0,0,25.06,10.053,33.266,33.266,0,0,0,23.573-10.582v4.436m0,0a20.343,20.343,0,0,1-6.957,15.344,23.259,23.259,0,0,1-16.245,6.631,23.8,23.8,0,0,1-14.511-4.852,22.223,22.223,0,0,1-7.7-9.006l-8.184,4.683a31.363,31.363,0,0,0,8.533,10.312,35.034,35.034,0,0,0,20.737,7.34h1.52a35.056,35.056,0,0,0,22.324-7.88c7.014-5.629,10.571-12.744,10.571-21.266v-2.533M363.981,81.467a25.082,25.082,0,0,1-7.2,17.3,22.043,22.043,0,0,1-16.729,7.194,23.394,23.394,0,0,1-17.326-7.2,24.193,24.193,0,0,1-7.43-17.449,24.564,24.564,0,0,1,6.755-17.675,23.359,23.359,0,0,1,16.718-8.106h1.283a21.885,21.885,0,0,1,16.729,7.43,24.463,24.463,0,0,1,7.216,18.474Z" transform="translate(38.369 5.719)" fill="#172d72"/><path d="M212.706,35.092c-6.012-5.415-13.577-8.162-22.515-8.162H161v90.41h10.672V81.924h0V72.411h0V36.679h19.082a21.187,21.187,0,0,1,13.914,4.83A15.468,15.468,0,0,1,211,53.487a15.851,15.851,0,0,1-5.629,13.779,20.061,20.061,0,0,1-13.982,5.145H180.329v9.513h12.789a28.617,28.617,0,0,0,19.814-7.633,24.834,24.834,0,0,0,8.567-18.8,25.577,25.577,0,0,0-8.792-20.4Z" transform="translate(20.249 3.394)" fill="#172d72"/><path d="M273.834,46.121a28.853,28.853,0,0,0-21.39,8.747A29.945,29.945,0,0,0,244,76.6v38.2h10.29V75.672a18.676,18.676,0,0,1,5.8-13.813,18.935,18.935,0,0,1,13.746-5.741A18.44,18.44,0,0,1,287.411,61.9a18.755,18.755,0,0,1,5.91,13.813v39.12h10.346V76.6a29.945,29.945,0,0,0-8.511-21.727A28.7,28.7,0,0,0,273.834,46.121Z" transform="translate(30.686 5.806)" fill="#172d72"/><path d="M75.494,33.387,9.13,14.722a7.194,7.194,0,0,0-6.282,1.126A6.991,6.991,0,0,0,0,21.476V142.114a6.98,6.98,0,0,0,2.724,5.539,7.171,7.171,0,0,0,4.424,1.52,7.036,7.036,0,0,0,1.677-.135l66.42-15.592h0a7.07,7.07,0,0,0,5.5-6.867v-86.4a7.092,7.092,0,0,0-5.257-6.788Z" transform="translate(0 1.822)" fill="#172d72"/><path d="M118.259,30.914a7.115,7.115,0,0,0-5.2-6.755L28.591.282a7.16,7.16,0,0,0-6.282,1.126A6.969,6.969,0,0,0,19.45,7.037V98.584a6.98,6.98,0,0,0,2.736,5.539,7.149,7.149,0,0,0,4.424,1.52,7.284,7.284,0,0,0,1.689-.2l84.568-20.061a7.059,7.059,0,0,0,5.482-6.878Z" transform="translate(2.446 0.006)" fill="#00aeef"/><path d="M73.048,32.954,19.45,17.88V96.335a6.98,6.98,0,0,0,2.736,5.539,7.149,7.149,0,0,0,4.424,1.52,7.284,7.284,0,0,0,1.689-.2l49.95-11.854V39.742A7.092,7.092,0,0,0,73.048,32.954Z" transform="translate(2.446 2.255)" fill="#3d3fea"/></g></g></g></svg>