<svg width="392" height="228" viewBox="0 0 392 228" fill="none" xmlns="http://www.w3.org/2000/svg">
    <path d="M158 0C156.555 0 155.125 0.278333 153.79 0.819108C152.456 1.35988 151.243 2.15251 150.222 3.15173C148.159 5.16975 147 7.90677 147 10.7607C147 15.5169 150.157 19.5522 154.524 20.9833C155.074 21.0694 155.25 20.7358 155.25 20.4453C155.25 20.1978 155.25 19.5199 155.25 18.6267C152.203 19.2724 151.554 17.1848 151.554 17.1848C151.048 15.9366 150.333 15.603 150.333 15.603C149.332 14.9358 150.41 14.9573 150.41 14.9573C151.51 15.0327 152.093 16.0657 152.093 16.0657C153.05 17.7013 154.667 17.2171 155.294 16.9588C155.393 16.2594 155.679 15.7859 155.987 15.5169C153.545 15.2479 150.982 14.3225 150.982 10.2226C150.982 9.02821 151.4 8.07051 152.115 7.3065C152.005 7.03749 151.62 5.91838 152.225 4.46568C152.225 4.46568 153.149 4.17515 155.25 5.56327C156.119 5.32654 157.065 5.20817 158 5.20817C158.935 5.20817 159.881 5.32654 160.75 5.56327C162.851 4.17515 163.775 4.46568 163.775 4.46568C164.38 5.91838 163.995 7.03749 163.885 7.3065C164.6 8.07051 165.018 9.02821 165.018 10.2226C165.018 14.3332 162.444 15.2371 159.991 15.5061C160.387 15.8397 160.75 16.4961 160.75 17.4969C160.75 18.9388 160.75 20.101 160.75 20.4453C160.75 20.7358 160.926 21.0802 161.487 20.9833C165.854 19.5414 169 15.5169 169 10.7607C169 9.34757 168.715 7.94829 168.163 6.64275C167.61 5.3372 166.8 4.15095 165.778 3.15173C164.757 2.15251 163.544 1.35988 162.21 0.819108C160.875 0.278333 159.445 0 158 0Z" fill="white"/>
    <path d="M29.6662 104.818H31.2074V111.515C31.2074 112.228 31.04 112.859 30.7053 113.409C30.3705 113.956 29.8999 114.387 29.2933 114.702C28.6868 115.013 27.9759 115.169 27.1605 115.169C26.3485 115.169 25.6392 115.013 25.0327 114.702C24.4261 114.387 23.9555 113.956 23.6207 113.409C23.286 112.859 23.1186 112.228 23.1186 111.515V104.818H24.6548V111.391C24.6548 111.851 24.7559 112.261 24.9581 112.619C25.1636 112.977 25.4536 113.258 25.8281 113.464C26.2027 113.666 26.6468 113.767 27.1605 113.767C27.6776 113.767 28.1233 113.666 28.4979 113.464C28.8757 113.258 29.1641 112.977 29.3629 112.619C29.5651 112.261 29.6662 111.851 29.6662 111.391V104.818ZM39.0439 109.228L37.6966 109.467C37.6402 109.294 37.5507 109.13 37.4281 108.974C37.3088 108.819 37.1464 108.691 36.9409 108.592C36.7354 108.492 36.4785 108.442 36.1703 108.442C35.7493 108.442 35.398 108.537 35.1163 108.726C34.8346 108.911 34.6937 109.152 34.6937 109.447C34.6937 109.702 34.7882 109.907 34.9771 110.063C35.166 110.219 35.4709 110.347 35.8919 110.446L37.1049 110.724C37.8076 110.887 38.3313 111.137 38.676 111.475C39.0207 111.813 39.193 112.252 39.193 112.793C39.193 113.25 39.0604 113.658 38.7953 114.016C38.5334 114.37 38.1672 114.649 37.6966 114.851C37.2292 115.053 36.6873 115.154 36.0708 115.154C35.2157 115.154 34.5181 114.972 33.9778 114.607C33.4376 114.239 33.1061 113.717 32.9835 113.041L34.4203 112.822C34.5098 113.197 34.6937 113.48 34.9721 113.673C35.2505 113.862 35.6135 113.956 36.0609 113.956C36.5481 113.956 36.9376 113.855 37.2292 113.653C37.5209 113.447 37.6667 113.197 37.6667 112.902C37.6667 112.663 37.5772 112.463 37.3983 112.3C37.2226 112.138 36.9525 112.015 36.5879 111.933L35.2953 111.649C34.5827 111.487 34.0557 111.228 33.7143 110.874C33.3762 110.519 33.2072 110.07 33.2072 109.526C33.2072 109.076 33.3332 108.681 33.585 108.343C33.8369 108.005 34.185 107.741 34.6291 107.553C35.0732 107.36 35.582 107.264 36.1554 107.264C36.9806 107.264 37.6303 107.443 38.1042 107.801C38.5782 108.156 38.8914 108.631 39.0439 109.228ZM44.1186 115.154C43.3662 115.154 42.7183 114.993 42.1747 114.672C41.6345 114.347 41.2169 113.891 40.9219 113.305C40.6302 112.715 40.4844 112.024 40.4844 111.232C40.4844 110.449 40.6302 109.76 40.9219 109.163C41.2169 108.567 41.6278 108.101 42.1548 107.766C42.6851 107.432 43.3049 107.264 44.0142 107.264C44.4451 107.264 44.8627 107.335 45.267 107.478C45.6714 107.621 46.0343 107.844 46.3558 108.149C46.6773 108.454 46.9309 108.85 47.1165 109.337C47.3021 109.821 47.3949 110.41 47.3949 111.102V111.629H41.3246V110.516H45.9382C45.9382 110.125 45.8587 109.778 45.6996 109.477C45.5405 109.172 45.3168 108.931 45.0284 108.756C44.7434 108.58 44.4086 108.492 44.0241 108.492C43.6065 108.492 43.242 108.595 42.9304 108.8C42.6222 109.003 42.3835 109.268 42.2145 109.596C42.0488 109.921 41.9659 110.274 41.9659 110.655V111.525C41.9659 112.035 42.0554 112.469 42.2344 112.827C42.4167 113.185 42.6702 113.459 42.995 113.648C43.3198 113.833 43.6993 113.926 44.1335 113.926C44.4152 113.926 44.6721 113.886 44.9041 113.807C45.1361 113.724 45.3366 113.601 45.5057 113.439C45.6747 113.277 45.804 113.076 45.8935 112.837L47.3004 113.091C47.1877 113.505 46.9856 113.868 46.6939 114.18C46.4055 114.488 46.0426 114.728 45.6051 114.901C45.1709 115.07 44.6754 115.154 44.1186 115.154ZM49.0442 115V107.364H50.481V108.577H50.5605C50.6998 108.166 50.945 107.843 51.2963 107.607C51.651 107.369 52.052 107.249 52.4995 107.249C52.5923 107.249 52.7016 107.253 52.8276 107.259C52.9569 107.266 53.0579 107.274 53.1309 107.284V108.706C53.0712 108.689 52.9651 108.671 52.8127 108.651C52.6602 108.628 52.5078 108.616 52.3553 108.616C52.004 108.616 51.6908 108.691 51.4157 108.84C51.1439 108.986 50.9284 109.19 50.7694 109.452C50.6103 109.71 50.5307 110.005 50.5307 110.337V115H49.0442ZM60.1396 109.228L58.7923 109.467C58.7359 109.294 58.6464 109.13 58.5238 108.974C58.4045 108.819 58.2421 108.691 58.0366 108.592C57.8311 108.492 57.5742 108.442 57.266 108.442C56.8451 108.442 56.4937 108.537 56.212 108.726C55.9303 108.911 55.7894 109.152 55.7894 109.447C55.7894 109.702 55.8839 109.907 56.0728 110.063C56.2617 110.219 56.5666 110.347 56.9876 110.446L58.2006 110.724C58.9033 110.887 59.427 111.137 59.7717 111.475C60.1164 111.813 60.2887 112.252 60.2887 112.793C60.2887 113.25 60.1561 113.658 59.891 114.016C59.6291 114.37 59.2629 114.649 58.7923 114.851C58.3249 115.053 57.783 115.154 57.1665 115.154C56.3114 115.154 55.6138 114.972 55.0735 114.607C54.5333 114.239 54.2018 113.717 54.0792 113.041L55.516 112.822C55.6055 113.197 55.7894 113.48 56.0678 113.673C56.3462 113.862 56.7092 113.956 57.1566 113.956C57.6438 113.956 58.0333 113.855 58.3249 113.653C58.6166 113.447 58.7624 113.197 58.7624 112.902C58.7624 112.663 58.6729 112.463 58.494 112.3C58.3183 112.138 58.0482 112.015 57.6836 111.933L56.391 111.649C55.6784 111.487 55.1514 111.228 54.81 110.874C54.4719 110.519 54.3029 110.07 54.3029 109.526C54.3029 109.076 54.4289 108.681 54.6808 108.343C54.9326 108.005 55.2807 107.741 55.7248 107.553C56.1689 107.36 56.6777 107.264 57.2511 107.264C58.0763 107.264 58.726 107.443 59.1999 107.801C59.6739 108.156 59.9871 108.631 60.1396 109.228Z" fill="#D1D1D1"/>
    <g clip-path="url(#clip0_0_1)">
        <path d="M185.978 9.41823H181.188C181.064 9.41823 180.965 9.51525 180.965 9.63536V11.9144C180.965 12.0345 181.064 12.133 181.188 12.133H183.057V14.9649C183.057 14.9649 182.637 15.1035 181.477 15.1035C180.108 15.1035 178.197 14.6169 178.197 10.5269C178.197 6.43702 180.188 5.89806 182.057 5.89806C183.674 5.89806 184.372 6.17524 184.815 6.30921C184.954 6.35079 185.082 6.21528 185.082 6.09517L185.617 3.89313C185.617 3.83616 185.598 3.7684 185.532 3.72375C185.351 3.59902 184.253 3 181.477 3C178.281 2.99846 175 4.32276 175 10.6856C175 17.0484 178.755 17.9969 181.92 17.9969C184.541 17.9969 186.13 16.9067 186.13 16.9067C186.195 16.8713 186.203 16.782 186.203 16.7419V9.6369C186.203 9.51679 186.103 9.41977 185.98 9.41977L185.978 9.41823Z" fill="white"/>
        <path d="M210.663 3.76163C210.663 3.63998 210.565 3.54297 210.442 3.54297H207.745C207.622 3.54297 207.522 3.64152 207.522 3.76163V8.83247H203.319V3.76163C203.319 3.63998 203.219 3.54297 203.096 3.54297H200.399C200.275 3.54297 200.176 3.64152 200.176 3.76163V17.4943C200.176 17.616 200.275 17.7145 200.399 17.7145H203.096C203.219 17.7145 203.319 17.616 203.319 17.4943V11.6197H207.522L207.514 17.4928C207.514 17.6144 207.614 17.713 207.737 17.713H210.44C210.564 17.713 210.662 17.6144 210.663 17.4928V3.76163Z" fill="white"/>
        <path d="M191.068 5.56083C191.068 4.61534 190.29 3.85156 189.329 3.85156C188.368 3.85156 187.59 4.61534 187.59 5.56083C187.59 6.50632 188.368 7.2701 189.329 7.2701C190.29 7.2701 191.068 6.50478 191.068 5.56083Z" fill="white"/>
        <path d="M190.875 14.5935V8.25382C190.875 8.13371 190.775 8.03516 190.651 8.03516H187.963C187.839 8.03516 187.729 8.15835 187.729 8.28V17.3622C187.729 17.6286 187.899 17.7087 188.121 17.7087H190.544C190.81 17.7087 190.875 17.5824 190.875 17.3576V14.5935Z" fill="white"/>
        <path d="M220.913 8.06013H218.237C218.114 8.06013 218.014 8.15869 218.014 8.28034V15.0142C218.014 15.0142 217.334 15.4978 216.37 15.4978C215.406 15.4978 215.148 15.0712 215.148 14.1519V8.2788C215.148 8.15715 215.049 8.05859 214.925 8.05859H212.209C212.088 8.05859 211.986 8.15715 211.986 8.2788V14.5954C211.986 17.3256 213.55 17.9939 215.702 17.9939C217.467 17.9939 218.891 17.0454 218.891 17.0454C218.891 17.0454 218.959 17.5458 218.989 17.6043C219.019 17.6628 219.1 17.7229 219.185 17.7229L220.913 17.7152C221.035 17.7152 221.137 17.6166 221.137 17.4965V8.2788C221.137 8.15715 221.035 8.05859 220.912 8.05859L220.913 8.06013Z" fill="white"/>
        <path d="M228.229 7.75147C226.708 7.75147 225.674 8.41208 225.674 8.41208V3.76163C225.674 3.63998 225.575 3.54297 225.451 3.54297H222.747C222.623 3.54297 222.523 3.64152 222.523 3.76163V17.4943C222.523 17.616 222.623 17.7145 222.747 17.7145H224.623C224.707 17.7145 224.772 17.6714 224.82 17.5975C224.866 17.5236 224.934 16.9646 224.934 16.9646C224.934 16.9646 226.04 17.984 228.134 17.984C230.591 17.984 232.001 16.7706 232.001 12.5374C232.001 8.30429 229.749 7.75147 228.229 7.75147ZM227.173 15.4878C226.244 15.4601 225.616 15.0505 225.616 15.0505V10.7019C225.616 10.7019 226.236 10.3308 226.999 10.2646C227.963 10.1799 228.892 10.4632 228.892 12.7007C228.892 15.0598 228.472 15.5248 227.175 15.4878H227.173Z" fill="white"/>
        <path d="M198.626 8.03775H196.603C196.603 8.03775 196.6 5.43843 196.6 5.43689C196.6 5.33834 196.548 5.28906 196.431 5.28906H193.674C193.566 5.28906 193.509 5.33526 193.509 5.43535V8.12245C193.509 8.12245 192.128 8.44736 192.034 8.47354C191.941 8.49972 191.873 8.58287 191.873 8.68296V10.3722C191.873 10.4939 191.973 10.5909 192.096 10.5909H193.509V14.6531C193.509 17.6713 195.685 17.9669 197.152 17.9669C197.823 17.9669 198.626 17.7575 198.759 17.7098C198.839 17.6805 198.885 17.6004 198.885 17.5127V15.6556C198.887 15.5339 198.782 15.4369 198.664 15.4369C198.545 15.4369 198.244 15.4831 197.934 15.4831C196.94 15.4831 196.603 15.0334 196.603 14.4514C196.603 13.8693 196.603 10.5909 196.603 10.5909H198.626C198.749 10.5909 198.849 10.4923 198.849 10.3722V8.25642C198.849 8.13477 198.749 8.03775 198.626 8.03775Z" fill="white"/>
    </g>
    <path d="M310.119 115V104.818H313.748C314.537 104.818 315.191 104.954 315.712 105.226C316.235 105.498 316.626 105.874 316.885 106.354C317.143 106.832 317.273 107.384 317.273 108.01C317.273 108.633 317.142 109.182 316.88 109.656C316.621 110.126 316.23 110.492 315.707 110.754C315.186 111.016 314.532 111.147 313.743 111.147H310.994V109.825H313.604C314.101 109.825 314.505 109.753 314.817 109.611C315.132 109.468 315.362 109.261 315.508 108.989C315.654 108.718 315.727 108.391 315.727 108.01C315.727 107.625 315.652 107.292 315.503 107.011C315.357 106.729 315.127 106.513 314.812 106.364C314.5 106.212 314.091 106.136 313.584 106.136H311.655V115H310.119ZM315.145 110.406L317.661 115H315.911L313.445 110.406H315.145ZM322.218 115.154C321.466 115.154 320.818 114.993 320.274 114.672C319.734 114.347 319.316 113.891 319.021 113.305C318.73 112.715 318.584 112.024 318.584 111.232C318.584 110.449 318.73 109.76 319.021 109.163C319.316 108.567 319.727 108.101 320.254 107.766C320.785 107.432 321.405 107.264 322.114 107.264C322.545 107.264 322.962 107.335 323.367 107.478C323.771 107.621 324.134 107.844 324.455 108.149C324.777 108.454 325.03 108.85 325.216 109.337C325.402 109.821 325.494 110.41 325.494 111.102V111.629H319.424V110.516H324.038C324.038 110.125 323.958 109.778 323.799 109.477C323.64 109.172 323.416 108.931 323.128 108.756C322.843 108.58 322.508 108.492 322.124 108.492C321.706 108.492 321.342 108.595 321.03 108.8C320.722 109.003 320.483 109.268 320.314 109.596C320.148 109.921 320.066 110.274 320.066 110.655V111.525C320.066 112.035 320.155 112.469 320.334 112.827C320.516 113.185 320.77 113.459 321.095 113.648C321.419 113.833 321.799 113.926 322.233 113.926C322.515 113.926 322.772 113.886 323.004 113.807C323.236 113.724 323.436 113.601 323.605 113.439C323.774 113.277 323.904 113.076 323.993 112.837L325.4 113.091C325.287 113.505 325.085 113.868 324.794 114.18C324.505 114.488 324.142 114.728 323.705 114.901C323.271 115.07 322.775 115.154 322.218 115.154ZM327.144 117.864V107.364H328.596V108.602H328.72C328.806 108.442 328.93 108.259 329.093 108.05C329.255 107.841 329.48 107.659 329.769 107.503C330.057 107.344 330.438 107.264 330.912 107.264C331.529 107.264 332.079 107.42 332.563 107.732C333.047 108.043 333.426 108.492 333.701 109.079C333.98 109.665 334.119 110.371 334.119 111.197C334.119 112.022 333.981 112.73 333.706 113.32C333.431 113.906 333.053 114.359 332.573 114.677C332.092 114.992 331.544 115.149 330.927 115.149C330.463 115.149 330.084 115.071 329.789 114.915C329.497 114.76 329.268 114.577 329.103 114.369C328.937 114.16 328.809 113.974 328.72 113.812H328.63V117.864H327.144ZM328.6 111.182C328.6 111.719 328.678 112.189 328.834 112.594C328.99 112.998 329.215 113.315 329.51 113.543C329.805 113.769 330.167 113.881 330.594 113.881C331.038 113.881 331.409 113.764 331.708 113.528C332.006 113.29 332.231 112.967 332.384 112.559C332.54 112.151 332.618 111.692 332.618 111.182C332.618 110.678 332.541 110.226 332.389 109.825C332.24 109.424 332.014 109.107 331.713 108.875C331.414 108.643 331.042 108.527 330.594 108.527C330.163 108.527 329.799 108.638 329.5 108.86C329.205 109.082 328.982 109.392 328.829 109.79C328.677 110.187 328.6 110.652 328.6 111.182ZM339.001 115.154C338.285 115.154 337.66 114.99 337.127 114.662C336.593 114.334 336.179 113.875 335.884 113.285C335.589 112.695 335.441 112.005 335.441 111.217C335.441 110.424 335.589 109.732 335.884 109.138C336.179 108.545 336.593 108.085 337.127 107.756C337.66 107.428 338.285 107.264 339.001 107.264C339.717 107.264 340.342 107.428 340.875 107.756C341.409 108.085 341.823 108.545 342.118 109.138C342.413 109.732 342.561 110.424 342.561 111.217C342.561 112.005 342.413 112.695 342.118 113.285C341.823 113.875 341.409 114.334 340.875 114.662C340.342 114.99 339.717 115.154 339.001 115.154ZM339.006 113.906C339.47 113.906 339.855 113.784 340.159 113.538C340.464 113.293 340.69 112.967 340.836 112.559C340.985 112.151 341.059 111.702 341.059 111.212C341.059 110.724 340.985 110.277 340.836 109.869C340.69 109.458 340.464 109.129 340.159 108.88C339.855 108.631 339.47 108.507 339.006 108.507C338.539 108.507 338.151 108.631 337.843 108.88C337.538 109.129 337.311 109.458 337.162 109.869C337.016 110.277 336.943 110.724 336.943 111.212C336.943 111.702 337.016 112.151 337.162 112.559C337.311 112.967 337.538 113.293 337.843 113.538C338.151 113.784 338.539 113.906 339.006 113.906ZM349.942 109.228L348.595 109.467C348.539 109.294 348.449 109.13 348.327 108.974C348.207 108.819 348.045 108.691 347.839 108.592C347.634 108.492 347.377 108.442 347.069 108.442C346.648 108.442 346.296 108.537 346.015 108.726C345.733 108.911 345.592 109.152 345.592 109.447C345.592 109.702 345.687 109.907 345.876 110.063C346.064 110.219 346.369 110.347 346.79 110.446L348.003 110.724C348.706 110.887 349.23 111.137 349.574 111.475C349.919 111.813 350.091 112.252 350.091 112.793C350.091 113.25 349.959 113.658 349.694 114.016C349.432 114.37 349.066 114.649 348.595 114.851C348.128 115.053 347.586 115.154 346.969 115.154C346.114 115.154 345.416 114.972 344.876 114.607C344.336 114.239 344.005 113.717 343.882 113.041L345.319 112.822C345.408 113.197 345.592 113.48 345.871 113.673C346.149 113.862 346.512 113.956 346.959 113.956C347.447 113.956 347.836 113.855 348.128 113.653C348.419 113.447 348.565 113.197 348.565 112.902C348.565 112.663 348.476 112.463 348.297 112.3C348.121 112.138 347.851 112.015 347.486 111.933L346.194 111.649C345.481 111.487 344.954 111.228 344.613 110.874C344.275 110.519 344.106 110.07 344.106 109.526C344.106 109.076 344.232 108.681 344.483 108.343C344.735 108.005 345.083 107.741 345.528 107.553C345.972 107.36 346.48 107.264 347.054 107.264C347.879 107.264 348.529 107.443 349.003 107.801C349.477 108.156 349.79 108.631 349.942 109.228ZM351.726 115V107.364H353.212V115H351.726ZM352.477 106.185C352.218 106.185 351.996 106.099 351.81 105.927C351.628 105.751 351.537 105.542 351.537 105.3C351.537 105.055 351.628 104.846 351.81 104.674C351.996 104.498 352.218 104.411 352.477 104.411C352.735 104.411 352.955 104.498 353.138 104.674C353.323 104.846 353.416 105.055 353.416 105.3C353.416 105.542 353.323 105.751 353.138 105.927C352.955 106.099 352.735 106.185 352.477 106.185ZM358.777 107.364V108.557H354.606V107.364H358.777ZM355.724 105.534H357.211V112.758C357.211 113.046 357.254 113.263 357.34 113.409C357.426 113.552 357.537 113.649 357.673 113.702C357.812 113.752 357.963 113.777 358.126 113.777C358.245 113.777 358.349 113.769 358.439 113.752C358.528 113.736 358.598 113.722 358.648 113.712L358.916 114.94C358.83 114.973 358.707 115.007 358.548 115.04C358.389 115.076 358.19 115.096 357.952 115.099C357.56 115.106 357.196 115.036 356.858 114.891C356.52 114.745 356.246 114.519 356.037 114.214C355.829 113.91 355.724 113.527 355.724 113.066V105.534ZM363.556 115.154C362.84 115.154 362.215 114.99 361.681 114.662C361.148 114.334 360.734 113.875 360.439 113.285C360.144 112.695 359.996 112.005 359.996 111.217C359.996 110.424 360.144 109.732 360.439 109.138C360.734 108.545 361.148 108.085 361.681 107.756C362.215 107.428 362.84 107.264 363.556 107.264C364.272 107.264 364.896 107.428 365.43 107.756C365.964 108.085 366.378 108.545 366.673 109.138C366.968 109.732 367.115 110.424 367.115 111.217C367.115 112.005 366.968 112.695 366.673 113.285C366.378 113.875 365.964 114.334 365.43 114.662C364.896 114.99 364.272 115.154 363.556 115.154ZM363.561 113.906C364.025 113.906 364.409 113.784 364.714 113.538C365.019 113.293 365.244 112.967 365.39 112.559C365.539 112.151 365.614 111.702 365.614 111.212C365.614 110.724 365.539 110.277 365.39 109.869C365.244 109.458 365.019 109.129 364.714 108.88C364.409 108.631 364.025 108.507 363.561 108.507C363.093 108.507 362.706 108.631 362.397 108.88C362.092 109.129 361.865 109.458 361.716 109.869C361.57 110.277 361.498 110.724 361.498 111.212C361.498 111.702 361.57 112.151 361.716 112.559C361.865 112.967 362.092 113.293 362.397 113.538C362.706 113.784 363.093 113.906 363.561 113.906ZM368.775 115V107.364H370.211V108.577H370.291C370.43 108.166 370.675 107.843 371.027 107.607C371.381 107.369 371.782 107.249 372.23 107.249C372.323 107.249 372.432 107.253 372.558 107.259C372.687 107.266 372.788 107.274 372.861 107.284V108.706C372.802 108.689 372.696 108.671 372.543 108.651C372.391 108.628 372.238 108.616 372.086 108.616C371.734 108.616 371.421 108.691 371.146 108.84C370.874 108.986 370.659 109.19 370.5 109.452C370.341 109.71 370.261 110.005 370.261 110.337V115H368.775ZM374.148 115V107.364H375.634V115H374.148ZM374.898 106.185C374.64 106.185 374.418 106.099 374.232 105.927C374.05 105.751 373.959 105.542 373.959 105.3C373.959 105.055 374.05 104.846 374.232 104.674C374.418 104.498 374.64 104.411 374.898 104.411C375.157 104.411 375.377 104.498 375.56 104.674C375.745 104.846 375.838 105.055 375.838 105.3C375.838 105.542 375.745 105.751 375.56 105.927C375.377 106.099 375.157 106.185 374.898 106.185ZM380.925 115.154C380.173 115.154 379.525 114.993 378.981 114.672C378.441 114.347 378.023 113.891 377.729 113.305C377.437 112.715 377.291 112.024 377.291 111.232C377.291 110.449 377.437 109.76 377.729 109.163C378.023 108.567 378.434 108.101 378.961 107.766C379.492 107.432 380.112 107.264 380.821 107.264C381.252 107.264 381.669 107.335 382.074 107.478C382.478 107.621 382.841 107.844 383.162 108.149C383.484 108.454 383.738 108.85 383.923 109.337C384.109 109.821 384.202 110.41 384.202 111.102V111.629H378.131V110.516H382.745C382.745 110.125 382.665 109.778 382.506 109.477C382.347 109.172 382.123 108.931 381.835 108.756C381.55 108.58 381.215 108.492 380.831 108.492C380.413 108.492 380.049 108.595 379.737 108.8C379.429 109.003 379.19 109.268 379.021 109.596C378.855 109.921 378.773 110.274 378.773 110.655V111.525C378.773 112.035 378.862 112.469 379.041 112.827C379.223 113.185 379.477 113.459 379.802 113.648C380.126 113.833 380.506 113.926 380.94 113.926C381.222 113.926 381.479 113.886 381.711 113.807C381.943 113.724 382.143 113.601 382.312 113.439C382.481 113.277 382.611 113.076 382.7 112.837L384.107 113.091C383.994 113.505 383.792 113.868 383.501 114.18C383.212 114.488 382.849 114.728 382.412 114.901C381.978 115.07 381.482 115.154 380.925 115.154ZM391.573 109.228L390.226 109.467C390.17 109.294 390.08 109.13 389.957 108.974C389.838 108.819 389.676 108.691 389.47 108.592C389.265 108.492 389.008 108.442 388.7 108.442C388.279 108.442 387.927 108.537 387.646 108.726C387.364 108.911 387.223 109.152 387.223 109.447C387.223 109.702 387.317 109.907 387.506 110.063C387.695 110.219 388 110.347 388.421 110.446L389.634 110.724C390.337 110.887 390.861 111.137 391.205 111.475C391.55 111.813 391.722 112.252 391.722 112.793C391.722 113.25 391.59 113.658 391.325 114.016C391.063 114.37 390.696 114.649 390.226 114.851C389.759 115.053 389.217 115.154 388.6 115.154C387.745 115.154 387.047 114.972 386.507 114.607C385.967 114.239 385.635 113.717 385.513 113.041L386.95 112.822C387.039 113.197 387.223 113.48 387.501 113.673C387.78 113.862 388.143 113.956 388.59 113.956C389.077 113.956 389.467 113.855 389.759 113.653C390.05 113.447 390.196 113.197 390.196 112.902C390.196 112.663 390.107 112.463 389.928 112.3C389.752 112.138 389.482 112.015 389.117 111.933L387.825 111.649C387.112 111.487 386.585 111.228 386.244 110.874C385.906 110.519 385.737 110.07 385.737 109.526C385.737 109.076 385.862 108.681 386.114 108.343C386.366 108.005 386.714 107.741 387.158 107.553C387.603 107.36 388.111 107.264 388.685 107.264C389.51 107.264 390.16 107.443 390.634 107.801C391.107 108.156 391.421 108.631 391.573 109.228Z" fill="#D1D1D1"/>
    <path d="M175.119 95V84.8182H181.502V86.1406H176.655V89.2429H181.169V90.5604H176.655V93.6776H181.562V95H175.119ZM189.968 87.3636L187.198 95H185.607L182.833 87.3636H184.429L186.363 93.2401H186.443L188.372 87.3636H189.968ZM194.396 95.1541C193.644 95.1541 192.996 94.9934 192.452 94.6719C191.912 94.3471 191.494 93.8913 191.199 93.3047C190.908 92.7147 190.762 92.0237 190.762 91.2315C190.762 90.4493 190.908 89.7599 191.199 89.1634C191.494 88.5668 191.905 88.1011 192.432 87.7663C192.962 87.4316 193.582 87.2642 194.292 87.2642C194.722 87.2642 195.14 87.3355 195.544 87.478C195.949 87.6205 196.312 87.8442 196.633 88.1491C196.955 88.4541 197.208 88.8501 197.394 89.3374C197.579 89.8213 197.672 90.4096 197.672 91.1023V91.6293H191.602V90.5156H196.216C196.216 90.1245 196.136 89.7782 195.977 89.4766C195.818 89.1716 195.594 88.9313 195.306 88.7557C195.021 88.58 194.686 88.4922 194.301 88.4922C193.884 88.4922 193.519 88.5949 193.208 88.8004C192.9 89.0026 192.661 89.2678 192.492 89.5959C192.326 89.9207 192.243 90.2737 192.243 90.6548V91.5249C192.243 92.0353 192.333 92.4695 192.512 92.8274C192.694 93.1854 192.948 93.4588 193.272 93.6477C193.597 93.8333 193.977 93.9261 194.411 93.9261C194.693 93.9261 194.949 93.8864 195.181 93.8068C195.413 93.724 195.614 93.6013 195.783 93.4389C195.952 93.2765 196.081 93.076 196.171 92.8374L197.578 93.0909C197.465 93.5052 197.263 93.8681 196.971 94.1797C196.683 94.4879 196.32 94.7282 195.882 94.9006C195.448 95.0696 194.953 95.1541 194.396 95.1541ZM200.808 90.4659V95H199.322V87.3636H200.748V88.6065H200.843C201.019 88.2022 201.294 87.8774 201.668 87.6321C202.046 87.3868 202.522 87.2642 203.095 87.2642C203.615 87.2642 204.071 87.3736 204.462 87.5923C204.853 87.8078 205.157 88.1293 205.372 88.5568C205.587 88.9844 205.695 89.513 205.695 90.1428V95H204.209V90.3217C204.209 89.7682 204.064 89.3357 203.776 89.0241C203.488 88.7093 203.092 88.5518 202.588 88.5518C202.243 88.5518 201.937 88.6264 201.668 88.7756C201.403 88.9247 201.193 89.1435 201.037 89.4318C200.884 89.7169 200.808 90.0616 200.808 90.4659ZM211.253 87.3636V88.5568H207.082V87.3636H211.253ZM208.201 85.5341H209.687V92.7578C209.687 93.0462 209.73 93.2633 209.817 93.4091C209.903 93.5516 210.014 93.6494 210.15 93.7024C210.289 93.7521 210.44 93.777 210.602 93.777C210.721 93.777 210.826 93.7687 210.915 93.7521C211.005 93.7356 211.074 93.7223 211.124 93.7124L211.393 94.9403C211.306 94.9735 211.184 95.0066 211.025 95.0398C210.866 95.0762 210.667 95.0961 210.428 95.0994C210.037 95.1061 209.672 95.0365 209.334 94.8906C208.996 94.7448 208.723 94.5194 208.514 94.2145C208.305 93.9096 208.201 93.5268 208.201 93.0661V85.5341ZM218.497 89.228L217.15 89.4666C217.093 89.2943 217.004 89.1302 216.881 88.9744C216.762 88.8187 216.599 88.6911 216.394 88.5916C216.189 88.4922 215.932 88.4425 215.623 88.4425C215.202 88.4425 214.851 88.5369 214.569 88.7259C214.288 88.9115 214.147 89.1518 214.147 89.4467C214.147 89.7019 214.241 89.9074 214.43 90.0632C214.619 90.219 214.924 90.3466 215.345 90.446L216.558 90.7244C217.261 90.8868 217.784 91.1371 218.129 91.4751C218.474 91.8132 218.646 92.2524 218.646 92.7926C218.646 93.25 218.514 93.6577 218.248 94.0156C217.987 94.3703 217.62 94.6487 217.15 94.8509C216.682 95.053 216.14 95.1541 215.524 95.1541C214.669 95.1541 213.971 94.9718 213.431 94.6072C212.891 94.2393 212.559 93.7173 212.437 93.0412L213.873 92.8224C213.963 93.197 214.147 93.4804 214.425 93.6726C214.704 93.8615 215.067 93.956 215.514 93.956C216.001 93.956 216.391 93.8549 216.682 93.6527C216.974 93.4472 217.12 93.197 217.12 92.902C217.12 92.6634 217.03 92.4628 216.851 92.3004C216.676 92.138 216.406 92.0154 216.041 91.9325L214.748 91.6491C214.036 91.4867 213.509 91.2282 213.167 90.8736C212.829 90.5189 212.66 90.0698 212.66 89.5263C212.66 89.0755 212.786 88.6811 213.038 88.343C213.29 88.005 213.638 87.7415 214.082 87.5526C214.526 87.3603 215.035 87.2642 215.608 87.2642C216.434 87.2642 217.083 87.4432 217.557 87.8011C218.031 88.1558 218.345 88.6314 218.497 89.228Z" fill="#D1D1D1"/>
    <path d="M44.0213 138.852C46.653 138.852 49.1769 139.907 51.0378 141.785C52.8987 143.663 53.9442 146.21 53.9442 148.866C53.9442 151.522 52.8987 154.07 51.0378 155.948C49.1769 157.826 46.653 158.881 44.0213 158.881C41.3896 158.881 38.8656 157.826 37.0047 155.948C35.1438 154.07 34.0984 151.522 34.0984 148.866C34.0984 146.21 35.1438 143.663 37.0047 141.785C38.8656 139.907 41.3896 138.852 44.0213 138.852ZM24.1755 146.005C25.7632 146.005 27.2374 146.434 28.5132 147.207C28.088 151.298 29.2787 155.361 31.7169 158.538C30.2994 161.284 27.4643 163.173 24.1755 163.173C21.9198 163.173 19.7564 162.269 18.1614 160.659C16.5663 159.049 15.6702 156.866 15.6702 154.589C15.6702 152.312 16.5663 150.129 18.1614 148.519C19.7564 146.909 21.9198 146.005 24.1755 146.005ZM63.867 146.005C66.1228 146.005 68.2861 146.909 69.8812 148.519C71.4762 150.129 72.3723 152.312 72.3723 154.589C72.3723 156.866 71.4762 159.049 69.8812 160.659C68.2861 162.269 66.1228 163.173 63.867 163.173C60.5783 163.173 57.7432 161.284 56.3256 158.538C58.7638 155.361 59.9546 151.298 59.5293 147.207C60.8051 146.434 62.2794 146.005 63.867 146.005ZM25.5931 175.334C25.5931 169.411 33.8432 164.604 44.0213 164.604C54.1993 164.604 62.4495 169.411 62.4495 175.334V180.341H25.5931V175.334ZM10 180.341V176.049C10 172.072 15.3584 168.724 22.6162 167.751C20.9435 169.697 19.9229 172.386 19.9229 175.334V180.341H10ZM78.0426 180.341H68.1197V175.334C68.1197 172.386 67.099 169.697 65.4263 167.751C72.6842 168.724 78.0426 172.072 78.0426 176.049V180.341Z" fill="white"/>
    <circle cx="67.6696" cy="183.244" r="20.3298" fill="#464545"/>
    <circle cx="36.1384" cy="200.67" r="20.3298" fill="#464545"/>
    <path d="M68.639 184.345C69.0022 184.345 69.3619 184.273 69.6974 184.132C70.033 183.991 70.3379 183.785 70.5948 183.525C70.8516 183.265 71.0554 182.956 71.1944 182.616C71.3334 182.277 71.4049 181.912 71.4049 181.545C71.4049 180.802 71.1135 180.09 70.5948 179.564C70.0761 179.039 69.3725 178.744 68.639 178.744C67.9054 178.744 67.2019 179.039 66.6831 179.564C66.1644 180.09 65.873 180.802 65.873 181.545C65.873 181.912 65.9445 182.277 66.0836 182.616C66.2226 182.956 66.4263 183.265 66.6831 183.525C67.2019 184.05 67.9054 184.345 68.639 184.345ZM68.639 173.703C72.9096 173.703 76.3836 177.209 76.3836 181.545C76.3836 187.426 68.639 196.107 68.639 196.107C68.639 196.107 60.8943 187.426 60.8943 181.545C60.8943 179.465 61.7102 177.47 63.1626 176C64.6151 174.529 66.5849 173.703 68.639 173.703ZM58.6815 181.545C58.6815 186.586 64.3019 193.486 65.3198 194.774L64.2134 196.107C64.2134 196.107 56.4688 187.426 56.4688 181.545C56.4688 177.994 58.8032 174.991 62.0007 174.028C59.9649 175.876 58.6815 178.554 58.6815 181.545Z" fill="white"/>
    <path d="M43.5247 204.127H41.2013V206.432H43.5247M43.5247 199.517H41.2013V201.822H43.5247M45.8481 208.737H36.5545V206.432H38.8779V204.127H36.5545V201.822H38.8779V199.517H36.5545V197.212H45.8481M34.2311 194.907H31.9077V192.602H34.2311M34.2311 199.517H31.9077V197.212H34.2311M34.2311 204.127H31.9077V201.822H34.2311M34.2311 208.737H31.9077V206.432H34.2311M29.5843 194.907H27.2609V192.602H29.5843M29.5843 199.517H27.2609V197.212H29.5843M29.5843 204.127H27.2609V201.822H29.5843M29.5843 208.737H27.2609V206.432H29.5843M36.5545 194.907V190.297H24.9375V211.042H48.1715V194.907H36.5545Z" fill="white"/>
    <path d="M328.6 141H365.8C367.444 141 369.021 141.658 370.184 142.831C371.347 144.003 372 145.592 372 147.25V197.25C372 198.908 371.347 200.497 370.184 201.669C369.021 202.842 367.444 203.5 365.8 203.5H328.6C326.956 203.5 325.379 202.842 324.216 201.669C323.053 200.497 322.4 198.908 322.4 197.25V147.25C322.4 145.592 323.053 144.003 324.216 142.831C325.379 141.658 326.956 141 328.6 141ZM349.525 176.938C358.05 176.938 360.344 170.594 360.933 167.25C363.754 166.344 365.8 163.688 365.8 160.531C365.8 156.625 362.7 153.5 358.825 153.5C354.95 153.5 351.85 156.625 351.85 160.531C351.85 163.469 353.617 166 356.159 167.031C355.477 169.125 353.4 172.25 347.2 172.25C342.922 172.25 339.946 173.344 337.9 174.875V162.469C340.597 161.5 342.55 158.906 342.55 155.844C342.55 151.938 339.45 148.812 335.575 148.812C331.7 148.812 328.6 151.938 328.6 155.844C328.6 158.906 330.553 161.5 333.25 162.469V182.031C330.553 183 328.6 185.594 328.6 188.656C328.6 192.562 331.7 195.688 335.575 195.688C339.45 195.688 342.55 192.562 342.55 188.656C342.55 185.75 340.814 183.188 338.303 182.188C339.171 180.062 341.713 176.938 349.525 176.938ZM335.575 186.312C336.192 186.312 336.783 186.559 337.219 186.999C337.655 187.439 337.9 188.035 337.9 188.656C337.9 189.278 337.655 189.874 337.219 190.314C336.783 190.753 336.192 191 335.575 191C334.958 191 334.367 190.753 333.931 190.314C333.495 189.874 333.25 189.278 333.25 188.656C333.25 188.035 333.495 187.439 333.931 186.999C334.367 186.559 334.958 186.312 335.575 186.312ZM335.575 153.5C336.192 153.5 336.783 153.747 337.219 154.186C337.655 154.626 337.9 155.222 337.9 155.844C337.9 156.465 337.655 157.061 337.219 157.501C336.783 157.941 336.192 158.188 335.575 158.188C334.958 158.188 334.367 157.941 333.931 157.501C333.495 157.061 333.25 156.465 333.25 155.844C333.25 155.222 333.495 154.626 333.931 154.186C334.367 153.747 334.958 153.5 335.575 153.5ZM358.825 158.188C359.442 158.188 360.033 158.434 360.469 158.874C360.905 159.314 361.15 159.91 361.15 160.531C361.15 161.153 360.905 161.749 360.469 162.189C360.033 162.628 359.442 162.875 358.825 162.875C358.208 162.875 357.617 162.628 357.181 162.189C356.745 161.749 356.5 161.153 356.5 160.531C356.5 159.91 356.745 159.314 357.181 158.874C357.617 158.434 358.208 158.188 358.825 158.188ZM353.4 209.75V216H316.2C314.556 216 312.979 215.342 311.816 214.169C310.653 212.997 310 211.408 310 209.75V159.75H316.2V209.75H353.4Z" fill="white"/>
    <path d="M166.409 125.688H217.34C219.029 125.688 220.648 126.354 221.842 127.541C223.036 128.728 223.706 130.338 223.706 132.017V179.485C223.706 181.164 223.036 182.773 221.842 183.96C220.648 185.147 219.029 185.814 217.34 185.814H166.409C164.721 185.814 163.102 185.147 161.908 183.96C160.714 182.773 160.043 181.164 160.043 179.485V132.017C160.043 130.338 160.714 128.728 161.908 127.541C163.102 126.354 164.721 125.688 166.409 125.688ZM166.409 138.346V147.839H179.142V138.346H166.409ZM185.508 138.346V147.839H198.241V138.346H185.508ZM217.34 147.839V138.346H204.607V147.839H217.34ZM166.409 154.169V163.662H179.142V154.169H166.409ZM166.409 179.485H179.142V169.991H166.409V179.485ZM185.508 154.169V163.662H198.241V154.169H185.508ZM185.508 179.485H198.241V169.991H185.508V179.485ZM217.34 179.485V169.991H204.607V179.485H217.34ZM217.34 154.169H204.607V163.662H217.34V154.169Z" fill="white"/>
    <circle cx="163.968" cy="193.276" r="23.9679" fill="#464545"/>
    <circle cx="194.231" cy="199.958" r="17.6843" fill="#464545"/>
    <path d="M194.232 194.062C196.615 194.062 198.647 195.135 200.165 196.308C201.692 197.487 202.795 198.842 203.337 199.575C203.55 199.863 203.664 200.201 203.664 200.547C203.664 200.893 203.55 201.231 203.337 201.518C202.795 202.251 201.692 203.606 200.165 204.785C198.646 205.959 196.615 207.031 194.232 207.031C191.85 207.031 189.817 205.959 188.3 204.785C186.772 203.605 185.67 202.25 185.128 201.517C184.915 201.23 184.801 200.891 184.801 200.546C184.801 200.2 184.915 199.862 185.128 199.574C185.67 198.842 186.772 197.487 188.3 196.308C189.819 195.135 191.85 194.062 194.232 194.062ZM186.63 200.473C186.614 200.495 186.605 200.521 186.605 200.547C186.605 200.573 186.614 200.599 186.63 200.62C187.125 201.292 188.123 202.511 189.476 203.557C190.836 204.608 192.461 205.41 194.232 205.41C196.004 205.41 197.63 204.608 198.989 203.557C200.341 202.511 201.339 201.291 201.834 200.62C201.851 200.599 201.86 200.573 201.86 200.547C201.86 200.521 201.851 200.495 201.834 200.473C201.339 199.802 200.341 198.582 198.989 197.537C197.629 196.485 196.004 195.684 194.232 195.684C192.461 195.684 190.835 196.485 189.476 197.537C188.124 198.582 187.126 199.802 186.63 200.473ZM194.232 202.708C193.912 202.715 193.594 202.664 193.296 202.558C192.997 202.452 192.726 202.294 192.497 202.093C192.268 201.892 192.086 201.651 191.961 201.386C191.837 201.121 191.773 200.836 191.773 200.548C191.773 200.26 191.837 199.975 191.961 199.71C192.085 199.444 192.267 199.204 192.496 199.002C192.725 198.801 192.996 198.643 193.294 198.537C193.592 198.431 193.911 198.38 194.231 198.386C194.86 198.399 195.458 198.632 195.897 199.036C196.337 199.44 196.583 199.982 196.583 200.547C196.584 201.112 196.338 201.654 195.898 202.058C195.459 202.462 194.861 202.695 194.232 202.708Z" fill="white"/>
    <path d="M163.58 182.273C163.803 182.273 164.021 182.335 164.211 182.452C164.4 182.569 164.553 182.736 164.651 182.935L167.646 188.968L174.346 189.936C174.566 189.968 174.773 190.061 174.944 190.203C175.114 190.346 175.241 190.533 175.31 190.743C175.378 190.954 175.387 191.179 175.333 191.394C175.28 191.609 175.168 191.805 175.008 191.959L170.161 196.656L171.305 203.287C171.342 203.505 171.317 203.729 171.233 203.933C171.149 204.138 171.009 204.315 170.829 204.445C170.649 204.575 170.436 204.653 170.215 204.669C169.993 204.685 169.771 204.64 169.573 204.538L163.58 201.406L157.587 204.538C157.39 204.64 157.168 204.686 156.946 204.67C156.724 204.655 156.511 204.577 156.331 204.447C156.151 204.317 156.011 204.14 155.927 203.935C155.843 203.73 155.818 203.506 155.855 203.288L157.001 196.655L152.15 191.959C151.991 191.805 151.878 191.609 151.824 191.394C151.77 191.179 151.779 190.953 151.848 190.742C151.916 190.531 152.043 190.344 152.214 190.201C152.384 190.059 152.592 189.966 152.813 189.935L159.512 188.968L162.509 182.935C162.608 182.736 162.76 182.569 162.95 182.452C163.139 182.335 163.357 182.273 163.58 182.273ZM163.58 186.14L161.376 190.577C161.29 190.749 161.164 190.898 161.008 191.011C160.851 191.124 160.67 191.198 160.478 191.225L155.55 191.937L159.115 195.391C159.253 195.525 159.357 195.691 159.417 195.874C159.477 196.057 159.491 196.252 159.458 196.441L158.618 201.319L163.025 199.016C163.196 198.927 163.387 198.88 163.58 198.88C163.774 198.88 163.964 198.927 164.136 199.016L168.544 201.319L167.7 196.441C167.668 196.252 167.682 196.057 167.742 195.874C167.802 195.691 167.905 195.525 168.044 195.391L171.609 191.939L166.682 191.227C166.491 191.199 166.309 191.126 166.153 191.013C165.996 190.9 165.87 190.751 165.784 190.578L163.58 186.14Z" fill="white"/>
    <circle cx="231" cy="127" r="18" fill="#464545"/>
    <path d="M224.001 121.125C224.001 120.638 224.136 120.16 224.39 119.744C224.644 119.328 225.008 118.99 225.442 118.766C225.876 118.542 226.364 118.442 226.852 118.475C227.339 118.509 227.808 118.675 228.207 118.957C228.606 119.238 228.92 119.623 229.114 120.07C229.308 120.517 229.376 121.008 229.308 121.491C229.241 121.973 229.042 122.428 228.733 122.805C228.424 123.182 228.017 123.468 227.556 123.63V129.836C228.15 130.045 228.65 130.456 228.968 130.997C229.287 131.538 229.403 132.173 229.297 132.791C229.19 133.409 228.868 133.97 228.387 134.374C227.906 134.778 227.297 135 226.667 135C226.038 135 225.429 134.778 224.948 134.374C224.467 133.97 224.145 133.409 224.038 132.791C223.932 132.173 224.048 131.538 224.367 130.997C224.685 130.456 225.185 130.045 225.779 129.836V123.63C225.259 123.447 224.809 123.108 224.49 122.659C224.172 122.21 224.001 121.674 224.001 121.125ZM230.728 120.916L233.568 118.087C233.609 118.045 233.662 118.017 233.72 118.006C233.777 117.994 233.837 118 233.891 118.022C233.945 118.045 233.991 118.083 234.024 118.131C234.057 118.18 234.074 118.237 234.074 118.296V120.239H235.259C236.044 120.239 236.798 120.55 237.354 121.104C237.909 121.657 238.221 122.408 238.221 123.191V129.836C238.815 130.045 239.315 130.456 239.633 130.997C239.952 131.538 240.068 132.173 239.962 132.791C239.855 133.409 239.533 133.97 239.052 134.374C238.571 134.778 237.962 135 237.333 135C236.703 135 236.094 134.778 235.613 134.374C235.132 133.97 234.81 133.409 234.703 132.791C234.597 132.173 234.713 131.538 235.032 130.997C235.35 130.456 235.85 130.045 236.444 129.836V123.191C236.444 122.878 236.319 122.578 236.097 122.356C235.874 122.135 235.573 122.01 235.259 122.01H234.074V123.954C234.074 124.012 234.057 124.069 234.024 124.118C233.991 124.167 233.945 124.205 233.891 124.227C233.837 124.249 233.777 124.255 233.72 124.244C233.662 124.232 233.609 124.204 233.568 124.163L230.728 121.334C230.701 121.306 230.679 121.274 230.664 121.238C230.649 121.202 230.641 121.164 230.641 121.125C230.641 121.086 230.649 121.047 230.664 121.012C230.679 120.976 230.701 120.943 230.728 120.916ZM226.667 120.239C226.432 120.239 226.206 120.332 226.039 120.499C225.872 120.665 225.779 120.89 225.779 121.125C225.779 121.36 225.872 121.585 226.039 121.751C226.206 121.917 226.432 122.01 226.667 122.01C226.903 122.01 227.129 121.917 227.296 121.751C227.463 121.585 227.556 121.36 227.556 121.125C227.556 120.89 227.463 120.665 227.296 120.499C227.129 120.332 226.903 120.239 226.667 120.239ZM226.667 131.456C226.432 131.456 226.206 131.549 226.039 131.716C225.872 131.882 225.779 132.107 225.779 132.342C225.779 132.577 225.872 132.802 226.039 132.968C226.206 133.134 226.432 133.227 226.667 133.227C226.903 133.227 227.129 133.134 227.296 132.968C227.463 132.802 227.556 132.577 227.556 132.342C227.556 132.107 227.463 131.882 227.296 131.716C227.129 131.549 226.903 131.456 226.667 131.456ZM236.444 132.342C236.444 132.577 236.537 132.802 236.704 132.968C236.871 133.134 237.097 133.227 237.333 133.227C237.568 133.227 237.794 133.134 237.961 132.968C238.128 132.802 238.221 132.577 238.221 132.342C238.221 132.107 238.128 131.882 237.961 131.716C237.794 131.549 237.568 131.456 237.333 131.456C237.097 131.456 236.871 131.549 236.704 131.716C236.537 131.882 236.444 132.107 236.444 132.342Z" fill="white"/>
    <path d="M92 181.5L141.5 159" stroke="white"/>
    <path d="M238 158L303 184.5" stroke="white"/>
    <rect y="216" width="43" height="12" rx="6" fill="#696969"/>
    <rect x="65" y="198" width="25" height="12" rx="6" fill="#696969"/>
    <rect x="140" y="211" width="25" height="12" rx="6" fill="#696969"/>
    <rect x="189" y="214" width="32" height="12" rx="6" fill="#696969"/>
    <rect x="166" y="115" width="55" height="12" rx="6" fill="#696969"/>
    <path d="M6.40909 224.088C5.98674 224.088 5.62311 223.992 5.31818 223.801C5.01515 223.608 4.7822 223.342 4.61932 223.003C4.45644 222.664 4.375 222.276 4.375 221.838C4.375 221.395 4.45833 221.004 4.625 220.665C4.79167 220.324 5.02652 220.058 5.32955 219.866C5.63258 219.675 5.98958 219.58 6.40057 219.58C6.73201 219.58 7.02746 219.641 7.28693 219.764C7.5464 219.885 7.75568 220.056 7.91477 220.276C8.07576 220.495 8.1714 220.752 8.2017 221.045H7.375C7.32955 220.841 7.22538 220.665 7.0625 220.517C6.90152 220.369 6.68561 220.295 6.41477 220.295C6.17803 220.295 5.97064 220.358 5.79261 220.483C5.61648 220.606 5.47917 220.782 5.38068 221.011C5.2822 221.239 5.23295 221.508 5.23295 221.818C5.23295 222.136 5.28125 222.411 5.37784 222.642C5.47443 222.873 5.6108 223.052 5.78693 223.179C5.96496 223.306 6.17424 223.369 6.41477 223.369C6.57576 223.369 6.72159 223.34 6.85227 223.281C6.98485 223.221 7.09564 223.134 7.18466 223.023C7.27557 222.911 7.33902 222.777 7.375 222.619H8.2017C8.1714 222.902 8.07955 223.153 7.92614 223.375C7.77273 223.597 7.56723 223.771 7.30966 223.898C7.05398 224.025 6.75379 224.088 6.40909 224.088ZM10.9482 224.088C10.5391 224.088 10.1821 223.994 9.87713 223.807C9.57221 223.619 9.33546 223.357 9.1669 223.02C8.99834 222.683 8.91406 222.289 8.91406 221.838C8.91406 221.385 8.99834 220.99 9.1669 220.651C9.33546 220.312 9.57221 220.048 9.87713 219.861C10.1821 219.673 10.5391 219.58 10.9482 219.58C11.3572 219.58 11.7143 219.673 12.0192 219.861C12.3241 220.048 12.5608 220.312 12.7294 220.651C12.898 220.99 12.9822 221.385 12.9822 221.838C12.9822 222.289 12.898 222.683 12.7294 223.02C12.5608 223.357 12.3241 223.619 12.0192 223.807C11.7143 223.994 11.3572 224.088 10.9482 224.088ZM10.951 223.375C11.2161 223.375 11.4358 223.305 11.6101 223.165C11.7843 223.025 11.9131 222.838 11.9964 222.605C12.0817 222.372 12.1243 222.116 12.1243 221.835C12.1243 221.557 12.0817 221.301 11.9964 221.068C11.9131 220.833 11.7843 220.645 11.6101 220.503C11.4358 220.361 11.2161 220.29 10.951 220.29C10.6839 220.29 10.4624 220.361 10.2862 220.503C10.112 220.645 9.98224 220.833 9.89702 221.068C9.81368 221.301 9.77202 221.557 9.77202 221.835C9.77202 222.116 9.81368 222.372 9.89702 222.605C9.98224 222.838 10.112 223.025 10.2862 223.165C10.4624 223.305 10.6839 223.375 10.951 223.375ZM13.9304 224V219.636H14.7457V220.347H14.7997C14.8906 220.106 15.0393 219.919 15.2457 219.784C15.4522 219.648 15.6993 219.58 15.9872 219.58C16.2789 219.58 16.5232 219.648 16.7202 219.784C16.919 219.92 17.0658 220.108 17.1605 220.347H17.206C17.3101 220.114 17.4759 219.928 17.7031 219.79C17.9304 219.65 18.2012 219.58 18.5156 219.58C18.9115 219.58 19.2344 219.704 19.4844 219.952C19.7363 220.2 19.8622 220.574 19.8622 221.074V224H19.0128V221.153C19.0128 220.858 18.9323 220.644 18.7713 220.511C18.6103 220.379 18.4181 220.312 18.1946 220.312C17.9181 220.312 17.7031 220.398 17.5497 220.568C17.3963 220.737 17.3196 220.954 17.3196 221.219V224H16.473V221.099C16.473 220.863 16.3991 220.672 16.2514 220.528C16.1037 220.384 15.9115 220.312 15.6747 220.312C15.5137 220.312 15.3651 220.355 15.2287 220.44C15.0942 220.524 14.9853 220.64 14.902 220.79C14.8205 220.939 14.7798 221.113 14.7798 221.31V224H13.9304ZM21.0007 225.636V219.636H21.8303V220.344H21.9013C21.9505 220.253 22.0215 220.148 22.1143 220.028C22.2071 219.909 22.3359 219.805 22.5007 219.716C22.6655 219.625 22.8833 219.58 23.1541 219.58C23.5064 219.58 23.8208 219.669 24.0973 219.847C24.3738 220.025 24.5907 220.281 24.7479 220.616C24.907 220.952 24.9865 221.355 24.9865 221.827C24.9865 222.298 24.9079 222.703 24.7507 223.04C24.5935 223.375 24.3776 223.634 24.103 223.815C23.8284 223.995 23.5149 224.085 23.1626 224.085C22.8975 224.085 22.6806 224.041 22.5121 223.952C22.3454 223.863 22.2147 223.759 22.12 223.639C22.0253 223.52 21.9524 223.414 21.9013 223.321H21.8501V225.636H21.0007ZM21.8331 221.818C21.8331 222.125 21.8776 222.394 21.9666 222.625C22.0556 222.856 22.1844 223.037 22.353 223.168C22.5215 223.296 22.728 223.361 22.9723 223.361C23.2261 223.361 23.4382 223.294 23.6087 223.159C23.7791 223.023 23.9079 222.838 23.995 222.605C24.084 222.372 24.1286 222.11 24.1286 221.818C24.1286 221.53 24.085 221.272 23.9979 221.043C23.9126 220.813 23.7839 220.633 23.6115 220.5C23.4411 220.367 23.228 220.301 22.9723 220.301C22.7261 220.301 22.5178 220.365 22.3473 220.491C22.1787 220.618 22.0509 220.795 21.9638 221.023C21.8767 221.25 21.8331 221.515 21.8331 221.818ZM27.2081 224.097C26.9316 224.097 26.6816 224.045 26.4581 223.943C26.2346 223.839 26.0575 223.688 25.9268 223.491C25.7981 223.295 25.7337 223.053 25.7337 222.767C25.7337 222.521 25.781 222.318 25.8757 222.159C25.9704 222 26.0982 221.874 26.2592 221.781C26.4202 221.688 26.6001 221.618 26.799 221.571C26.9979 221.524 27.2005 221.488 27.407 221.463C27.6683 221.433 27.8804 221.408 28.0433 221.389C28.2062 221.368 28.3246 221.335 28.3984 221.29C28.4723 221.244 28.5092 221.17 28.5092 221.068V221.048C28.5092 220.8 28.4392 220.608 28.299 220.472C28.1607 220.335 27.9543 220.267 27.6797 220.267C27.3937 220.267 27.1683 220.33 27.0036 220.457C26.8407 220.582 26.728 220.722 26.6655 220.875L25.8672 220.693C25.9619 220.428 26.1001 220.214 26.282 220.051C26.4657 219.886 26.6768 219.767 26.9155 219.693C27.1541 219.617 27.4051 219.58 27.6683 219.58C27.8426 219.58 28.0272 219.6 28.2223 219.642C28.4193 219.682 28.603 219.756 28.7734 219.864C28.9458 219.972 29.0869 220.126 29.1967 220.327C29.3066 220.526 29.3615 220.784 29.3615 221.102V224H28.532V223.403H28.4979C28.4429 223.513 28.3606 223.621 28.2507 223.727C28.1409 223.833 27.9998 223.921 27.8274 223.991C27.6551 224.062 27.4486 224.097 27.2081 224.097ZM27.3928 223.415C27.6276 223.415 27.8284 223.368 27.995 223.276C28.1636 223.183 28.2914 223.062 28.3786 222.912C28.4676 222.76 28.5121 222.598 28.5121 222.426V221.864C28.4818 221.894 28.4231 221.922 28.3359 221.949C28.2507 221.973 28.1532 221.995 28.0433 222.014C27.9335 222.031 27.8265 222.047 27.7223 222.062C27.6181 222.076 27.531 222.087 27.4609 222.097C27.2962 222.117 27.1456 222.152 27.0092 222.202C26.8748 222.251 26.7668 222.322 26.6854 222.415C26.6058 222.506 26.5661 222.627 26.5661 222.778C26.5661 222.989 26.6437 223.148 26.799 223.256C26.9543 223.362 27.1522 223.415 27.3928 223.415ZM31.3423 221.409V224H30.4929V219.636H31.3082V220.347H31.3622C31.4626 220.116 31.6198 219.93 31.8338 219.79C32.0497 219.65 32.3215 219.58 32.6491 219.58C32.9465 219.58 33.2069 219.642 33.4304 219.767C33.6539 219.89 33.8272 220.074 33.9503 220.318C34.0734 220.562 34.1349 220.865 34.1349 221.224V224H33.2855V221.327C33.2855 221.01 33.2031 220.763 33.0384 220.585C32.8736 220.405 32.6473 220.315 32.3594 220.315C32.1624 220.315 31.9872 220.358 31.8338 220.443C31.6823 220.528 31.562 220.653 31.473 220.818C31.3859 220.981 31.3423 221.178 31.3423 221.409ZM35.6548 225.636C35.5279 225.636 35.4124 225.626 35.3082 225.605C35.2041 225.586 35.1264 225.565 35.0753 225.543L35.2798 224.847C35.4351 224.888 35.5734 224.906 35.6946 224.901C35.8158 224.895 35.9228 224.849 36.0156 224.764C36.1103 224.679 36.1937 224.54 36.2656 224.347L36.3707 224.057L34.7741 219.636H35.6832L36.7884 223.023H36.8338L37.9389 219.636H38.8509L37.0526 224.582C36.9692 224.81 36.8632 225.002 36.7344 225.159C36.6056 225.318 36.4522 225.438 36.2741 225.517C36.0961 225.597 35.8897 225.636 35.6548 225.636Z" fill="#F5F5F5"/>
    <path d="M73.5767 203.02C73.5218 202.848 73.4479 202.693 73.3551 202.557C73.2642 202.419 73.1553 202.301 73.0284 202.205C72.9015 202.106 72.7566 202.031 72.5938 201.98C72.4328 201.929 72.2557 201.903 72.0625 201.903C71.7348 201.903 71.4394 201.988 71.1761 202.156C70.9129 202.325 70.7045 202.572 70.5511 202.898C70.3996 203.222 70.3239 203.618 70.3239 204.088C70.3239 204.56 70.4006 204.958 70.554 205.284C70.7074 205.61 70.9176 205.857 71.1847 206.026C71.4517 206.194 71.7557 206.278 72.0966 206.278C72.4129 206.278 72.6884 206.214 72.9233 206.085C73.16 205.956 73.3428 205.775 73.4716 205.54C73.6023 205.303 73.6676 205.025 73.6676 204.705L73.8949 204.747H72.2301V204.023H74.517V204.685C74.517 205.173 74.4129 205.598 74.2045 205.957C73.9981 206.315 73.7121 206.592 73.3466 206.787C72.983 206.982 72.5663 207.08 72.0966 207.08C71.5701 207.08 71.108 206.958 70.7102 206.716C70.3144 206.473 70.0057 206.13 69.7841 205.685C69.5625 205.238 69.4517 204.707 69.4517 204.094C69.4517 203.63 69.5161 203.213 69.6449 202.844C69.7737 202.474 69.9545 202.161 70.1875 201.903C70.4223 201.644 70.6979 201.446 71.0142 201.31C71.3324 201.171 71.6799 201.102 72.0568 201.102C72.3712 201.102 72.6638 201.149 72.9347 201.241C73.2074 201.334 73.4498 201.466 73.6619 201.636C73.8759 201.807 74.053 202.009 74.1932 202.244C74.3333 202.477 74.428 202.736 74.4773 203.02H73.5767ZM77.4439 207.088C77.014 207.088 76.6437 206.996 76.3331 206.812C76.0244 206.627 75.7857 206.366 75.6172 206.031C75.4505 205.694 75.3672 205.299 75.3672 204.847C75.3672 204.4 75.4505 204.006 75.6172 203.665C75.7857 203.324 76.0206 203.058 76.3217 202.866C76.6248 202.675 76.9789 202.58 77.3842 202.58C77.6304 202.58 77.8691 202.62 78.1001 202.702C78.3312 202.783 78.5386 202.911 78.7223 203.085C78.906 203.259 79.0509 203.486 79.157 203.764C79.263 204.041 79.3161 204.377 79.3161 204.773V205.074H75.8473V204.438H78.4837C78.4837 204.214 78.4382 204.016 78.3473 203.844C78.2564 203.67 78.1286 203.532 77.9638 203.432C77.8009 203.331 77.6096 203.281 77.3899 203.281C77.1513 203.281 76.9429 203.34 76.7649 203.457C76.5888 203.573 76.4524 203.724 76.3558 203.912C76.2611 204.098 76.2138 204.299 76.2138 204.517V205.014C76.2138 205.306 76.2649 205.554 76.3672 205.759C76.4714 205.963 76.6162 206.119 76.8018 206.227C76.9875 206.333 77.2043 206.386 77.4524 206.386C77.6134 206.386 77.7602 206.364 77.8928 206.318C78.0253 206.271 78.1399 206.201 78.2365 206.108C78.3331 206.015 78.407 205.901 78.4581 205.764L79.2621 205.909C79.1977 206.146 79.0821 206.353 78.9155 206.531C78.7507 206.707 78.5433 206.845 78.2933 206.943C78.0452 207.04 77.7621 207.088 77.4439 207.088ZM82.0966 207.088C81.6875 207.088 81.3305 206.994 81.0256 206.807C80.7206 206.619 80.4839 206.357 80.3153 206.02C80.1468 205.683 80.0625 205.289 80.0625 204.838C80.0625 204.385 80.1468 203.99 80.3153 203.651C80.4839 203.312 80.7206 203.048 81.0256 202.861C81.3305 202.673 81.6875 202.58 82.0966 202.58C82.5057 202.58 82.8627 202.673 83.1676 202.861C83.4725 203.048 83.7093 203.312 83.8778 203.651C84.0464 203.99 84.1307 204.385 84.1307 204.838C84.1307 205.289 84.0464 205.683 83.8778 206.02C83.7093 206.357 83.4725 206.619 83.1676 206.807C82.8627 206.994 82.5057 207.088 82.0966 207.088ZM82.0994 206.375C82.3646 206.375 82.5843 206.305 82.7585 206.165C82.9328 206.025 83.0616 205.838 83.1449 205.605C83.2301 205.372 83.2727 205.116 83.2727 204.835C83.2727 204.557 83.2301 204.301 83.1449 204.068C83.0616 203.833 82.9328 203.645 82.7585 203.503C82.5843 203.361 82.3646 203.29 82.0994 203.29C81.8324 203.29 81.6108 203.361 81.4347 203.503C81.2604 203.645 81.1307 203.833 81.0455 204.068C80.9621 204.301 80.9205 204.557 80.9205 204.835C80.9205 205.116 80.9621 205.372 81.0455 205.605C81.1307 205.838 81.2604 206.025 81.4347 206.165C81.6108 206.305 81.8324 206.375 82.0994 206.375Z" fill="#F5F5F5"/>
    <path d="M147.812 215.71C147.782 215.441 147.657 215.233 147.438 215.085C147.218 214.936 146.941 214.861 146.608 214.861C146.369 214.861 146.163 214.899 145.989 214.974C145.814 215.048 145.679 215.151 145.582 215.281C145.488 215.41 145.44 215.557 145.44 215.722C145.44 215.86 145.473 215.979 145.537 216.08C145.603 216.18 145.689 216.264 145.795 216.332C145.903 216.399 146.019 216.455 146.142 216.5C146.265 216.544 146.384 216.58 146.497 216.608L147.065 216.756C147.251 216.801 147.441 216.863 147.636 216.94C147.831 217.018 148.012 217.12 148.179 217.247C148.346 217.374 148.48 217.531 148.582 217.719C148.687 217.906 148.739 218.131 148.739 218.392C148.739 218.722 148.653 219.014 148.483 219.27C148.314 219.526 148.069 219.727 147.747 219.875C147.427 220.023 147.04 220.097 146.585 220.097C146.15 220.097 145.773 220.027 145.455 219.889C145.136 219.751 144.887 219.555 144.707 219.301C144.527 219.045 144.428 218.742 144.409 218.392H145.29C145.307 218.602 145.375 218.777 145.494 218.918C145.616 219.056 145.77 219.159 145.957 219.227C146.147 219.294 146.354 219.327 146.58 219.327C146.828 219.327 147.048 219.288 147.241 219.21C147.437 219.131 147.59 219.021 147.702 218.881C147.813 218.739 147.869 218.573 147.869 218.384C147.869 218.211 147.82 218.07 147.722 217.96C147.625 217.85 147.493 217.759 147.327 217.688C147.162 217.616 146.975 217.552 146.767 217.497L146.08 217.31C145.614 217.183 145.244 216.996 144.972 216.75C144.701 216.504 144.565 216.178 144.565 215.773C144.565 215.437 144.656 215.145 144.838 214.895C145.02 214.645 145.266 214.451 145.577 214.312C145.887 214.172 146.238 214.102 146.628 214.102C147.022 214.102 147.369 214.171 147.67 214.31C147.973 214.448 148.212 214.638 148.386 214.881C148.561 215.121 148.652 215.398 148.659 215.71H147.812ZM151.756 215.636V216.318H149.373V215.636H151.756ZM150.012 214.591H150.862V218.719C150.862 218.884 150.886 219.008 150.935 219.091C150.985 219.172 151.048 219.228 151.126 219.259C151.205 219.287 151.291 219.301 151.384 219.301C151.452 219.301 151.512 219.296 151.563 219.287C151.614 219.277 151.654 219.27 151.683 219.264L151.836 219.966C151.787 219.985 151.717 220.004 151.626 220.023C151.535 220.044 151.421 220.055 151.285 220.057C151.061 220.061 150.853 220.021 150.66 219.938C150.467 219.854 150.31 219.725 150.191 219.551C150.072 219.377 150.012 219.158 150.012 218.895V214.591ZM153.966 220.097C153.689 220.097 153.439 220.045 153.216 219.943C152.992 219.839 152.815 219.688 152.685 219.491C152.556 219.295 152.491 219.053 152.491 218.767C152.491 218.521 152.539 218.318 152.634 218.159C152.728 218 152.856 217.874 153.017 217.781C153.178 217.688 153.358 217.618 153.557 217.571C153.756 217.524 153.958 217.488 154.165 217.463C154.426 217.433 154.638 217.408 154.801 217.389C154.964 217.368 155.082 217.335 155.156 217.29C155.23 217.244 155.267 217.17 155.267 217.068V217.048C155.267 216.8 155.197 216.608 155.057 216.472C154.919 216.335 154.712 216.267 154.438 216.267C154.152 216.267 153.926 216.33 153.761 216.457C153.598 216.582 153.486 216.722 153.423 216.875L152.625 216.693C152.72 216.428 152.858 216.214 153.04 216.051C153.223 215.886 153.435 215.767 153.673 215.693C153.912 215.617 154.163 215.58 154.426 215.58C154.6 215.58 154.785 215.6 154.98 215.642C155.177 215.682 155.361 215.756 155.531 215.864C155.704 215.972 155.845 216.126 155.955 216.327C156.064 216.526 156.119 216.784 156.119 217.102V220H155.29V219.403H155.256C155.201 219.513 155.118 219.621 155.009 219.727C154.899 219.833 154.758 219.921 154.585 219.991C154.413 220.062 154.206 220.097 153.966 220.097ZM154.151 219.415C154.385 219.415 154.586 219.368 154.753 219.276C154.921 219.183 155.049 219.062 155.136 218.912C155.225 218.76 155.27 218.598 155.27 218.426V217.864C155.24 217.894 155.181 217.922 155.094 217.949C155.009 217.973 154.911 217.995 154.801 218.014C154.691 218.031 154.584 218.047 154.48 218.062C154.376 218.076 154.289 218.087 154.219 218.097C154.054 218.117 153.903 218.152 153.767 218.202C153.633 218.251 153.525 218.322 153.443 218.415C153.364 218.506 153.324 218.627 153.324 218.778C153.324 218.989 153.402 219.148 153.557 219.256C153.712 219.362 153.91 219.415 154.151 219.415ZM157.251 220V215.636H158.072V216.33H158.117C158.197 216.095 158.337 215.91 158.538 215.776C158.74 215.639 158.969 215.571 159.225 215.571C159.278 215.571 159.341 215.573 159.413 215.577C159.487 215.58 159.544 215.585 159.586 215.591V216.403C159.552 216.394 159.491 216.384 159.404 216.372C159.317 216.359 159.23 216.352 159.143 216.352C158.942 216.352 158.763 216.395 158.606 216.48C158.451 216.563 158.327 216.68 158.237 216.83C158.146 216.977 158.1 217.146 158.1 217.335V220H157.251Z" fill="#F5F5F5"/>
    <path d="M194.778 223L193.165 217.182H194.088L195.222 221.688H195.276L196.455 217.182H197.369L198.548 221.69H198.602L199.733 217.182H200.659L199.043 223H198.159L196.935 218.642H196.889L195.665 223H194.778ZM202.232 223.097C201.955 223.097 201.705 223.045 201.482 222.943C201.258 222.839 201.081 222.688 200.95 222.491C200.821 222.295 200.757 222.053 200.757 221.767C200.757 221.521 200.804 221.318 200.899 221.159C200.994 221 201.122 220.874 201.283 220.781C201.444 220.688 201.624 220.618 201.822 220.571C202.021 220.524 202.224 220.488 202.43 220.463C202.692 220.433 202.904 220.408 203.067 220.389C203.23 220.368 203.348 220.335 203.422 220.29C203.496 220.244 203.533 220.17 203.533 220.068V220.048C203.533 219.8 203.463 219.608 203.322 219.472C203.184 219.335 202.978 219.267 202.703 219.267C202.417 219.267 202.192 219.33 202.027 219.457C201.864 219.582 201.751 219.722 201.689 219.875L200.891 219.693C200.985 219.428 201.124 219.214 201.305 219.051C201.489 218.886 201.7 218.767 201.939 218.693C202.178 218.617 202.429 218.58 202.692 218.58C202.866 218.58 203.051 218.6 203.246 218.642C203.443 218.682 203.626 218.756 203.797 218.864C203.969 218.972 204.11 219.126 204.22 219.327C204.33 219.526 204.385 219.784 204.385 220.102V223H203.555V222.403H203.521C203.466 222.513 203.384 222.621 203.274 222.727C203.164 222.833 203.023 222.921 202.851 222.991C202.679 223.062 202.472 223.097 202.232 223.097ZM202.416 222.415C202.651 222.415 202.852 222.368 203.018 222.276C203.187 222.183 203.315 222.062 203.402 221.912C203.491 221.76 203.536 221.598 203.536 221.426V220.864C203.505 220.894 203.446 220.922 203.359 220.949C203.274 220.973 203.177 220.995 203.067 221.014C202.957 221.031 202.85 221.047 202.746 221.062C202.642 221.076 202.554 221.087 202.484 221.097C202.32 221.117 202.169 221.152 202.033 221.202C201.898 221.251 201.79 221.322 201.709 221.415C201.629 221.506 201.589 221.627 201.589 221.778C201.589 221.989 201.667 222.148 201.822 222.256C201.978 222.362 202.176 222.415 202.416 222.415ZM207.553 218.636V219.318H205.17V218.636H207.553ZM205.809 217.591H206.658V221.719C206.658 221.884 206.683 222.008 206.732 222.091C206.781 222.172 206.845 222.228 206.923 222.259C207.002 222.287 207.088 222.301 207.181 222.301C207.249 222.301 207.309 222.296 207.36 222.287C207.411 222.277 207.451 222.27 207.479 222.264L207.633 222.966C207.584 222.985 207.513 223.004 207.423 223.023C207.332 223.044 207.218 223.055 207.082 223.057C206.858 223.061 206.65 223.021 206.457 222.938C206.263 222.854 206.107 222.725 205.988 222.551C205.869 222.377 205.809 222.158 205.809 221.895V217.591ZM210.284 223.088C209.862 223.088 209.498 222.992 209.193 222.801C208.89 222.608 208.657 222.342 208.494 222.003C208.331 221.664 208.25 221.276 208.25 220.838C208.25 220.395 208.333 220.004 208.5 219.665C208.667 219.324 208.902 219.058 209.205 218.866C209.508 218.675 209.865 218.58 210.276 218.58C210.607 218.58 210.902 218.641 211.162 218.764C211.421 218.885 211.631 219.056 211.79 219.276C211.951 219.495 212.046 219.752 212.077 220.045H211.25C211.205 219.841 211.1 219.665 210.938 219.517C210.777 219.369 210.561 219.295 210.29 219.295C210.053 219.295 209.846 219.358 209.668 219.483C209.491 219.606 209.354 219.782 209.256 220.011C209.157 220.239 209.108 220.508 209.108 220.818C209.108 221.136 209.156 221.411 209.253 221.642C209.349 221.873 209.486 222.052 209.662 222.179C209.84 222.306 210.049 222.369 210.29 222.369C210.451 222.369 210.597 222.34 210.727 222.281C210.86 222.221 210.971 222.134 211.06 222.023C211.151 221.911 211.214 221.777 211.25 221.619H212.077C212.046 221.902 211.955 222.153 211.801 222.375C211.648 222.597 211.442 222.771 211.185 222.898C210.929 223.025 210.629 223.088 210.284 223.088ZM213.835 220.409V223H212.985V217.182H213.823V219.347H213.877C213.979 219.112 214.136 218.925 214.346 218.787C214.556 218.649 214.831 218.58 215.17 218.58C215.469 218.58 215.73 218.641 215.954 218.764C216.179 218.887 216.353 219.071 216.477 219.315C216.602 219.558 216.664 219.861 216.664 220.224V223H215.815V220.327C215.815 220.007 215.732 219.759 215.567 219.582C215.403 219.404 215.174 219.315 214.88 219.315C214.679 219.315 214.499 219.358 214.34 219.443C214.183 219.528 214.059 219.653 213.968 219.818C213.879 219.981 213.835 220.178 213.835 220.409Z" fill="#F5F5F5"/>
    <path d="M170.639 123V117.182H172.713C173.166 117.182 173.541 117.264 173.838 117.429C174.135 117.594 174.358 117.819 174.506 118.105C174.653 118.389 174.727 118.709 174.727 119.065C174.727 119.423 174.652 119.745 174.503 120.031C174.355 120.315 174.132 120.541 173.832 120.707C173.535 120.872 173.161 120.955 172.71 120.955H171.284V120.21H172.631C172.917 120.21 173.149 120.161 173.327 120.062C173.505 119.962 173.635 119.826 173.719 119.653C173.802 119.481 173.844 119.285 173.844 119.065C173.844 118.846 173.802 118.651 173.719 118.48C173.635 118.31 173.504 118.176 173.324 118.08C173.146 117.983 172.911 117.935 172.619 117.935H171.517V123H170.639ZM178.452 121.19V118.636H179.305V123H178.469V122.244H178.424C178.324 122.477 178.163 122.671 177.941 122.827C177.721 122.98 177.448 123.057 177.12 123.057C176.84 123.057 176.592 122.995 176.376 122.872C176.162 122.747 175.993 122.562 175.87 122.318C175.749 122.074 175.688 121.772 175.688 121.412V118.636H176.538V121.31C176.538 121.607 176.62 121.844 176.785 122.02C176.95 122.196 177.164 122.284 177.427 122.284C177.586 122.284 177.744 122.244 177.901 122.165C178.06 122.085 178.192 121.965 178.296 121.804C178.402 121.643 178.454 121.438 178.452 121.19ZM181.295 117.182V123H180.446V117.182H181.295ZM183.288 117.182V123H182.438V117.182H183.288ZM186.548 123V118.636H187.369V119.33H187.414C187.494 119.095 187.634 118.91 187.835 118.776C188.037 118.639 188.266 118.571 188.522 118.571C188.575 118.571 188.638 118.573 188.71 118.577C188.783 118.58 188.841 118.585 188.883 118.591V119.403C188.849 119.394 188.788 119.384 188.701 119.372C188.614 119.359 188.527 119.352 188.44 119.352C188.239 119.352 188.06 119.395 187.903 119.48C187.747 119.563 187.624 119.68 187.533 119.83C187.442 119.977 187.397 120.146 187.397 120.335V123H186.548ZM191.342 123.088C190.912 123.088 190.542 122.996 190.232 122.812C189.923 122.627 189.684 122.366 189.516 122.031C189.349 121.694 189.266 121.299 189.266 120.847C189.266 120.4 189.349 120.006 189.516 119.665C189.684 119.324 189.919 119.058 190.22 118.866C190.523 118.675 190.877 118.58 191.283 118.58C191.529 118.58 191.768 118.62 191.999 118.702C192.23 118.783 192.437 118.911 192.621 119.085C192.804 119.259 192.949 119.486 193.055 119.764C193.161 120.041 193.214 120.377 193.214 120.773V121.074H189.746V120.438H192.382C192.382 120.214 192.337 120.016 192.246 119.844C192.155 119.67 192.027 119.532 191.862 119.432C191.699 119.331 191.508 119.281 191.288 119.281C191.05 119.281 190.841 119.34 190.663 119.457C190.487 119.573 190.351 119.724 190.254 119.912C190.16 120.098 190.112 120.299 190.112 120.517V121.014C190.112 121.306 190.163 121.554 190.266 121.759C190.37 121.963 190.515 122.119 190.7 122.227C190.886 122.333 191.103 122.386 191.351 122.386C191.512 122.386 191.659 122.364 191.791 122.318C191.924 122.271 192.038 122.201 192.135 122.108C192.232 122.015 192.305 121.901 192.357 121.764L193.161 121.909C193.096 122.146 192.981 122.353 192.814 122.531C192.649 122.707 192.442 122.845 192.192 122.943C191.944 123.04 191.661 123.088 191.342 123.088ZM197.103 124.636V122.321H197.052C197.001 122.414 196.927 122.52 196.83 122.639C196.736 122.759 196.605 122.863 196.438 122.952C196.272 123.041 196.056 123.085 195.79 123.085C195.438 123.085 195.124 122.995 194.847 122.815C194.573 122.634 194.357 122.375 194.2 122.04C194.044 121.703 193.967 121.298 193.967 120.827C193.967 120.355 194.045 119.952 194.202 119.616C194.362 119.281 194.579 119.025 194.856 118.847C195.132 118.669 195.446 118.58 195.796 118.58C196.067 118.58 196.285 118.625 196.45 118.716C196.616 118.805 196.745 118.909 196.836 119.028C196.929 119.148 197.001 119.253 197.052 119.344H197.123V118.636H197.952V124.636H197.103ZM195.978 122.361C196.222 122.361 196.429 122.296 196.597 122.168C196.768 122.037 196.897 121.856 196.984 121.625C197.073 121.394 197.117 121.125 197.117 120.818C197.117 120.515 197.074 120.25 196.987 120.023C196.899 119.795 196.772 119.618 196.603 119.491C196.434 119.365 196.226 119.301 195.978 119.301C195.722 119.301 195.509 119.367 195.339 119.5C195.168 119.633 195.04 119.813 194.952 120.043C194.867 120.272 194.825 120.53 194.825 120.818C194.825 121.11 194.868 121.372 194.955 121.605C195.042 121.838 195.171 122.023 195.342 122.159C195.514 122.294 195.726 122.361 195.978 122.361ZM201.859 121.19V118.636H202.711V123H201.876V122.244H201.83C201.73 122.477 201.569 122.671 201.347 122.827C201.128 122.98 200.854 123.057 200.526 123.057C200.246 123.057 199.998 122.995 199.782 122.872C199.568 122.747 199.399 122.562 199.276 122.318C199.155 122.074 199.094 121.772 199.094 121.412V118.636H199.944V121.31C199.944 121.607 200.026 121.844 200.191 122.02C200.356 122.196 200.57 122.284 200.833 122.284C200.992 122.284 201.15 122.244 201.308 122.165C201.467 122.085 201.598 121.965 201.702 121.804C201.808 121.643 201.861 121.438 201.859 121.19ZM205.733 123.088C205.303 123.088 204.933 122.996 204.622 122.812C204.313 122.627 204.075 122.366 203.906 122.031C203.74 121.694 203.656 121.299 203.656 120.847C203.656 120.4 203.74 120.006 203.906 119.665C204.075 119.324 204.31 119.058 204.611 118.866C204.914 118.675 205.268 118.58 205.673 118.58C205.92 118.58 206.158 118.62 206.389 118.702C206.62 118.783 206.828 118.911 207.011 119.085C207.195 119.259 207.34 119.486 207.446 119.764C207.552 120.041 207.605 120.377 207.605 120.773V121.074H204.136V120.438H206.773C206.773 120.214 206.727 120.016 206.636 119.844C206.545 119.67 206.418 119.532 206.253 119.432C206.09 119.331 205.899 119.281 205.679 119.281C205.44 119.281 205.232 119.34 205.054 119.457C204.878 119.573 204.741 119.724 204.645 119.912C204.55 120.098 204.503 120.299 204.503 120.517V121.014C204.503 121.306 204.554 121.554 204.656 121.759C204.76 121.963 204.905 122.119 205.091 122.227C205.277 122.333 205.493 122.386 205.741 122.386C205.902 122.386 206.049 122.364 206.182 122.318C206.314 122.271 206.429 122.201 206.526 122.108C206.622 122.015 206.696 121.901 206.747 121.764L207.551 121.909C207.487 122.146 207.371 122.353 207.205 122.531C207.04 122.707 206.832 122.845 206.582 122.943C206.334 123.04 206.051 123.088 205.733 123.088ZM211.817 119.702L211.048 119.838C211.015 119.74 210.964 119.646 210.894 119.557C210.826 119.468 210.733 119.395 210.616 119.338C210.498 119.281 210.352 119.253 210.175 119.253C209.935 119.253 209.734 119.307 209.573 119.415C209.412 119.521 209.332 119.658 209.332 119.827C209.332 119.973 209.386 120.09 209.494 120.179C209.602 120.268 209.776 120.341 210.016 120.398L210.71 120.557C211.111 120.65 211.41 120.793 211.607 120.986C211.804 121.179 211.903 121.43 211.903 121.739C211.903 122 211.827 122.233 211.675 122.438C211.526 122.64 211.317 122.799 211.048 122.915C210.781 123.03 210.471 123.088 210.119 123.088C209.63 123.088 209.231 122.984 208.923 122.776C208.614 122.565 208.424 122.267 208.354 121.881L209.175 121.756C209.227 121.97 209.332 122.132 209.491 122.241C209.65 122.349 209.857 122.403 210.113 122.403C210.391 122.403 210.614 122.346 210.781 122.23C210.947 122.113 211.031 121.97 211.031 121.801C211.031 121.665 210.979 121.55 210.877 121.457C210.777 121.365 210.622 121.295 210.414 121.247L209.675 121.085C209.268 120.992 208.967 120.845 208.772 120.642C208.579 120.439 208.482 120.183 208.482 119.872C208.482 119.615 208.554 119.389 208.698 119.196C208.842 119.003 209.041 118.852 209.295 118.744C209.549 118.634 209.839 118.58 210.167 118.58C210.638 118.58 211.01 118.682 211.281 118.886C211.551 119.089 211.73 119.361 211.817 119.702ZM214.874 118.636V119.318H212.49V118.636H214.874ZM213.129 117.591H213.979V121.719C213.979 121.884 214.003 122.008 214.053 122.091C214.102 122.172 214.165 122.228 214.243 122.259C214.322 122.287 214.409 122.301 214.501 122.301C214.57 122.301 214.629 122.296 214.68 122.287C214.732 122.277 214.771 122.27 214.8 122.264L214.953 122.966C214.904 122.985 214.834 123.004 214.743 123.023C214.652 123.044 214.538 123.055 214.402 123.057C214.179 123.061 213.97 123.021 213.777 122.938C213.584 122.854 213.428 122.725 213.308 122.551C213.189 122.377 213.129 122.158 213.129 121.895V117.591Z" fill="#F5F5F5"/>
    <line x1="194.5" y1="29" x2="194.5" y2="75" stroke="white"/>
    <line x1="355" y1="58.5" x2="43" y2="58.5" stroke="white"/>
    <line x1="42.5" y1="58" x2="42.5" y2="95" stroke="white"/>
    <line x1="355.5" y1="58" x2="355.5" y2="95" stroke="white"/>
    <defs>
        <clipPath id="clip0_0_1">
            <rect width="57" height="15" fill="white" transform="translate(175 3)"/>
        </clipPath>
    </defs>
</svg>
