<svg width="56" height="10" viewBox="0 0 56 10" fill="none" xmlns="http://www.w3.org/2000/svg">
    <path fill-rule="evenodd" clip-rule="evenodd" d="M39.205 2.05C38.3573 2.05 37.7215 2.35 37.4036 2.85L37.2447 3.15V2.2H35.8672V8H37.3507V4.55C37.3507 3.75 37.8275 3.25 38.6752 3.25C39.4699 3.25 39.8937 3.7 39.8937 4.5V8H41.3772V4.25C41.3242 2.9 40.5295 2.05 39.205 2.05ZM32.0525 2.05C30.3042 2.05 29.2445 3.1 29.2445 4.75V5.55C29.2445 7.15 30.3572 8.1 32.1055 8.1C33.2711 8.1 34.1188 7.7 34.5956 6.85L33.695 6.35C33.3241 6.85 32.6883 7.15 32.1055 7.15C31.2048 7.15 30.675 6.65 30.675 5.75V5.5H34.8076V4.55C34.7546 3.05 33.695 2.05 32.0525 2.05ZM33.4301 4.65H30.675V4.5C30.675 3.55 31.1519 3 32.0525 3C32.9002 3 33.4301 3.5 33.4301 4.4V4.65ZM56 1.25V0.15H50.9138V1.25H52.7152V6.9H50.9138V8H56V6.9H54.1986V1.25H56ZM17.2708 0C14.9926 0 13.5621 1.35 13.5621 3.5V4.65C13.5621 6.8 14.9926 8.15 17.2708 8.15C19.549 8.15 20.9795 6.8 20.9795 4.65V3.5C20.9795 1.35 19.549 0 17.2708 0ZM19.443 4.75C19.443 6.2 18.6483 7 17.2708 7C15.8933 7 15.0986 6.2 15.0986 4.75V3.4C15.0986 1.95 15.8933 1.15 17.2708 1.15C18.6483 1.15 19.443 1.95 19.443 3.4V4.75ZM25.6418 2.1C24.8471 2.1 24.2113 2.4 23.8405 2.9L23.6815 3.1V2.2H22.304V10H23.7875V7.2L23.9464 7.4C24.2643 7.85 24.9531 8.15 25.6948 8.15C26.9664 8.15 28.2379 7.35 28.2379 5.6V4.6C28.1849 3.35 27.3902 2.05 25.6418 2.1ZM26.7015 5.55C26.7015 6.5 26.1187 7.05 25.218 7.05C24.3703 7.05 23.7345 6.45 23.7345 5.55V4.7C23.7345 3.8 24.3173 3.2 25.218 3.2C26.1187 3.2 26.7015 3.8 26.7015 4.7V5.55ZM45.4038 0.15L42.4368 8H43.9203L44.5031 6.3H47.9469L48.5297 7.95H50.0131L47.0462 0.1L45.4038 0.15ZM44.874 5.2L46.1985 1.25L47.523 5.2H44.874ZM9.7475 4.1C10.0124 3.4 9.90645 2.65 9.53558 2.05C8.95279 1.1 7.7872 0.6 6.6746 0.85C6.03883 0.2 5.08517 -0.100001 4.13151 0.0499992C3.17785 0.249999 2.43611 0.9 2.11822 1.75C1.37649 1.9 0.740716 2.35 0.369849 2.95C-0.212943 3.9 -0.106981 5.1 0.687736 5.9C0.42283 6.6 0.528792 7.35 0.89966 7.95C1.48245 8.9 2.64804 9.4 3.76064 9.15C4.29045 9.7 4.9792 10 5.77392 10C6.93951 10 7.94615 9.3 8.31701 8.25C9.05875 8.1 9.69452 7.65 10.0654 7.05C10.6482 6.1 10.5422 4.9 9.7475 4.1ZM5.77392 9.35C5.29709 9.35 4.87324 9.2 4.50237 8.9L4.55536 8.85L6.6746 7.7C6.78056 7.65 6.83354 7.55 6.83354 7.4V4.6L7.73422 5.1V7.45C7.73422 8.5 6.88652 9.35 5.77392 9.35ZM1.48245 7.6C1.27053 7.2 1.16457 6.8 1.27053 6.35L1.32351 6.4L3.44275 7.55C3.54871 7.6 3.65468 7.6 3.81362 7.55L6.40969 6.15V7.1C6.40969 7.1 6.40969 7.1 6.40969 7.15L4.29045 8.3C3.28381 8.8 2.06524 8.5 1.48245 7.6ZM0.952641 3.3C1.16457 2.9 1.53543 2.65 2.01226 2.5V4.85C2.01226 4.95 2.06524 5.05 2.17121 5.15L4.7143 6.55L3.81362 7.05C3.81362 7.05 3.81362 7.05 3.76064 7.05L1.64139 5.9C0.740716 5.3 0.42283 4.15 0.952641 3.3ZM8.26403 4.9L5.72094 3.5L6.62162 3C6.62162 3 6.62162 3 6.6746 3L8.79384 4.15C9.4826 4.5 9.85346 5.2 9.80048 5.95C9.7475 6.65 9.21769 7.3 8.52894 7.55V5.2C8.47596 5.05 8.37 4.95 8.26403 4.9ZM9.16471 3.65L9.11173 3.6L6.99249 2.45C6.88652 2.4 6.72758 2.4 6.62162 2.45L4.07853 3.85V2.9C4.07853 2.9 4.07853 2.9 4.07853 2.85L6.19777 1.7C6.88652 1.35 7.68124 1.35 8.31701 1.8C8.95279 2.2 9.27067 2.9 9.16471 3.65ZM3.6017 5.35L2.70102 4.85V2.5C2.70102 1.75 3.12487 1.1 3.8666 0.799999C4.55536 0.499999 5.40305 0.599999 5.98584 1.05L5.93286 1.1L3.81362 2.25C3.70766 2.3 3.65468 2.4 3.65468 2.55L3.6017 5.35ZM4.07853 4.35L5.24411 3.75L6.40969 4.35V5.6L5.24411 6.2L4.07853 5.6V4.35Z" fill="white"/>
</svg>
