<svg width="52" height="52" viewBox="0 0 52 52" fill="none" xmlns="http://www.w3.org/2000/svg">
    <circle cx="26" cy="26" r="26" fill="#353535"/>
    <path d="M35.436 36.4355C30.0181 41.8534 21.1234 41.8534 15.7056 36.4355C10.2877 31.0176 10.2877 22.123 15.7056 16.7051C21.1234 11.2872 30.0181 11.2872 35.436 16.7051C40.8538 22.123 40.8538 31.0176 35.436 36.4355ZM37.8562 38.8557C44.6623 32.0496 44.6623 21.091 37.8562 14.2849C31.0501 7.47876 20.0915 7.47877 13.2853 14.2849C6.47921 21.091 6.47921 32.0496 13.2853 38.8557C20.0915 45.6619 31.0501 45.6619 37.8562 38.8557ZM28.4578 24.8381L28.4701 19.6413L35.3991 26.5703L28.4701 33.4993L28.4578 28.3026L16.2338 28.2903V24.8504" fill="#9D9D9D"/>
</svg>
