<svg xmlns="http://www.w3.org/2000/svg" width="696.762" height="591.271" viewBox="0 0 696.762 591.271">
  <g id="Actions_Chart" data-name="Actions Chart" transform="translate(-131.257 -8454.043)">
    <g id="组_72" data-name="组 72" transform="translate(-897.48 3495.021)">
      <text id="Actions" transform="translate(1353.097 4984.021)" fill="#fff" stroke="#fff" stroke-width="1" font-size="24" font-family="JetBrainsMono-SemiBold, JetBrains Mono" font-weight="600"><tspan x="0" y="0">Actions</tspan></text>
      <text id="_2016" data-name="2016" transform="translate(1098.238 5497.021)" fill="#e0e0e0" font-size="20" font-family="JetBrainsMono-SemiBold, JetBrains Mono" font-weight="600"><tspan x="0" y="0">2016</tspan></text>
      <text id="_2017" data-name="2017" transform="translate(1194.238 5497.021)" fill="#e0e0e0" font-size="20" font-family="JetBrainsMono-SemiBold, JetBrains Mono" font-weight="600"><tspan x="0" y="0">2017</tspan></text>
      <text id="_2022" data-name="2022" transform="translate(1674.238 5497.021)" fill="#e0e0e0" font-size="20" font-family="JetBrainsMono-SemiBold, JetBrains Mono" font-weight="600"><tspan x="0" y="0">2022</tspan></text>
      <text id="_1000_" data-name="1000%" transform="translate(1028.738 5041.021)" fill="#e0e0e0" font-size="19" font-family="JetBrainsMono-Regular, JetBrains Mono"><tspan x="0" y="0">1000%</tspan></text>
      <text id="_800_" data-name="800%" transform="translate(1039.238 5106.021)" fill="#e0e0e0" font-size="19" font-family="JetBrainsMono-Regular, JetBrains Mono"><tspan x="0" y="0">800%</tspan></text>
      <text id="_600_" data-name="600%" transform="translate(1039.738 5171.021)" fill="#e0e0e0" font-size="19" font-family="JetBrainsMono-Regular, JetBrains Mono"><tspan x="0" y="0">600%</tspan></text>
      <text id="_400_" data-name="400%" transform="translate(1039.738 5236.021)" fill="#e0e0e0" font-size="19" font-family="JetBrainsMono-Regular, JetBrains Mono"><tspan x="0" y="0">400%</tspan></text>
      <text id="_200_" data-name="200%" transform="translate(1039.738 5301.021)" fill="#e0e0e0" font-size="19" font-family="JetBrainsMono-Regular, JetBrains Mono"><tspan x="0" y="0">200%</tspan></text>
      <text id="_0_" data-name="0%" transform="translate(1051.238 5366.021)" fill="#e0e0e0" font-size="19" font-family="JetBrainsMono-Regular, JetBrains Mono"><tspan x="0" y="0">0%</tspan></text>
      <text id="_-200_" data-name="-200%" transform="translate(1034.238 5431.021)" fill="#e0e0e0" font-size="19" font-family="JetBrainsMono-Regular, JetBrains Mono"><tspan x="0" y="0">-200%</tspan></text>
      <text id="_2018" data-name="2018" transform="translate(1290.238 5497.021)" fill="#e0e0e0" font-size="20" font-family="JetBrainsMono-SemiBold, JetBrains Mono" font-weight="600"><tspan x="0" y="0">2018</tspan></text>
      <text id="_2019" data-name="2019" transform="translate(1386.238 5497.021)" fill="#e0e0e0" font-size="20" font-family="JetBrainsMono-SemiBold, JetBrains Mono" font-weight="600"><tspan x="0" y="0">2019</tspan></text>
      <text id="_2020" data-name="2020" transform="translate(1482.238 5497.021)" fill="#e0e0e0" font-size="20" font-family="JetBrainsMono-SemiBold, JetBrains Mono" font-weight="600"><tspan x="0" y="0">2020</tspan></text>
      <text id="_2021" data-name="2021" transform="translate(1578.238 5497.021)" fill="#e0e0e0" font-size="20" font-family="JetBrainsMono-SemiBold, JetBrains Mono" font-weight="600"><tspan x="0" y="0">2021</tspan></text>
      <g id="组_89" data-name="组 89" opacity="0.496">
        <line id="直线_44" data-name="直线 44" y2="438" transform="translate(1122.238 5022.5)" fill="none" stroke="#bfbfbf" stroke-width="1" stroke-dasharray="4"/>
        <line id="直线_58" data-name="直线 58" x1="603.262" transform="translate(1122.238 5034.521)" fill="none" stroke="#bfbfbf" stroke-width="1" stroke-dasharray="4"/>
        <line id="直线_59" data-name="直线 59" x1="603.262" transform="translate(1122 5099.521)" fill="none" stroke="#bfbfbf" stroke-width="1" stroke-dasharray="4"/>
        <line id="直线_61" data-name="直线 61" x1="603.262" transform="translate(1122.238 5164.521)" fill="none" stroke="#bfbfbf" stroke-width="1" stroke-dasharray="4"/>
        <line id="直线_62" data-name="直线 62" x1="603.262" transform="translate(1122.238 5229.521)" fill="none" stroke="#bfbfbf" stroke-width="1" stroke-dasharray="4"/>
        <line id="直线_63" data-name="直线 63" x1="603.262" transform="translate(1122.238 5292)" fill="none" stroke="#bfbfbf" stroke-width="1" stroke-dasharray="4"/>
        <line id="直线_65" data-name="直线 65" x1="603.262" transform="translate(1122.238 5359.521)" fill="none" stroke="#bfbfbf" stroke-width="1" stroke-dasharray="4"/>
        <line id="直线_66" data-name="直线 66" x1="603.262" transform="translate(1122 5421.521)" fill="none" stroke="#bfbfbf" stroke-width="1" stroke-dasharray="4"/>
        <line id="直线_45" data-name="直线 45" y2="438" transform="translate(1218.238 5022.5)" fill="none" stroke="#bfbfbf" stroke-width="1" stroke-dasharray="4"/>
        <line id="直线_46" data-name="直线 46" y2="438" transform="translate(1314.238 5022.5)" fill="none" stroke="#bfbfbf" stroke-width="1" stroke-dasharray="4"/>
        <line id="直线_47" data-name="直线 47" y2="438" transform="translate(1410.238 5022.021)" fill="none" stroke="#bfbfbf" stroke-width="1" stroke-dasharray="4"/>
        <line id="直线_48" data-name="直线 48" y2="438" transform="translate(1506.238 5022.021)" fill="none" stroke="#bfbfbf" stroke-width="1" stroke-dasharray="4"/>
        <line id="直线_49" data-name="直线 49" y2="438" transform="translate(1602.238 5022.521)" fill="none" stroke="#bfbfbf" stroke-width="1" stroke-dasharray="4"/>
        <line id="直线_50" data-name="直线 50" y2="438" transform="translate(1698.238 5022.521)" fill="none" stroke="#bfbfbf" stroke-width="1" stroke-dasharray="4"/>
      </g>
      <circle id="椭圆_238" data-name="椭圆 238" cx="5" cy="5" r="5" transform="translate(1117 5332)" fill="#90bdff"/>
      <circle id="椭圆_252" data-name="椭圆 252" cx="5" cy="5" r="5" transform="translate(1213 5258)" fill="#b78dc1"/>
      <circle id="椭圆_255" data-name="椭圆 255" cx="5" cy="5" r="5" transform="translate(1406 5248)" fill="#b78dc1"/>
      <circle id="椭圆_256" data-name="椭圆 256" cx="5" cy="5" r="5" transform="translate(1501 5260)" fill="#b78dc1"/>
      <circle id="椭圆_257" data-name="椭圆 257" cx="5" cy="5" r="5" transform="translate(1597 5342)" fill="#b78dc1"/>
      <circle id="椭圆_258" data-name="椭圆 258" cx="5" cy="5" r="5" transform="translate(1693 5342)" fill="#b78dc1"/>
      <circle id="椭圆_253" data-name="椭圆 253" cx="5" cy="5" r="5" transform="translate(1309 5339)" fill="#b78dc1"/>
      <circle id="椭圆_245" data-name="椭圆 245" cx="5" cy="5" r="5" transform="translate(1117 5319)" fill="#ea7e53"/>
      <circle id="椭圆_246" data-name="椭圆 246" cx="5" cy="5" r="5" transform="translate(1213 5272)" fill="#ea7e53"/>
      <circle id="椭圆_247" data-name="椭圆 247" cx="5" cy="5" r="5" transform="translate(1309 5347)" fill="#ea7e53"/>
      <circle id="椭圆_248" data-name="椭圆 248" cx="5" cy="5" r="5" transform="translate(1501 5272)" fill="#ea7e53"/>
      <circle id="椭圆_254" data-name="椭圆 254" cx="5" cy="5" r="5" transform="translate(1406 5267)" fill="#ea7e53"/>
      <circle id="椭圆_249" data-name="椭圆 249" cx="5" cy="5" r="5" transform="translate(1597 5350)" fill="#ea7e53"/>
      <circle id="椭圆_239" data-name="椭圆 239" cx="5" cy="5" r="5" transform="translate(1213 5316)" fill="#90bdff"/>
      <circle id="椭圆_240" data-name="椭圆 240" cx="5" cy="5" r="5" transform="translate(1309 5334)" fill="#90bdff"/>
      <circle id="椭圆_241" data-name="椭圆 241" cx="5" cy="5" r="5" transform="translate(1405 5117)" fill="#90bdff"/>
      <circle id="椭圆_242" data-name="椭圆 242" cx="5" cy="5" r="5" transform="translate(1501 5321)" fill="#90bdff"/>
      <circle id="椭圆_243" data-name="椭圆 243" cx="5" cy="5" r="5" transform="translate(1597 5357)" fill="#90bdff"/>
      <circle id="椭圆_250" data-name="椭圆 250" cx="5" cy="5" r="5" transform="translate(1693 5337)" fill="#ea7e53"/>
      <circle id="椭圆_244" data-name="椭圆 244" cx="5" cy="5" r="5" transform="translate(1693 5347)" fill="#90bdff"/>
      <path id="路径_33" data-name="路径 33" d="M1053.238,5280l97.4-16.437L1246.33,5280l95.044-215.232,95.684,205.014,97.246,35.835,96.445-10.5" transform="translate(69 57)" fill="none" stroke="#99bcfa" stroke-width="2"/>
      <path id="路径_34" data-name="路径 34" d="M1053,5267l96.353-46.956,96.011,75.769,96.582-80.354,95.864,4.338,96.547,79,95.288-14.162" transform="translate(69 57)" fill="none" stroke="#ea7e53" stroke-width="2"/>
      <path id="路径_35" data-name="路径 35" d="M1053.238,5287l95.846-81.125L1244.772,5287l96.938-91.822,95.391,12.738,95.408,82.385h97.36" transform="translate(69 57)" fill="none" stroke="#b78dc1" stroke-width="2"/>
      <circle id="椭圆_260" data-name="椭圆 260" cx="5" cy="5" r="5" transform="translate(1117 5337)" fill="#b78dc1"/>
      <circle id="椭圆_261" data-name="椭圆 261" cx="5" cy="5" r="5" transform="translate(1117 5340)" fill="#91ca8c"/>
      <circle id="椭圆_262" data-name="椭圆 262" cx="5" cy="5" r="5" transform="translate(1213 5082)" fill="#91ca8c"/>
      <circle id="椭圆_263" data-name="椭圆 263" cx="5" cy="5" r="5" transform="translate(1309 5331)" fill="#91ca8c"/>
      <circle id="椭圆_264" data-name="椭圆 264" cx="5" cy="5" r="5" transform="translate(1406 5243)" fill="#91ca8c"/>
      <circle id="椭圆_265" data-name="椭圆 265" cx="5" cy="5" r="5" transform="translate(1501 5279)" fill="#91ca8c"/>
      <circle id="椭圆_266" data-name="椭圆 266" cx="5" cy="5" r="5" transform="translate(1597 5353)" fill="#91ca8c"/>
      <circle id="椭圆_267" data-name="椭圆 267" cx="5" cy="5" r="5" transform="translate(1693 5342)" fill="#91ca8c"/>
      <path id="路径_36" data-name="路径 36" d="M1052.968,5288.063l96.191-257.935,95.983,249.912,96.793-89.746,94.19,36.746,96.349,74.047,97.75-10.964" transform="translate(69 57)" fill="none" stroke="#91ca8c" stroke-width="2"/>
    </g>
    <g id="组_92" data-name="组 92" transform="translate(-17.362 3425.293)">
      <circle id="椭圆_397" data-name="椭圆 397" cx="5" cy="5" r="5" transform="translate(258.809 5604.021)" fill="#90bdff"/>
      <text id="New_repos" data-name="New repos" transform="translate(276.547 5614.521)" fill="#bfbfbf" font-size="16" font-family="JetBrainsMono-Regular, JetBrains Mono"><tspan x="0" y="0">New repos</tspan></text>
      <g id="椭圆_395" data-name="椭圆 395" transform="translate(518.31 5604.521)" fill="#b78dc1" stroke="#b78dc1" stroke-width="1">
        <circle cx="5" cy="5" r="5" stroke="none"/>
        <circle cx="5" cy="5" r="4.5" fill="none"/>
      </g>
      <text id="New_developers" data-name="New developers" transform="translate(536.31 5615.021)" fill="#bfbfbf" font-size="16" font-family="JetBrainsMono-Regular, JetBrains Mono"><tspan x="0" y="0">New developers</tspan></text>
      <g id="椭圆_396" data-name="椭圆 396" transform="translate(383.928 5604.021)" fill="#ea7e53" stroke="#ea7e53" stroke-width="1">
        <circle cx="5" cy="5" r="5" stroke="none"/>
        <circle cx="5" cy="5" r="4.5" fill="none"/>
      </g>
      <text id="New_events" data-name="New events" transform="translate(401.928 5615.021)" fill="#bfbfbf" font-size="16" font-family="JetBrainsMono-Regular, JetBrains Mono"><tspan x="0" y="0">New events</tspan></text>
      <g id="椭圆_394" data-name="椭圆 394" transform="translate(691.691 5605.021)" fill="#91ca8c" stroke="#90ca8b" stroke-width="1">
        <circle cx="5" cy="5" r="5" stroke="none"/>
        <circle cx="5" cy="5" r="4.5" fill="none"/>
      </g>
      <text id="New_stars" data-name="New stars" transform="translate(709.429 5615.021)" fill="#bfbfbf" font-size="16" font-family="JetBrainsMono-Regular, JetBrains Mono"><tspan x="0" y="0">New stars</tspan></text>
    </g>
  </g>
</svg>
