<svg xmlns="http://www.w3.org/2000/svg" width="685.762" height="603.293" viewBox="0 0 685.762 603.293">
  <g id="AI_Chart" data-name="AI Chart" transform="translate(-149.257 -9959.021)">
    <g id="组_69" data-name="组 69" transform="translate(-26.48 4324)">
      <text id="AI" transform="translate(498 5660.021)" fill="#fff" stroke="#fff" stroke-width="1" font-size="24" font-family="JetBrainsMono-SemiBold, JetBrains Mono" font-weight="600"><tspan x="0" y="0">AI</tspan></text>
      <text id="_2016" data-name="2016" transform="translate(234.238 6184.021)" fill="#e0e0e0" font-size="20" font-family="JetBrainsMono-SemiBold, JetBrains Mono" font-weight="600"><tspan x="0" y="0">2016</tspan></text>
      <text id="_2017" data-name="2017" transform="translate(330.238 6184.021)" fill="#e0e0e0" font-size="20" font-family="JetBrainsMono-SemiBold, JetBrains Mono" font-weight="600"><tspan x="0" y="0">2017</tspan></text>
      <text id="_2022" data-name="2022" transform="translate(810.238 6184.021)" fill="#e0e0e0" font-size="20" font-family="JetBrainsMono-SemiBold, JetBrains Mono" font-weight="600"><tspan x="0" y="0">2022</tspan></text>
      <text id="_400_" data-name="400%" transform="translate(181.238 5723.021)" fill="#e0e0e0" font-size="19" font-family="JetBrainsMono-Regular, JetBrains Mono"><tspan x="0" y="0">400%</tspan></text>
      <text id="_300_" data-name="300%" transform="translate(181.238 5804.021)" fill="#e0e0e0" font-size="19" font-family="JetBrainsMono-Regular, JetBrains Mono"><tspan x="0" y="0">300%</tspan></text>
      <text id="_200_" data-name="200%" transform="translate(181.238 5885.021)" fill="#e0e0e0" font-size="19" font-family="JetBrainsMono-Regular, JetBrains Mono"><tspan x="0" y="0">200%</tspan></text>
      <text id="_100_" data-name="100%" transform="translate(181.238 5966.021)" fill="#e0e0e0" font-size="19" font-family="JetBrainsMono-Regular, JetBrains Mono"><tspan x="0" y="0">100%</tspan></text>
      <text id="_0_" data-name="0%" transform="translate(204.238 6047.021)" fill="#e0e0e0" font-size="19" font-family="JetBrainsMono-Regular, JetBrains Mono"><tspan x="0" y="0">0%</tspan></text>
      <text id="_-100_" data-name="-100%" transform="translate(175.738 6128.021)" fill="#e0e0e0" font-size="19" font-family="JetBrainsMono-Regular, JetBrains Mono"><tspan x="0" y="0">-100%</tspan></text>
      <text id="_2018" data-name="2018" transform="translate(426.238 6184.021)" fill="#e0e0e0" font-size="20" font-family="JetBrainsMono-SemiBold, JetBrains Mono" font-weight="600"><tspan x="0" y="0">2018</tspan></text>
      <text id="_2019" data-name="2019" transform="translate(522.238 6184.021)" fill="#e0e0e0" font-size="20" font-family="JetBrainsMono-SemiBold, JetBrains Mono" font-weight="600"><tspan x="0" y="0">2019</tspan></text>
      <text id="_2020" data-name="2020" transform="translate(618.238 6184.021)" fill="#e0e0e0" font-size="20" font-family="JetBrainsMono-SemiBold, JetBrains Mono" font-weight="600"><tspan x="0" y="0">2020</tspan></text>
      <text id="_2021" data-name="2021" transform="translate(714.238 6184.021)" fill="#e0e0e0" font-size="20" font-family="JetBrainsMono-SemiBold, JetBrains Mono" font-weight="600"><tspan x="0" y="0">2021</tspan></text>
      <g id="组_67" data-name="组 67" opacity="0.5">
        <line id="直线_44" data-name="直线 44" y2="438" transform="translate(258.238 5709.5)" fill="none" stroke="#bfbfbf" stroke-width="1" stroke-dasharray="4"/>
        <line id="直线_58" data-name="直线 58" x1="603.262" transform="translate(258.238 5721.521)" fill="none" stroke="#bfbfbf" stroke-width="1" stroke-dasharray="4"/>
        <line id="直线_60" data-name="直线 60" x1="603.262" transform="translate(258.238 5797.521)" fill="none" stroke="#bfbfbf" stroke-width="1" stroke-dasharray="4"/>
        <line id="直线_61" data-name="直线 61" x1="603.262" transform="translate(258.238 5878.521)" fill="none" stroke="#bfbfbf" stroke-width="1" stroke-dasharray="4"/>
        <line id="直线_63" data-name="直线 63" x1="603.262" transform="translate(258.238 5959.521)" fill="none" stroke="#bfbfbf" stroke-width="1" stroke-dasharray="4"/>
        <line id="直线_65" data-name="直线 65" x1="603.262" transform="translate(258.238 6040.521)" fill="none" stroke="#bfbfbf" stroke-width="1" stroke-dasharray="4"/>
        <line id="直线_66" data-name="直线 66" x1="603.262" transform="translate(258.238 6121.521)" fill="none" stroke="#bfbfbf" stroke-width="1" stroke-dasharray="4"/>
        <line id="直线_45" data-name="直线 45" y2="438" transform="translate(354.238 5709.5)" fill="none" stroke="#bfbfbf" stroke-width="1" stroke-dasharray="4"/>
        <line id="直线_46" data-name="直线 46" y2="438" transform="translate(450.238 5709.5)" fill="none" stroke="#bfbfbf" stroke-width="1" stroke-dasharray="4"/>
        <line id="直线_47" data-name="直线 47" y2="438" transform="translate(546.238 5709.021)" fill="none" stroke="#bfbfbf" stroke-width="1" stroke-dasharray="4"/>
        <line id="直线_48" data-name="直线 48" y2="438" transform="translate(642.238 5709.021)" fill="none" stroke="#bfbfbf" stroke-width="1" stroke-dasharray="4"/>
        <line id="直线_49" data-name="直线 49" y2="438" transform="translate(738.238 5709.521)" fill="none" stroke="#bfbfbf" stroke-width="1" stroke-dasharray="4"/>
        <line id="直线_50" data-name="直线 50" y2="438" transform="translate(834.238 5709.521)" fill="none" stroke="#bfbfbf" stroke-width="1" stroke-dasharray="4"/>
      </g>
      <circle id="椭圆_268" data-name="椭圆 268" cx="5" cy="5" r="5" transform="translate(253 5853)" fill="#90bdff"/>
      <circle id="椭圆_275" data-name="椭圆 275" cx="5" cy="5" r="5" transform="translate(253 5967)" fill="#ea7e53"/>
      <circle id="椭圆_283" data-name="椭圆 283" cx="5" cy="5" r="5" transform="translate(349 5947)" fill="#ea7e53"/>
      <circle id="椭圆_281" data-name="椭圆 281" cx="5" cy="5" r="5" transform="translate(253 5962)" fill="#b78dc1"/>
      <circle id="椭圆_289" data-name="椭圆 289" cx="5" cy="5" r="5" transform="translate(253 5890)" fill="#91ca8c"/>
      <circle id="椭圆_290" data-name="椭圆 290" cx="5" cy="5" r="5" transform="translate(349 5897)" fill="#91ca8c"/>
      <circle id="椭圆_291" data-name="椭圆 291" cx="5" cy="5" r="5" transform="translate(445 5987)" fill="#91ca8c"/>
      <circle id="椭圆_292" data-name="椭圆 292" cx="5" cy="5" r="5" transform="translate(541 5985)" fill="#91ca8c"/>
      <circle id="椭圆_293" data-name="椭圆 293" cx="5" cy="5" r="5" transform="translate(637 6033)" fill="#91ca8c"/>
      <circle id="椭圆_295" data-name="椭圆 295" cx="5" cy="5" r="5" transform="translate(829 6046)" fill="#91ca8c"/>
      <circle id="椭圆_294" data-name="椭圆 294" cx="5" cy="5" r="5" transform="translate(733 6038)" fill="#91ca8c"/>
      <circle id="椭圆_282" data-name="椭圆 282" cx="5" cy="5" r="5" transform="translate(349 5940)" fill="#b78dc1"/>
      <circle id="椭圆_284" data-name="椭圆 284" cx="5" cy="5" r="5" transform="translate(445 5990)" fill="#b78dc1"/>
      <circle id="椭圆_285" data-name="椭圆 285" cx="5" cy="5" r="5" transform="translate(541 6015)" fill="#b78dc1"/>
      <circle id="椭圆_286" data-name="椭圆 286" cx="5" cy="5" r="5" transform="translate(637 6017)" fill="#b78dc1"/>
      <circle id="椭圆_287" data-name="椭圆 287" cx="5" cy="5" r="5" transform="translate(733 6033)" fill="#b78dc1"/>
      <circle id="椭圆_288" data-name="椭圆 288" cx="5" cy="5" r="5" transform="translate(829 6032)" fill="#b78dc1"/>
      <circle id="椭圆_276" data-name="椭圆 276" cx="5" cy="5" r="5" transform="translate(445 6001)" fill="#ea7e53"/>
      <circle id="椭圆_277" data-name="椭圆 277" cx="5" cy="5" r="5" transform="translate(637 5991)" fill="#ea7e53"/>
      <circle id="椭圆_280" data-name="椭圆 280" cx="5" cy="5" r="5" transform="translate(541 5996)" fill="#ea7e53"/>
      <circle id="椭圆_278" data-name="椭圆 278" cx="5" cy="5" r="5" transform="translate(733 6030)" fill="#ea7e53"/>
      <circle id="椭圆_279" data-name="椭圆 279" cx="5" cy="5" r="5" transform="translate(829 6028)" fill="#ea7e53"/>
      <circle id="椭圆_269" data-name="椭圆 269" cx="5" cy="5" r="5" transform="translate(349 5758)" fill="#90bdff"/>
      <circle id="椭圆_270" data-name="椭圆 270" cx="5" cy="5" r="5" transform="translate(445 6010)" fill="#90bdff"/>
      <circle id="椭圆_271" data-name="椭圆 271" cx="5" cy="5" r="5" transform="translate(541 6028)" fill="#90bdff"/>
      <circle id="椭圆_272" data-name="椭圆 272" cx="5" cy="5" r="5" transform="translate(637 6003)" fill="#90bdff"/>
      <circle id="椭圆_273" data-name="椭圆 273" cx="5" cy="5" r="5" transform="translate(733 6044)" fill="#90bdff"/>
      <circle id="椭圆_274" data-name="椭圆 274" cx="5" cy="5" r="5" transform="translate(829 6044)" fill="#90bdff"/>
      <path id="路径_37" data-name="路径 37" d="M189,5801l95.9-95.36,96.455,253.933,95.259,16.41,98.225-24.819,94.489,42.16h95.857" transform="translate(69 57)" fill="none" stroke="#90bdff" stroke-width="2"/>
      <path id="路径_38" data-name="路径 38" d="M189,5915.021l96.124-19.238,95.9,52.961,96.272-4.708,95.525-5.555,96.111,39.812,97.094-2.336" transform="translate(69 57)" fill="none" stroke="#ea7e53" stroke-width="2"/>
      <path id="路径_39" data-name="路径 39" d="M189.238,5910l96.276-21.468,95.919,49.908,95.859,25.174,96.355,1.878,96.218,16.895,95.715-1.624" transform="translate(69 57)" fill="none" stroke="#b78dc1" stroke-width="2"/>
      <path id="路径_40" data-name="路径 40" d="M189.238,5838l95.819,7.692,97.076,90.527,94.876-2.358,96.676,47.371,95.754,5.934,96.372,8.773" transform="translate(69 57)" fill="none" stroke="#91ca8c" stroke-width="2"/>
    </g>
    <g id="组_94" data-name="组 94" transform="translate(-2.362 4942.293)">
      <circle id="椭圆_397" data-name="椭圆 397" cx="5" cy="5" r="5" transform="translate(258.809 5604.021)" fill="#90bdff"/>
      <text id="New_repo" data-name="New repo" transform="translate(276.547 5614.521)" fill="#bfbfbf" font-size="16" font-family="JetBrainsMono-Regular, JetBrains Mono"><tspan x="0" y="0">New repo</tspan></text>
      <g id="椭圆_395" data-name="椭圆 395" transform="translate(518.31 5604.521)" fill="#b78dc1" stroke="#b78dc1" stroke-width="1">
        <circle cx="5" cy="5" r="5" stroke="none"/>
        <circle cx="5" cy="5" r="4.5" fill="none"/>
      </g>
      <text id="New_developer" data-name="New developer" transform="translate(536.31 5615.021)" fill="#bfbfbf" font-size="16" font-family="JetBrainsMono-Regular, JetBrains Mono"><tspan x="0" y="0">New developer</tspan></text>
      <g id="椭圆_396" data-name="椭圆 396" transform="translate(383.928 5604.021)" fill="#ea7e53" stroke="#ea7e53" stroke-width="1">
        <circle cx="5" cy="5" r="5" stroke="none"/>
        <circle cx="5" cy="5" r="4.5" fill="none"/>
      </g>
      <text id="New_event" data-name="New event" transform="translate(401.928 5615.021)" fill="#bfbfbf" font-size="16" font-family="JetBrainsMono-Regular, JetBrains Mono"><tspan x="0" y="0">New event</tspan></text>
      <g id="椭圆_394" data-name="椭圆 394" transform="translate(691.691 5605.021)" fill="#91ca8c" stroke="#90ca8b" stroke-width="1">
        <circle cx="5" cy="5" r="5" stroke="none"/>
        <circle cx="5" cy="5" r="4.5" fill="none"/>
      </g>
      <text id="New_star" data-name="New star" transform="translate(709.429 5615.021)" fill="#bfbfbf" font-size="16" font-family="JetBrainsMono-Regular, JetBrains Mono"><tspan x="0" y="0">New star</tspan></text>
    </g>
  </g>
</svg>
