<svg xmlns="http://www.w3.org/2000/svg" width="542" height="647.068" viewBox="0 0 542 647.068">
  <g id="组_97" data-name="组 97" transform="translate(-1063 -2279.432)">
    <text id="_1" data-name="1" transform="translate(1063 2343.432)" fill="#e0e0e0" font-size="19" font-family="JetBrainsMono-Regular, JetBrains Mono"><tspan x="0" y="0">1</tspan></text>
    <text id="_2" data-name="2" transform="translate(1063 2395.432)" fill="#e0e0e0" font-size="19" font-family="JetBrainsMono-Regular, JetBrains Mono"><tspan x="0" y="0">2</tspan></text>
    <text id="_3" data-name="3" transform="translate(1063 2446.432)" fill="#e0e0e0" font-size="19" font-family="JetBrainsMono-Regular, JetBrains Mono"><tspan x="0" y="0">3</tspan></text>
    <text id="_4" data-name="4" transform="translate(1063 2498.432)" fill="#e0e0e0" font-size="19" font-family="JetBrainsMono-Regular, JetBrains Mono"><tspan x="0" y="0">4</tspan></text>
    <text id="_5" data-name="5" transform="translate(1063 2550.432)" fill="#e0e0e0" font-size="19" font-family="JetBrainsMono-Regular, JetBrains Mono"><tspan x="0" y="0">5</tspan></text>
    <text id="_6" data-name="6" transform="translate(1063 2601.432)" fill="#e0e0e0" font-size="19" font-family="JetBrainsMono-Regular, JetBrains Mono"><tspan x="0" y="0">6</tspan></text>
    <text id="_7" data-name="7" transform="translate(1063 2653.432)" fill="#e0e0e0" font-size="19" font-family="JetBrainsMono-Regular, JetBrains Mono"><tspan x="0" y="0">7</tspan></text>
    <text id="_8" data-name="8" transform="translate(1063 2704.432)" fill="#e0e0e0" font-size="19" font-family="JetBrainsMono-Regular, JetBrains Mono"><tspan x="0" y="0">8</tspan></text>
    <text id="_9" data-name="9" transform="translate(1063 2756.432)" fill="#e0e0e0" font-size="19" font-family="JetBrainsMono-Regular, JetBrains Mono"><tspan x="0" y="0">9</tspan></text>
    <text id="_10" data-name="10" transform="translate(1063 2808.432)" fill="#e0e0e0" font-size="19" font-family="JetBrainsMono-Regular, JetBrains Mono"><tspan x="0" y="0">10</tspan></text>
    <text id="_11" data-name="11" transform="translate(1063 2855.576)" fill="#e0e0e0" font-size="19" font-family="JetBrainsMono-Regular, JetBrains Mono"><tspan x="0" y="0">11</tspan></text>
    <text id="_2019" data-name="2019" transform="translate(1095 2301.432)" fill="#e0e0e0" font-size="22" font-family="JetBrainsMono-SemiBold, JetBrains Mono" font-weight="600"><tspan x="0" y="0">2019</tspan></text>
    <text id="_2020" data-name="2020" transform="translate(1225 2301.432)" fill="#e0e0e0" font-size="22" font-family="JetBrainsMono-SemiBold, JetBrains Mono" font-weight="600"><tspan x="0" y="0">2020</tspan></text>
    <text id="_2021" data-name="2021" transform="translate(1354 2301.432)" fill="#e0e0e0" font-size="22" font-family="JetBrainsMono-SemiBold, JetBrains Mono" font-weight="600"><tspan x="0" y="0">2021</tspan></text>
    <text id="_2022" data-name="2022" transform="translate(1483 2301.432)" fill="#e0e0e0" font-size="22" font-family="JetBrainsMono-SemiBold, JetBrains Mono" font-weight="600"><tspan x="0" y="0">2022</tspan></text>
    <text id="Ruby" transform="translate(1539.16 2649.432)" fill="#a3c097" font-size="19" font-family="JetBrainsMono-Regular, JetBrains Mono" opacity="0.3"><tspan x="0" y="0">Ruby</tspan></text>
    <text id="Java" transform="translate(1536 2392.432)" fill="#eedd78" font-size="19" font-family="JetBrainsMono-Bold, JetBrains Mono" font-weight="700"><tspan x="0" y="0">Java</tspan></text>
    <text id="Go" transform="translate(1536 2444.022)" fill="#90bdff" font-size="19" font-family="JetBrainsMono-Bold, JetBrains Mono" font-weight="700"><tspan x="0" y="0">Go</tspan></text>
    <text id="Python" transform="translate(1536 2338.432)" fill="#73b9bc" font-size="19" font-family="JetBrainsMono-Bold, JetBrains Mono" font-weight="700"><tspan x="0" y="0">Python</tspan></text>
    <text id="C_" data-name="C#" transform="translate(1539.16 2548.432)" fill="#7289ab" font-size="19" font-family="JetBrainsMono-Regular, JetBrains Mono" opacity="0.294"><tspan x="0" y="0">C#</tspan></text>
    <text id="PHP" transform="translate(1536.451 2600.432)" fill="#ea7e53" font-size="19" font-family="JetBrainsMono-Regular, JetBrains Mono" opacity="0.3"><tspan x="0" y="0">PHP</tspan></text>
    <text id="Shell" transform="translate(1536 2701.432)" fill="#958dc1" font-size="19" font-family="JetBrainsMono-Regular, JetBrains Mono" opacity="0.304"><tspan x="0" y="0">Shell</tspan></text>
    <text id="Rust" transform="translate(1536 2753.432)" fill="#b78dc1" font-size="19" font-family="JetBrainsMono-Bold, JetBrains Mono" font-weight="700"><tspan x="0" y="0">Rust</tspan></text>
    <text id="C" transform="translate(1536 2804.432)" fill="#e69d87" font-size="19" font-family="JetBrainsMono-Regular, JetBrains Mono" opacity="0.304"><tspan x="0" y="0">C</tspan></text>
    <line id="直线_12" data-name="直线 12" x2="441.292" transform="translate(1095.16 2333.8)" fill="none" stroke="#383838" stroke-width="1"/>
    <line id="直线_13" data-name="直线 13" x2="441.292" transform="translate(1095.16 2385.39)" fill="none" stroke="#383838" stroke-width="1"/>
    <line id="直线_16" data-name="直线 16" x2="441.292" transform="translate(1095.16 2436.98)" fill="none" stroke="#383838" stroke-width="1"/>
    <line id="直线_17" data-name="直线 17" x2="441.292" transform="translate(1095.16 2488.57)" fill="none" stroke="#383838" stroke-width="1"/>
    <line id="直线_18" data-name="直线 18" x2="441.292" transform="translate(1095.16 2540.159)" fill="none" stroke="#383838" stroke-width="1"/>
    <line id="直线_19" data-name="直线 19" x2="441.292" transform="translate(1095.16 2591.749)" fill="none" stroke="#383838" stroke-width="1"/>
    <line id="直线_20" data-name="直线 20" x2="441.292" transform="translate(1095.16 2643.339)" fill="none" stroke="#383838" stroke-width="1"/>
    <line id="直线_21" data-name="直线 21" x2="441.292" transform="translate(1095.16 2694.929)" fill="none" stroke="#383838" stroke-width="1"/>
    <line id="直线_22" data-name="直线 22" x2="441.292" transform="translate(1095.16 2746.519)" fill="none" stroke="#383838" stroke-width="1"/>
    <line id="直线_23" data-name="直线 23" x2="441.292" transform="translate(1095.16 2798.109)" fill="none" stroke="#383838" stroke-width="1"/>
    <line id="直线_82" data-name="直线 82" x2="441.292" transform="translate(1097.868 2851.162)" fill="none" stroke="#383838" stroke-width="1"/>
    <circle id="椭圆_67" data-name="椭圆 67" cx="11" cy="11" r="11" transform="translate(1111 2322.432)" fill="#73b9bc" opacity="0.496"/>
    <ellipse id="椭圆_68" data-name="椭圆 68" cx="11.5" cy="11" rx="11.5" ry="11" transform="translate(1240 2322.432)" fill="#73b9bc" opacity="0.496"/>
    <circle id="椭圆_69" data-name="椭圆 69" cx="11" cy="11" r="11" transform="translate(1370 2322.432)" fill="#73b9bc" opacity="0.496"/>
    <circle id="椭圆_70" data-name="椭圆 70" cx="11" cy="11" r="11" transform="translate(1499 2322.432)" fill="#73b9bc" opacity="0.496"/>
    <circle id="椭圆_71" data-name="椭圆 71" cx="8" cy="8" r="8" transform="translate(1114 2428.432)" fill="#a3c097" opacity="0.298"/>
    <circle id="椭圆_72" data-name="椭圆 72" cx="8" cy="8" r="8" transform="translate(1244 2428.432)" fill="#a3c097" opacity="0.298"/>
    <circle id="椭圆_91" data-name="椭圆 91" cx="8" cy="8" r="8" transform="translate(1373 2532.192)" fill="#a3c097" opacity="0.298"/>
    <circle id="椭圆_92" data-name="椭圆 92" cx="8" cy="8" r="8" transform="translate(1502 2532.159)" fill="#7289ab" opacity="0.3"/>
    <ellipse id="椭圆_104" data-name="椭圆 104" cx="8" cy="7.5" rx="8" ry="7.5" transform="translate(1114 2635.432)" fill="#7289ab" opacity="0.3"/>
    <circle id="椭圆_105" data-name="椭圆 105" cx="7.5" cy="7.5" r="7.5" transform="translate(1244 2635.432)" fill="#7289ab" opacity="0.3"/>
    <circle id="椭圆_107" data-name="椭圆 107" cx="8" cy="8" r="8" transform="translate(1373 2583.782)" fill="#7289ab" opacity="0.3"/>
    <circle id="椭圆_108" data-name="椭圆 108" cx="8" cy="8" r="8" transform="translate(1502 2635.432)" fill="#a3c097" opacity="0.298"/>
    <circle id="椭圆_119" data-name="椭圆 119" cx="8" cy="8" r="8" transform="translate(1244 2790.432)" fill="#74999f" opacity="0.305"/>
    <circle id="椭圆_179" data-name="椭圆 179" cx="8" cy="8" r="8" transform="translate(1244 2843.162)" fill="#b78dc1"/>
    <line id="直线_14" data-name="直线 14" y1="0.794" x2="388.908" transform="translate(1121.748 2385.39)" fill="none" stroke="#ebde86" stroke-width="5"/>
    <line id="直线_27" data-name="直线 27" y1="0.794" x2="388.908" transform="translate(1119.243 2695.172)" fill="none" stroke="#948dbd" stroke-width="3" opacity="0.3"/>
    <path id="路径_27" data-name="路径 27" d="M0,52.145l129.816,53.624L258.715,50.6,390.2,0" transform="translate(1122.299 2747)" fill="none" stroke="#b08fbe" stroke-width="5"/>
    <path id="路径_13" data-name="路径 13" d="M1186.5,418h130.148l128.686,104.434L1572.9,625.218" transform="translate(-64.752 2018.583)" fill="none" stroke="#a3c097" stroke-width="3" opacity="0.298"/>
    <path id="路径_21" data-name="路径 21" d="M1186.5,418h258.187l128.848,51.187" transform="translate(-64.201 2329.044)" fill="none" stroke="#dba08b" stroke-width="3" opacity="0.3"/>
    <path id="路径_20" data-name="路径 20" d="M1186.5,418h125.78l129.609-50.6,128.871-50.526" transform="translate(-60.815 2224.858)" fill="none" stroke="#7788a8" stroke-width="3" opacity="0.3"/>
    <path id="路径_18" data-name="路径 18" d="M1184.814,367.6h132.014l130.3-52.566H1576.9" transform="translate(-64.201 2122.192)" fill="none" stroke="#99bcfa" stroke-width="5"/>
    <circle id="椭圆_73" data-name="椭圆 73" cx="8" cy="8" r="8" transform="translate(1114 2325.432)" fill="#73b9bc"/>
    <ellipse id="椭圆_74" data-name="椭圆 74" cx="7.5" cy="8" rx="7.5" ry="8" transform="translate(1244 2325.432)" fill="#73b9bc"/>
    <circle id="椭圆_75" data-name="椭圆 75" cx="8" cy="8" r="8" transform="translate(1373 2325.432)" fill="#73b9bc"/>
    <circle id="椭圆_76" data-name="椭圆 76" cx="8" cy="8" r="8" transform="translate(1502 2325.432)" fill="#73b9bc"/>
    <line id="直线_15" data-name="直线 15" y1="1" x2="389" transform="translate(1121 2333.432)" fill="none" stroke="#73b9bc" stroke-width="5"/>
    <circle id="椭圆_77" data-name="椭圆 77" cx="11" cy="11" r="11" transform="translate(1111 2374.432)" fill="#eedd78" opacity="0.496"/>
    <circle id="椭圆_152" data-name="椭圆 152" cx="11" cy="11" r="11" transform="translate(1110.669 2787.986)" fill="#b78dc1" opacity="0.496"/>
    <circle id="椭圆_180" data-name="椭圆 180" cx="11" cy="11" r="11" transform="translate(1241 2840.162)" fill="#b78dc1" opacity="0.496"/>
    <circle id="椭圆_181" data-name="椭圆 181" cx="11" cy="11" r="11" transform="translate(1370 2787.109)" fill="#b78dc1" opacity="0.496"/>
    <circle id="椭圆_153" data-name="椭圆 153" cx="11" cy="11" r="11" transform="translate(1499 2735.432)" fill="#b78dc1" opacity="0.496"/>
    <circle id="椭圆_145" data-name="椭圆 145" cx="11" cy="11" r="11" transform="translate(1241 2477.57)" fill="#90bdff" opacity="0.496"/>
    <circle id="椭圆_146" data-name="椭圆 146" cx="11" cy="11" r="11" transform="translate(1370 2425.222)" fill="#90bdff" opacity="0.496"/>
    <circle id="椭圆_147" data-name="椭圆 147" cx="11" cy="11" r="11" transform="translate(1499 2425.583)" fill="#90bdff" opacity="0.496"/>
    <circle id="椭圆_78" data-name="椭圆 78" cx="8" cy="8" r="8" transform="translate(1114 2377.432)" fill="#eedd78" opacity="0.75"/>
    <ellipse id="椭圆_79" data-name="椭圆 79" cx="11.5" cy="11" rx="11.5" ry="11" transform="translate(1240 2374.432)" fill="#eedd78" opacity="0.496"/>
    <ellipse id="椭圆_80" data-name="椭圆 80" cx="7.5" cy="8" rx="7.5" ry="8" transform="translate(1244 2377.432)" fill="#eedd78" opacity="0.75"/>
    <circle id="椭圆_81" data-name="椭圆 81" cx="11" cy="11" r="11" transform="translate(1370 2374.432)" fill="#eedd78" opacity="0.496"/>
    <circle id="椭圆_83" data-name="椭圆 83" cx="8" cy="8" r="8" transform="translate(1373 2377.432)" fill="#eedd78" opacity="0.75"/>
    <circle id="椭圆_84" data-name="椭圆 84" cx="11" cy="11" r="11" transform="translate(1499 2374.432)" fill="#eedd78" opacity="0.496"/>
    <circle id="椭圆_86" data-name="椭圆 86" cx="8" cy="8" r="8" transform="translate(1502 2377.432)" fill="#eedd78" opacity="0.75"/>
    <g id="组_86" data-name="组 86" transform="translate(-32.331 1065.886)">
      <text id="C_2" data-name="C++" transform="translate(1569 1428.932)" fill="#73a373" font-size="19" font-family="JetBrainsMono-Regular, JetBrains Mono" opacity="0.294"><tspan x="0" y="0">C++</tspan></text>
      <path id="路径_19" data-name="路径 19" d="M1186.5,418h125.78l130.471-51.873h127.374" transform="translate(-27.403 1056.492)" fill="none" stroke="#91ca8c" stroke-width="3" opacity="0.3"/>
      <circle id="椭圆_124" data-name="椭圆 124" cx="8" cy="8" r="8" transform="translate(1147 1466.932)" fill="#91ca8c" opacity="0.3"/>
      <circle id="椭圆_125" data-name="椭圆 125" cx="8" cy="8" r="8" transform="translate(1277 1466.932)" fill="#91ca8c" opacity="0.3"/>
      <circle id="椭圆_126" data-name="椭圆 126" cx="8" cy="8" r="8" transform="translate(1406 1413.932)" fill="#91ca8c" opacity="0.3"/>
      <circle id="椭圆_127" data-name="椭圆 127" cx="8" cy="8" r="8" transform="translate(1535 1413.932)" fill="#91ca8c" opacity="0.3"/>
    </g>
    <circle id="椭圆_128" data-name="椭圆 128" cx="8" cy="8" r="8" transform="translate(1114 2687.432)" fill="#958dc1" opacity="0.304"/>
    <circle id="椭圆_129" data-name="椭圆 129" cx="8" cy="8" r="8" transform="translate(1373 2687.432)" fill="#958dc1" opacity="0.3"/>
    <circle id="椭圆_130" data-name="椭圆 130" cx="8" cy="8" r="8" transform="translate(1502 2687.432)" fill="#958dc1" opacity="0.3"/>
    <circle id="椭圆_131" data-name="椭圆 131" cx="8" cy="8" r="8" transform="translate(1244 2687.432)" fill="#958dc1" opacity="0.304"/>
    <circle id="椭圆_132" data-name="椭圆 132" cx="8" cy="8" r="8" transform="translate(1114 2738.432)" fill="#e69d87" opacity="0.304"/>
    <ellipse id="椭圆_133" data-name="椭圆 133" cx="7.5" cy="8" rx="7.5" ry="8" transform="translate(1244 2738.432)" fill="#e69d87" opacity="0.305"/>
    <circle id="椭圆_134" data-name="椭圆 134" cx="8" cy="8" r="8" transform="translate(1373 2790.432)" fill="#b78dc1"/>
    <circle id="椭圆_178" data-name="椭圆 178" cx="8" cy="8" r="8" transform="translate(1503 2790.612)" fill="#e69d87" opacity="0.305"/>
    <circle id="椭圆_177" data-name="椭圆 177" cx="8" cy="8" r="8" transform="translate(1373 2738.432)" fill="#e69d87" opacity="0.305"/>
    <g id="组_85" data-name="组 85" transform="translate(-33 1095.593)">
      <path id="路径_15" data-name="路径 15" d="M1186.854,542.208H1316.9l129.4,52.235L1577.7,542.208" transform="translate(-30.831 954.872)" fill="none" stroke="#dc835c" stroke-width="3" opacity="0.3"/>
      <circle id="椭圆_93" data-name="椭圆 93" cx="8" cy="8" r="8" transform="translate(1147.669 1488.249)" fill="#ea7e53" opacity="0.3"/>
      <circle id="椭圆_139" data-name="椭圆 139" cx="8" cy="8" r="8" transform="translate(1277 1488.249)" fill="#ea7e53" opacity="0.3"/>
      <circle id="椭圆_142" data-name="椭圆 142" cx="8" cy="8" r="8" transform="translate(1407 1539.839)" fill="#ea7e53" opacity="0.3"/>
      <circle id="椭圆_143" data-name="椭圆 143" cx="8" cy="8" r="8" transform="translate(1537.5 1488.249)" fill="#ea7e53" opacity="0.3"/>
    </g>
    <g id="组_87" data-name="组 87" transform="translate(-32.921 1067.313)">
      <circle id="椭圆_144" data-name="椭圆 144" cx="11" cy="11" r="11" transform="translate(1143.669 1410.619)" fill="#90bdff" opacity="0.496"/>
      <circle id="椭圆_148" data-name="椭圆 148" cx="8" cy="8" r="8" transform="translate(1147 1413.932)" fill="#90bdff"/>
    </g>
    <circle id="椭圆_149" data-name="椭圆 149" cx="7.5" cy="7.5" r="7.5" transform="translate(1244 2481.432)" fill="#90bdff"/>
    <circle id="椭圆_150" data-name="椭圆 150" cx="8" cy="8" r="8" transform="translate(1373 2428.432)" fill="#90bdff"/>
    <circle id="椭圆_151" data-name="椭圆 151" cx="8" cy="8" r="8" transform="translate(1502 2428.432)" fill="#90bdff"/>
    <circle id="椭圆_154" data-name="椭圆 154" cx="8" cy="8" r="8" transform="translate(1114 2790.971)" fill="#b78dc1"/>
    <circle id="椭圆_155" data-name="椭圆 155" cx="8" cy="8" r="8" transform="translate(1502 2738.519)" fill="#b78dc1"/>
    <text id="_2022:_01.01-09.01_exclude_bots" data-name="* 2022: 01.01-09.01, exclude bots" transform="translate(1266.238 2921.5)" fill="#7c7c7c" font-size="16" font-family="JetBrainsMono-Regular, JetBrains Mono"><tspan x="0" y="0">* 2022: 01.01-09.01, exclude bots</tspan></text>
  </g>
</svg>
