<svg xmlns="http://www.w3.org/2000/svg" width="686.262" height="586.771" viewBox="0 0 686.262 586.771">
  <g id="Database_Chart" data-name="Database Chart" transform="translate(-997.257 -9216.543)">
    <g id="组_71" data-name="组 71" transform="translate(-52.48 3581.521)">
      <text id="Database" transform="translate(1356.5 5660.021)" fill="#fff" stroke="#fff" stroke-width="1" font-size="24" font-family="JetBrainsMono-SemiBold, JetBrains Mono" font-weight="600"><tspan x="0" y="0">Database</tspan></text>
      <text id="_2016" data-name="2016" transform="translate(1108.738 6173.021)" fill="#e0e0e0" font-size="20" font-family="JetBrainsMono-SemiBold, JetBrains Mono" font-weight="600"><tspan x="0" y="0">2016</tspan></text>
      <text id="_2017" data-name="2017" transform="translate(1204.738 6173.021)" fill="#e0e0e0" font-size="20" font-family="JetBrainsMono-SemiBold, JetBrains Mono" font-weight="600"><tspan x="0" y="0">2017</tspan></text>
      <text id="_2022" data-name="2022" transform="translate(1684.738 6173.021)" fill="#e0e0e0" font-size="20" font-family="JetBrainsMono-SemiBold, JetBrains Mono" font-weight="600"><tspan x="0" y="0">2022</tspan></text>
      <text id="_300_" data-name="300%" transform="translate(1050.238 5717.021)" fill="#e0e0e0" font-size="19" font-family="JetBrainsMono-Regular, JetBrains Mono"><tspan x="0" y="0">300%</tspan></text>
      <text id="_250_" data-name="250%" transform="translate(1049.738 5782.021)" fill="#e0e0e0" font-size="19" font-family="JetBrainsMono-Regular, JetBrains Mono"><tspan x="0" y="0">250%</tspan></text>
      <text id="_200_" data-name="200%" transform="translate(1050.238 5847.021)" fill="#e0e0e0" font-size="19" font-family="JetBrainsMono-Regular, JetBrains Mono"><tspan x="0" y="0">200%</tspan></text>
      <text id="_150_" data-name="150%" transform="translate(1050.238 5912.021)" fill="#e0e0e0" font-size="19" font-family="JetBrainsMono-Regular, JetBrains Mono"><tspan x="0" y="0">150%</tspan></text>
      <text id="_100_" data-name="100%" transform="translate(1050.238 5977.021)" fill="#e0e0e0" font-size="19" font-family="JetBrainsMono-Regular, JetBrains Mono"><tspan x="0" y="0">100%</tspan></text>
      <text id="_50_" data-name="50%" transform="translate(1061.738 6042.021)" fill="#e0e0e0" font-size="19" font-family="JetBrainsMono-Regular, JetBrains Mono"><tspan x="0" y="0">50%</tspan></text>
      <text id="_0_" data-name="0%" transform="translate(1072.738 6107.021)" fill="#e0e0e0" font-size="19" font-family="JetBrainsMono-Regular, JetBrains Mono"><tspan x="0" y="0">0%</tspan></text>
      <text id="_2018" data-name="2018" transform="translate(1300.738 6173.021)" fill="#e0e0e0" font-size="20" font-family="JetBrainsMono-SemiBold, JetBrains Mono" font-weight="600"><tspan x="0" y="0">2018</tspan></text>
      <text id="_2019" data-name="2019" transform="translate(1396.738 6173.021)" fill="#e0e0e0" font-size="20" font-family="JetBrainsMono-SemiBold, JetBrains Mono" font-weight="600"><tspan x="0" y="0">2019</tspan></text>
      <text id="_2020" data-name="2020" transform="translate(1492.738 6173.021)" fill="#e0e0e0" font-size="20" font-family="JetBrainsMono-SemiBold, JetBrains Mono" font-weight="600"><tspan x="0" y="0">2020</tspan></text>
      <text id="_2021" data-name="2021" transform="translate(1588.738 6173.021)" fill="#e0e0e0" font-size="20" font-family="JetBrainsMono-SemiBold, JetBrains Mono" font-weight="600"><tspan x="0" y="0">2021</tspan></text>
      <g id="组_68" data-name="组 68" opacity="0.496">
        <line id="直线_72" data-name="直线 72" y2="438" transform="translate(1132.738 5698.5)" fill="none" stroke="#bfbfbf" stroke-width="1" stroke-dasharray="4"/>
        <line id="直线_80" data-name="直线 80" x1="603.262" transform="translate(1132.738 5710.521)" fill="none" stroke="#bfbfbf" stroke-width="1" stroke-dasharray="4"/>
        <line id="直线_79" data-name="直线 79" x1="603.262" transform="translate(1132.5 5775.521)" fill="none" stroke="#bfbfbf" stroke-width="1" stroke-dasharray="4"/>
        <line id="直线_78" data-name="直线 78" x1="603.262" transform="translate(1132.738 5840.521)" fill="none" stroke="#bfbfbf" stroke-width="1" stroke-dasharray="4"/>
        <line id="直线_73" data-name="直线 73" x1="603.262" transform="translate(1132.738 5905.521)" fill="none" stroke="#bfbfbf" stroke-width="1" stroke-dasharray="4"/>
        <line id="直线_74" data-name="直线 74" x1="603.262" transform="translate(1132.738 5968)" fill="none" stroke="#bfbfbf" stroke-width="1" stroke-dasharray="4"/>
        <line id="直线_75" data-name="直线 75" x1="603.262" transform="translate(1132.738 6035.521)" fill="none" stroke="#bfbfbf" stroke-width="1" stroke-dasharray="4"/>
        <line id="直线_76" data-name="直线 76" x1="603.262" transform="translate(1132.5 6097.521)" fill="none" stroke="#bfbfbf" stroke-width="1" stroke-dasharray="4"/>
        <line id="直线_77" data-name="直线 77" y2="438" transform="translate(1228.738 5698.5)" fill="none" stroke="#bfbfbf" stroke-width="1" stroke-dasharray="4"/>
        <line id="直线_67" data-name="直线 67" y2="438" transform="translate(1324.738 5698.5)" fill="none" stroke="#bfbfbf" stroke-width="1" stroke-dasharray="4"/>
        <line id="直线_68" data-name="直线 68" y2="438" transform="translate(1420.738 5698.021)" fill="none" stroke="#bfbfbf" stroke-width="1" stroke-dasharray="4"/>
        <line id="直线_69" data-name="直线 69" y2="438" transform="translate(1516.738 5698.021)" fill="none" stroke="#bfbfbf" stroke-width="1" stroke-dasharray="4"/>
        <line id="直线_70" data-name="直线 70" y2="438" transform="translate(1612.738 5698.521)" fill="none" stroke="#bfbfbf" stroke-width="1" stroke-dasharray="4"/>
        <line id="直线_71" data-name="直线 71" y2="438" transform="translate(1708.738 5698.521)" fill="none" stroke="#bfbfbf" stroke-width="1" stroke-dasharray="4"/>
      </g>
      <circle id="椭圆_323" data-name="椭圆 323" cx="5" cy="5" r="5" transform="translate(1127.5 5923)" fill="#90bdff"/>
      <circle id="椭圆_330" data-name="椭圆 330" cx="5" cy="5" r="5" transform="translate(1127.5 6041)" fill="#ea7e53"/>
      <circle id="椭圆_337" data-name="椭圆 337" cx="5" cy="5" r="5" transform="translate(1127.5 6022.021)" fill="#b78dc1"/>
      <circle id="椭圆_344" data-name="椭圆 344" cx="5" cy="5" r="5" transform="translate(1127.5 6008.021)" fill="#91ca8c"/>
      <circle id="椭圆_345" data-name="椭圆 345" cx="5" cy="5" r="5" transform="translate(1223.738 6027.521)" fill="#91ca8c"/>
      <circle id="椭圆_338" data-name="椭圆 338" cx="5" cy="5" r="5" transform="translate(1223.738 6034.021)" fill="#b78dc1"/>
      <circle id="椭圆_339" data-name="椭圆 339" cx="5" cy="5" r="5" transform="translate(1319.738 6075.521)" fill="#b78dc1"/>
      <circle id="椭圆_340" data-name="椭圆 340" cx="5" cy="5" r="5" transform="translate(1415.797 6080.521)" fill="#b78dc1"/>
      <circle id="椭圆_331" data-name="椭圆 331" cx="5" cy="5" r="5" transform="translate(1223.738 6042.021)" fill="#ea7e53"/>
      <circle id="椭圆_332" data-name="椭圆 332" cx="5" cy="5" r="5" transform="translate(1319.5 6090.521)" fill="#ea7e53"/>
      <circle id="椭圆_333" data-name="椭圆 333" cx="5" cy="5" r="5" transform="translate(1415.738 6075.521)" fill="#ea7e53"/>
      <circle id="椭圆_341" data-name="椭圆 341" cx="5" cy="5" r="5" transform="translate(1511.797 6074.521)" fill="#b78dc1"/>
      <circle id="椭圆_342" data-name="椭圆 342" cx="5" cy="5" r="5" transform="translate(1607.738 6090.881)" fill="#b78dc1"/>
      <circle id="椭圆_343" data-name="椭圆 343" cx="5" cy="5" r="5" transform="translate(1703.738 6089.521)" fill="#b78dc1"/>
      <circle id="椭圆_334" data-name="椭圆 334" cx="5" cy="5" r="5" transform="translate(1511.5 6041)" fill="#ea7e53"/>
      <circle id="椭圆_335" data-name="椭圆 335" cx="5" cy="5" r="5" transform="translate(1607.738 6055)" fill="#ea7e53"/>
      <circle id="椭圆_336" data-name="椭圆 336" cx="5" cy="5" r="5" transform="translate(1704.094 6060)" fill="#ea7e53"/>
      <circle id="椭圆_324" data-name="椭圆 324" cx="5" cy="5" r="5" transform="translate(1223.5 5765.521)" fill="#90bdff"/>
      <circle id="椭圆_325" data-name="椭圆 325" cx="5" cy="5" r="5" transform="translate(1319.5 6080.521)" fill="#90bdff"/>
      <circle id="椭圆_326" data-name="椭圆 326" cx="5" cy="5" r="5" transform="translate(1415.5 6087.021)" fill="#90bdff"/>
      <circle id="椭圆_327" data-name="椭圆 327" cx="5" cy="5" r="5" transform="translate(1511.5 6023.021)" fill="#90bdff"/>
      <circle id="椭圆_328" data-name="椭圆 328" cx="5" cy="5" r="5" transform="translate(1607.738 6078.521)" fill="#90bdff"/>
      <circle id="椭圆_329" data-name="椭圆 329" cx="5" cy="5" r="5" transform="translate(1703.738 6083.521)" fill="#90bdff"/>
      <path id="路径_41" data-name="路径 41" d="M1063.5,5871.271l96.5-157.985,95.8,316.644,95.357,5.168,97.7-64.238,95.38,55.82,95.869,5.57" transform="translate(69 57)" fill="none" stroke="#90bdff" stroke-width="2"/>
      <path id="路径_42" data-name="路径 42" d="M1063.5,5989l95.935.914,95.954,48.967,96.649-14.692,96.1-35.343,95.4,14.416,96.8,5.128" transform="translate(69 57)" fill="none" stroke="#ea7e53" stroke-width="2"/>
      <path id="路径_43" data-name="路径 43" d="M1063.5,5970.021l96.151,12.568,95.872,41.26,95.947,5.961,96.3-5.961,95.872,15.122,96.159-1.408" transform="translate(69 57)" fill="none" stroke="#b78dc1" stroke-width="2"/>
      <circle id="椭圆_346" data-name="椭圆 346" cx="5" cy="5" r="5" transform="translate(1319.738 6077.021)" fill="#91ca8c"/>
      <circle id="椭圆_347" data-name="椭圆 347" cx="5" cy="5" r="5" transform="translate(1511.559 6085.021)" fill="#91ca8c"/>
      <circle id="椭圆_349" data-name="椭圆 349" cx="5" cy="5" r="5" transform="translate(1415.262 6050)" fill="#91ca8c"/>
      <circle id="椭圆_350" data-name="椭圆 350" cx="5" cy="5" r="5" transform="translate(1704.094 6045.496)" fill="#91ca8c"/>
      <circle id="椭圆_348" data-name="椭圆 348" cx="5" cy="5" r="5" transform="translate(1607.559 6083.521)" fill="#91ca8c"/>
      <path id="路径_44" data-name="路径 44" d="M1063.5,5956.021l95.673,19.67,96.153,50.205,97.265-27.741,95.344,35.122,96.263-1.836,96.121-38.025" transform="translate(69 57)" fill="none" stroke="#91ca8c" stroke-width="2"/>
    </g>
    <g id="组_93" data-name="组 93" transform="translate(837.638 4183.293)">
      <circle id="椭圆_397" data-name="椭圆 397" cx="5" cy="5" r="5" transform="translate(258.809 5604.021)" fill="#90bdff"/>
      <text id="New_repos" data-name="New repos" transform="translate(276.547 5614.521)" fill="#bfbfbf" font-size="16" font-family="JetBrainsMono-Regular, JetBrains Mono"><tspan x="0" y="0">New repos</tspan></text>
      <g id="椭圆_395" data-name="椭圆 395" transform="translate(518.31 5604.521)" fill="#b78dc1" stroke="#b78dc1" stroke-width="1">
        <circle cx="5" cy="5" r="5" stroke="none"/>
        <circle cx="5" cy="5" r="4.5" fill="none"/>
      </g>
      <text id="New_developers" data-name="New developers" transform="translate(536.31 5615.021)" fill="#bfbfbf" font-size="16" font-family="JetBrainsMono-Regular, JetBrains Mono"><tspan x="0" y="0">New developers</tspan></text>
      <g id="椭圆_396" data-name="椭圆 396" transform="translate(383.928 5604.021)" fill="#ea7e53" stroke="#ea7e53" stroke-width="1">
        <circle cx="5" cy="5" r="5" stroke="none"/>
        <circle cx="5" cy="5" r="4.5" fill="none"/>
      </g>
      <text id="New_events" data-name="New events" transform="translate(401.928 5615.021)" fill="#bfbfbf" font-size="16" font-family="JetBrainsMono-Regular, JetBrains Mono"><tspan x="0" y="0">New events</tspan></text>
      <g id="椭圆_394" data-name="椭圆 394" transform="translate(691.691 5605.021)" fill="#91ca8c" stroke="#90ca8b" stroke-width="1">
        <circle cx="5" cy="5" r="5" stroke="none"/>
        <circle cx="5" cy="5" r="4.5" fill="none"/>
      </g>
      <text id="New_stars" data-name="New stars" transform="translate(709.429 5615.021)" fill="#bfbfbf" font-size="16" font-family="JetBrainsMono-Regular, JetBrains Mono"><tspan x="0" y="0">New stars</tspan></text>
    </g>
  </g>
</svg>
