<svg xmlns="http://www.w3.org/2000/svg" width="656" height="923" viewBox="0 0 656 923">
  <g id="组_113" data-name="组 113" transform="translate(-1061.77 -1959.159)">
    <text id="_" data-name="😞" transform="translate(1593.77 2702.158)" fill="#fff" stroke="#fff" stroke-width="1" font-size="24" font-family="AppleColorEmoji, Apple Color Emoji"><tspan x="0" y="0">😞</tspan></text>
    <text id="_2" data-name="😄" transform="translate(1655.77 2280.158)" fill="#fff" stroke="#fff" stroke-width="1" font-size="24" font-family="AppleColorEmoji, Apple Color Emoji"><tspan x="0" y="0">😄</tspan></text>
    <text id="_3" data-name="😄" transform="translate(1593.77 2742.158)" fill="#fff" stroke="#fff" stroke-width="1" font-size="24" font-family="AppleColorEmoji, Apple Color Emoji"><tspan x="0" y="0">😄</tspan></text>
    <text id="_1" data-name="1" transform="translate(1061.77 2023.158)" fill="#e0e0e0" font-size="19" font-family="JetBrainsMono-Regular, JetBrains Mono"><tspan x="0" y="0">1</tspan></text>
    <text id="_2-2" data-name="2" transform="translate(1061.77 2075.158)" fill="#e0e0e0" font-size="19" font-family="JetBrainsMono-Regular, JetBrains Mono"><tspan x="0" y="0">2</tspan></text>
    <text id="_3-2" data-name="3" transform="translate(1061.77 2126.158)" fill="#e0e0e0" font-size="19" font-family="JetBrainsMono-Regular, JetBrains Mono"><tspan x="0" y="0">3</tspan></text>
    <text id="_4" data-name="4" transform="translate(1061.77 2178.158)" fill="#e0e0e0" font-size="19" font-family="JetBrainsMono-Regular, JetBrains Mono"><tspan x="0" y="0">4</tspan></text>
    <text id="_5" data-name="5" transform="translate(1061.77 2230.158)" fill="#e0e0e0" font-size="19" font-family="JetBrainsMono-Regular, JetBrains Mono"><tspan x="0" y="0">5</tspan></text>
    <text id="_6" data-name="6" transform="translate(1061.77 2281.158)" fill="#e0e0e0" font-size="19" font-family="JetBrainsMono-Regular, JetBrains Mono"><tspan x="0" y="0">6</tspan></text>
    <text id="_7" data-name="7" transform="translate(1061.77 2333.158)" fill="#e0e0e0" font-size="19" font-family="JetBrainsMono-Regular, JetBrains Mono"><tspan x="0" y="0">7</tspan></text>
    <text id="_8" data-name="8" transform="translate(1061.77 2384.158)" fill="#e0e0e0" font-size="19" font-family="JetBrainsMono-Regular, JetBrains Mono"><tspan x="0" y="0">8</tspan></text>
    <text id="_9" data-name="9" transform="translate(1061.77 2436.158)" fill="#e0e0e0" font-size="19" font-family="JetBrainsMono-Regular, JetBrains Mono"><tspan x="0" y="0">9</tspan></text>
    <text id="_10" data-name="10" transform="translate(1061.77 2488.158)" fill="#e0e0e0" font-size="19" font-family="JetBrainsMono-Regular, JetBrains Mono"><tspan x="0" y="0">10</tspan></text>
    <text id="_11" data-name="11" transform="translate(1061.77 2539.158)" fill="#e0e0e0" font-size="19" font-family="JetBrainsMono-Regular, JetBrains Mono"><tspan x="0" y="0">11</tspan></text>
    <text id="_12" data-name="12" transform="translate(1061.77 2591.158)" fill="#e0e0e0" font-size="19" font-family="JetBrainsMono-Regular, JetBrains Mono"><tspan x="0" y="0">12</tspan></text>
    <text id="_39" data-name="39" transform="translate(1066.77 2858.158)" fill="#e0e0e0" font-size="19" font-family="JetBrainsMono-Regular, JetBrains Mono"><tspan x="0" y="0">39</tspan></text>
    <text id="_17" data-name="17" transform="translate(1061.77 2699.158)" fill="#e0e0e0" font-size="19" font-family="JetBrainsMono-Regular, JetBrains Mono"><tspan x="0" y="0">17</tspan></text>
    <text id="_19" data-name="19" transform="translate(1061.77 2738.158)" fill="#e0e0e0" font-size="19" font-family="JetBrainsMono-Regular, JetBrains Mono"><tspan x="0" y="0">19</tspan></text>
    <text id="_2019" data-name="2019" transform="translate(1093.77 1981.158)" fill="#e0e0e0" font-size="22" font-family="JetBrainsMono-SemiBold, JetBrains Mono" font-weight="600"><tspan x="0" y="0">2019</tspan></text>
    <text id="_2020" data-name="2020" transform="translate(1223.77 1981.158)" fill="#e0e0e0" font-size="22" font-family="JetBrainsMono-SemiBold, JetBrains Mono" font-weight="600"><tspan x="0" y="0">2020</tspan></text>
    <text id="_2021" data-name="2021" transform="translate(1352.77 1981.158)" fill="#e0e0e0" font-size="22" font-family="JetBrainsMono-SemiBold, JetBrains Mono" font-weight="600"><tspan x="0" y="0">2021</tspan></text>
    <text id="_2022" data-name="2022" transform="translate(1481.77 1981.158)" fill="#e0e0e0" font-size="22" font-family="JetBrainsMono-SemiBold, JetBrains Mono" font-weight="600"><tspan x="0" y="0">2022</tspan></text>
    <text id="JavaScript" transform="translate(1534.77 2020.158)" fill="#dd6b66" font-size="19" font-family="JetBrainsMono-Bold, JetBrains Mono" font-weight="700"><tspan x="0" y="0">JavaScript</tspan></text>
    <text id="HTML" transform="translate(1534.77 2072.158)" fill="#7289ab" font-size="19" font-family="JetBrainsMono-Bold, JetBrains Mono" font-weight="700"><tspan x="0" y="0">HTML</tspan></text>
    <text id="Python" transform="translate(1534.77 2123.158)" fill="#73b9bc" font-size="19" font-family="JetBrainsMono-Bold, JetBrains Mono" font-weight="700"><tspan x="0" y="0">Python</tspan></text>
    <text id="Java" transform="translate(1534.77 2175.158)" fill="#eedd78" font-size="19" font-family="JetBrainsMono-Regular, JetBrains Mono" opacity="0.294"><tspan x="0" y="0">Java</tspan></text>
    <text id="CSS" transform="translate(1534.77 2226.158)" fill="#73a373" font-size="19" font-family="JetBrainsMono-Regular, JetBrains Mono" opacity="0.294"><tspan x="0" y="0">CSS</tspan></text>
    <text id="TypeScript" transform="translate(1534.77 2278.158)" fill="#90bdff" font-size="19" font-family="JetBrainsMono-Bold, JetBrains Mono" font-weight="700" opacity="0.75"><tspan x="0" y="0">TypeScript</tspan></text>
    <text id="Jupyter_Notebook" data-name="Jupyter Notebook" transform="translate(1534.77 2330.158)" fill="#e69d87" font-size="19" font-family="JetBrainsMono-Regular, JetBrains Mono" opacity="0.297"><tspan x="0" y="0">Jupyter Notebook</tspan></text>
    <text id="C_" data-name="C#" transform="translate(1534.77 2381.158)" fill="#74999f" font-size="19" font-family="JetBrainsMono-Regular, JetBrains Mono" opacity="0.304"><tspan x="0" y="0">C#</tspan></text>
    <text id="C_2" data-name="C++" transform="translate(1534.77 2433.158)" fill="#ea7e53" font-size="19" font-family="JetBrainsMono-Regular, JetBrains Mono" opacity="0.304"><tspan x="0" y="0">C++</tspan></text>
    <text id="PHP" transform="translate(1534.77 2484.158)" fill="#91ca8c" font-size="19" font-family="JetBrainsMono-Regular, JetBrains Mono" opacity="0.304"><tspan x="0" y="0">PHP</tspan></text>
    <text id="C" transform="translate(1534.77 2536.158)" fill="#b78dc1" font-size="19" font-family="JetBrainsMono-Regular, JetBrains Mono" opacity="0.304"><tspan x="0" y="0">C</tspan></text>
    <text id="Shell" transform="translate(1534.77 2588.158)" fill="#91ca8c" font-size="19" font-family="JetBrainsMono-Regular, JetBrains Mono" opacity="0.304"><tspan x="0" y="0">Shell</tspan></text>
    <text id="Ruby" transform="translate(1531.77 2699.158)" fill="#a5c18d" font-size="19" font-family="JetBrainsMono-Bold, JetBrains Mono" font-weight="700"><tspan x="0" y="0">Ruby</tspan></text>
    <text id="SCSS" transform="translate(1531.77 2740.158)" fill="#c1af8d" font-size="19" font-family="JetBrainsMono-Bold, JetBrains Mono" font-weight="700"><tspan x="0" y="0">SCSS</tspan></text>
    <line id="直线_1" data-name="直线 1" x2="441.292" transform="translate(1093.929 2013.526)" fill="none" stroke="#383838" stroke-width="1"/>
    <line id="直线_1-2" data-name="直线 1" x2="441.292" transform="translate(1093.929 2065.116)" fill="none" stroke="#383838" stroke-width="1"/>
    <line id="直线_1-3" data-name="直线 1" x2="441.292" transform="translate(1093.929 2116.706)" fill="none" stroke="#383838" stroke-width="1"/>
    <line id="直线_1-4" data-name="直线 1" x2="441.292" transform="translate(1093.929 2168.296)" fill="none" stroke="#383838" stroke-width="1"/>
    <line id="直线_1-5" data-name="直线 1" x2="441.292" transform="translate(1093.929 2219.885)" fill="none" stroke="#383838" stroke-width="1"/>
    <line id="直线_1-6" data-name="直线 1" x2="441.292" transform="translate(1093.929 2271.475)" fill="none" stroke="#383838" stroke-width="1"/>
    <line id="直线_1-7" data-name="直线 1" x2="441.292" transform="translate(1093.929 2323.065)" fill="none" stroke="#383838" stroke-width="1"/>
    <line id="直线_1-8" data-name="直线 1" x2="441.292" transform="translate(1093.929 2374.655)" fill="none" stroke="#383838" stroke-width="1"/>
    <line id="直线_1-9" data-name="直线 1" x2="441.292" transform="translate(1093.929 2426.245)" fill="none" stroke="#383838" stroke-width="1"/>
    <line id="直线_1-10" data-name="直线 1" x2="441.292" transform="translate(1093.929 2477.835)" fill="none" stroke="#383838" stroke-width="1"/>
    <line id="直线_8" data-name="直线 8" x2="441.292" transform="translate(1093.929 2529.425)" fill="none" stroke="#383838" stroke-width="1"/>
    <line id="直线_9" data-name="直线 9" x2="441.292" transform="translate(1093.929 2581.014)" fill="none" stroke="#383838" stroke-width="1"/>
    <circle id="椭圆_18" data-name="椭圆 18" cx="11" cy="11" r="11" transform="translate(1109.77 2002.158)" fill="#dd6b66" opacity="0.496"/>
    <ellipse id="椭圆_19" data-name="椭圆 19" cx="11.5" cy="11" rx="11.5" ry="11" transform="translate(1238.77 2002.158)" fill="#dd6b66" opacity="0.496"/>
    <circle id="椭圆_20" data-name="椭圆 20" cx="11" cy="11" r="11" transform="translate(1368.77 2002.158)" fill="#dd6b66" opacity="0.496"/>
    <circle id="椭圆_21" data-name="椭圆 21" cx="11" cy="11" r="11" transform="translate(1497.77 2002.158)" fill="#dd6b66" opacity="0.496"/>
    <circle id="椭圆_1" data-name="椭圆 1" cx="8" cy="8" r="8" transform="translate(1112.77 2108.158)" fill="#eedd78" opacity="0.294"/>
    <ellipse id="椭圆_2" data-name="椭圆 2" cx="7.5" cy="8" rx="7.5" ry="8" transform="translate(1242.77 2108.158)" fill="#eedd78" opacity="0.294"/>
    <ellipse id="椭圆_7" data-name="椭圆 7" cx="8" cy="7.5" rx="8" ry="7.5" transform="translate(1371.77 2161.158)" fill="#eedd78" opacity="0.294"/>
    <ellipse id="椭圆_8" data-name="椭圆 8" cx="8" cy="7.5" rx="8" ry="7.5" transform="translate(1500.77 2161.158)" fill="#eedd78" opacity="0.294"/>
    <circle id="椭圆_1-2" data-name="椭圆 1" cx="8" cy="8" r="8" transform="translate(1112.77 2211.158)" fill="#e69d87" opacity="0.294"/>
    <circle id="椭圆_5" data-name="椭圆 5" cx="8" cy="8" r="8" transform="translate(1112.77 2264.158)" fill="#74999f" opacity="0.3"/>
    <ellipse id="椭圆_2-2" data-name="椭圆 2" cx="7.5" cy="8" rx="7.5" ry="8" transform="translate(1242.77 2211.158)" fill="#e69d87" opacity="0.294"/>
    <ellipse id="椭圆_6" data-name="椭圆 6" cx="7.5" cy="8" rx="7.5" ry="8" transform="translate(1242.77 2264.158)" fill="#73a373" opacity="0.296"/>
    <circle id="椭圆_3" data-name="椭圆 3" cx="8" cy="8" r="8" transform="translate(1371.77 2211.158)" fill="#73a373" opacity="0.294"/>
    <circle id="椭圆_7-2" data-name="椭圆 7" cx="8" cy="8" r="8" transform="translate(1371.77 2264.158)" fill="#e69d87" opacity="0.297"/>
    <circle id="椭圆_4" data-name="椭圆 4" cx="8" cy="8" r="8" transform="translate(1500.77 2211.158)" fill="#73a373" opacity="0.294"/>
    <circle id="椭圆_8-2" data-name="椭圆 8" cx="8" cy="8" r="8" transform="translate(1500.77 2264.158)" fill="#90bdff" opacity="0.75"/>
    <ellipse id="椭圆_1-3" data-name="椭圆 1" cx="8" cy="7.5" rx="8" ry="7.5" transform="translate(1112.77 2315.158)" fill="#73a373" opacity="0.296"/>
    <circle id="椭圆_5-2" data-name="椭圆 5" cx="8" cy="8" r="8" transform="translate(1112.77 2367.158)" fill="#ea7e53" opacity="0.304"/>
    <circle id="椭圆_2-3" data-name="椭圆 2" cx="7.5" cy="7.5" r="7.5" transform="translate(1242.77 2315.158)" fill="#74999f" opacity="0.3"/>
    <circle id="椭圆_14" data-name="椭圆 14" cx="11" cy="11" r="11" transform="translate(1239.77 2364.158)" fill="#90bdff" opacity="0.299"/>
    <ellipse id="椭圆_16" data-name="椭圆 16" cx="11" cy="11.5" rx="11" ry="11.5" transform="translate(1368.77 2311.158)" fill="#90bdff" opacity="0.299"/>
    <circle id="椭圆_17" data-name="椭圆 17" cx="11" cy="11" r="11" transform="translate(1497.77 2261.158)" fill="#90bdff" opacity="0.299"/>
    <ellipse id="椭圆_3-2" data-name="椭圆 3" cx="8" cy="7.5" rx="8" ry="7.5" transform="translate(1371.77 2315.158)" fill="#90bdff" opacity="0.75"/>
    <circle id="椭圆_7-3" data-name="椭圆 7" cx="8" cy="8" r="8" transform="translate(1371.77 2367.158)" fill="#74999f" opacity="0.3"/>
    <ellipse id="椭圆_4-2" data-name="椭圆 4" cx="8" cy="7.5" rx="8" ry="7.5" transform="translate(1500.77 2315.158)" fill="#e69d87" opacity="0.297"/>
    <circle id="椭圆_8-3" data-name="椭圆 8" cx="8" cy="8" r="8" transform="translate(1500.77 2367.158)" fill="#74999f" opacity="0.3"/>
    <circle id="椭圆_1-4" data-name="椭圆 1" cx="8" cy="8" r="8" transform="translate(1112.77 2418.158)" fill="#91ca8c" opacity="0.304"/>
    <circle id="椭圆_5-3" data-name="椭圆 5" cx="8" cy="8" r="8" transform="translate(1112.77 2521.158)" fill="#b78dc1" opacity="0.3"/>
    <circle id="椭圆_41" data-name="椭圆 41" cx="8" cy="8" r="8" transform="translate(1112.77 2573.158)" fill="#a5c18d"/>
    <circle id="椭圆_36" data-name="椭圆 36" cx="8" cy="8" r="8" transform="translate(1113.77 2684.158)" fill="#888" opacity="0.304"/>
    <circle id="椭圆_59" data-name="椭圆 59" cx="8" cy="8" r="8" transform="translate(1113.77 2723.158)" fill="#888" opacity="0.304"/>
    <circle id="椭圆_9" data-name="椭圆 9" cx="8" cy="8" r="8" transform="translate(1113.77 2843.158)" fill="#c1af8d"/>
    <circle id="椭圆_60" data-name="椭圆 60" cx="8" cy="8" r="8" transform="translate(1501.77 2725.158)" fill="#c1af8d"/>
    <circle id="椭圆_13" data-name="椭圆 13" cx="8" cy="8" r="8" transform="translate(1501.77 2685.158)" fill="#a5c18d"/>
    <ellipse id="椭圆_2-4" data-name="椭圆 2" cx="7.5" cy="8" rx="7.5" ry="8" transform="translate(1242.77 2418.158)" fill="#ea7e53" opacity="0.305"/>
    <ellipse id="椭圆_6-2" data-name="椭圆 6" cx="7.5" cy="8" rx="7.5" ry="8" transform="translate(1242.77 2470.158)" fill="#91ca8c" opacity="0.305"/>
    <ellipse id="椭圆_38" data-name="椭圆 38" cx="7.5" cy="8" rx="7.5" ry="8" transform="translate(1242.77 2522.158)" fill="#a5c18d"/>
    <ellipse id="椭圆_42" data-name="椭圆 42" cx="7.5" cy="8" rx="7.5" ry="8" transform="translate(1242.77 2573.158)" fill="#b78dc1" opacity="0.3"/>
    <circle id="椭圆_3-3" data-name="椭圆 3" cx="8" cy="8" r="8" transform="translate(1371.77 2418.158)" fill="#91ca8c" opacity="0.305"/>
    <circle id="椭圆_7-4" data-name="椭圆 7" cx="8" cy="8" r="8" transform="translate(1371.77 2470.158)" fill="#ea7e53" opacity="0.305"/>
    <circle id="椭圆_39" data-name="椭圆 39" cx="8" cy="8" r="8" transform="translate(1371.77 2522.158)" fill="#b78dc1" opacity="0.3"/>
    <circle id="椭圆_43" data-name="椭圆 43" cx="8" cy="8" r="8" transform="translate(1371.77 2573.158)" fill="#a5c18d"/>
    <circle id="椭圆_4-3" data-name="椭圆 4" cx="8" cy="8" r="8" transform="translate(1500.77 2418.158)" fill="#ea7e53" opacity="0.304"/>
    <circle id="椭圆_8-4" data-name="椭圆 8" cx="8" cy="8" r="8" transform="translate(1500.77 2470.158)" fill="#91ca8c" opacity="0.304"/>
    <circle id="椭圆_40" data-name="椭圆 40" cx="8" cy="8" r="8" transform="translate(1500.77 2522.158)" fill="#b78dc1" opacity="0.3"/>
    <circle id="椭圆_44" data-name="椭圆 44" cx="8" cy="8" r="8" transform="translate(1500.77 2573.158)" fill="#91ca8c" opacity="0.304"/>
    <line id="直线_3" data-name="直线 3" y1="0.794" x2="388.908" transform="translate(1120.518 2065.116)" fill="none" stroke="#7788a8" stroke-width="5"/>
    <path id="路径_1" data-name="路径 1" d="M1186.5,418h130.148l129.3,52.365h130.23" transform="translate(-65.982 1698.309)" fill="none" stroke="#ebde86" stroke-width="3" opacity="0.294"/>
    <path id="路径_2" data-name="路径 2" d="M1186.5,404.532h130.148L1445.7,352.718h129.629" transform="translate(-65.585 1764.161)" fill="none" stroke="#73b9bc" stroke-width="5"/>
    <path id="路径_3" data-name="路径 3" d="M1186.5,418h130.148l129.392,53.235,128.6,51.325" transform="translate(-65.137 1801.489)" fill="none" stroke="#e69d87" stroke-width="3" opacity="0.294"/>
    <path id="路径_4" data-name="路径 4" d="M1186.5,418l130.344,51.181,129.55,53.38h127.544" transform="translate(-65.994 1853.648)" fill="none" stroke="#74999f" stroke-width="3" opacity="0.304"/>
    <path id="路径_5" data-name="路径 5" d="M1186.5,391.691,1317,342.7l129.836-52.223h128.731" transform="translate(-65.994 1929.596)" fill="none" stroke="#73a373" stroke-width="3" opacity="0.294"/>
    <path id="路径_9" data-name="路径 9" d="M1187.5,320.043l387.4-117.855" transform="translate(-65.083 2531.385)" fill="none" stroke="#beb091" stroke-width="5"/>
    <path id="路径_8" data-name="路径 8" d="M1349.334,332.791l129.27-52.545,130.185-51.069" transform="translate(-98.732 2043.455)" fill="none" stroke="#90bdff" stroke-width="5"/>
    <path id="路径_6" data-name="路径 6" d="M1186.5,418l132.1,51.4,129.238,52.322L1576.718,469.4" transform="translate(-66.812 1958.209)" fill="none" stroke="#ea7e53" stroke-width="3" opacity="0.305"/>
    <path id="路径_12" data-name="路径 12" d="M1185.536,469.4l131.153,52.322L1447.45,469.4h129.268" transform="translate(-65.137 2060.026)" fill="none" stroke="#b08fbe" stroke-width="3" opacity="0.305"/>
    <path id="路径_7" data-name="路径 7" d="M1186.5,418l130.756,51.4L1446.451,418l129.261,51.4" transform="translate(-66.637 2007.848)" fill="none" stroke="#91ca8c" stroke-width="3" opacity="0.304"/>
    <path id="路径_11" data-name="路径 11" d="M1191.661,404.512l129.828-51.89,129.554,51.89L1580.2,517.434" transform="translate(-70.618 2177.205)" fill="none" stroke="#aac092" stroke-width="5" opacity="0.76"/>
    <line id="直线_4" data-name="直线 4" y2="72" transform="translate(1121.77 2600.158)" fill="none" stroke="#565656" stroke-width="1" stroke-dasharray="4"/>
    <line id="直线_7" data-name="直线 7" y2="354.613" transform="translate(1491.821 2693.377) rotate(90)" fill="none" stroke="#383838" stroke-width="1" stroke-dasharray="4"/>
    <line id="直线_7-2" data-name="直线 7" y2="354.613" transform="translate(1491.821 2733.035) rotate(90)" fill="none" stroke="#383838" stroke-width="1" stroke-dasharray="4"/>
    <circle id="椭圆_15" data-name="椭圆 15" cx="8" cy="8" r="8" transform="translate(1242.77 2367.158)" fill="#90bdff" opacity="0.75"/>
    <circle id="椭圆_22" data-name="椭圆 22" cx="8" cy="8" r="8" transform="translate(1112.77 2005.158)" fill="#dd6b66"/>
    <ellipse id="椭圆_23" data-name="椭圆 23" cx="7.5" cy="8" rx="7.5" ry="8" transform="translate(1242.77 2005.158)" fill="#dd6b66"/>
    <circle id="椭圆_24" data-name="椭圆 24" cx="8" cy="8" r="8" transform="translate(1371.77 2005.158)" fill="#dd6b66"/>
    <circle id="椭圆_25" data-name="椭圆 25" cx="8" cy="8" r="8" transform="translate(1500.77 2005.158)" fill="#dd6b66"/>
    <line id="直线_6" data-name="直线 6" y1="1" x2="389" transform="translate(1119.77 2013.158)" fill="none" stroke="#cf716a" stroke-width="5"/>
    <circle id="椭圆_26" data-name="椭圆 26" cx="11" cy="11" r="11" transform="translate(1109.77 2054.158)" fill="#757892" opacity="0.496"/>
    <ellipse id="椭圆_51" data-name="椭圆 51" cx="11" cy="11.5" rx="11" ry="11.5" transform="translate(1109.77 2157.158)" fill="#73b9bc" opacity="0.496"/>
    <circle id="椭圆_27" data-name="椭圆 27" cx="8" cy="8" r="8" transform="translate(1112.77 2057.158)" fill="#7289ab" opacity="0.75"/>
    <ellipse id="椭圆_28" data-name="椭圆 28" cx="11.5" cy="11" rx="11.5" ry="11" transform="translate(1238.77 2054.158)" fill="#757892" opacity="0.496"/>
    <circle id="椭圆_52" data-name="椭圆 52" cx="11.5" cy="11.5" r="11.5" transform="translate(1238.77 2157.158)" fill="#73b9bc" opacity="0.496"/>
    <ellipse id="椭圆_29" data-name="椭圆 29" cx="7.5" cy="8" rx="7.5" ry="8" transform="translate(1242.77 2057.158)" fill="#7289ab" opacity="0.75"/>
    <circle id="椭圆_30" data-name="椭圆 30" cx="11" cy="11" r="11" transform="translate(1368.77 2054.158)" fill="#757892" opacity="0.496"/>
    <circle id="椭圆_53" data-name="椭圆 53" cx="11" cy="11" r="11" transform="translate(1368.77 2105.158)" fill="#73b9bc" opacity="0.496"/>
    <circle id="椭圆_31" data-name="椭圆 31" cx="8" cy="8" r="8" transform="translate(1371.77 2057.158)" fill="#7289ab" opacity="0.75"/>
    <circle id="椭圆_32" data-name="椭圆 32" cx="11" cy="11" r="11" transform="translate(1497.77 2054.158)" fill="#757892" opacity="0.496"/>
    <circle id="椭圆_54" data-name="椭圆 54" cx="11" cy="11" r="11" transform="translate(1497.77 2105.158)" fill="#73b9bc" opacity="0.496"/>
    <circle id="椭圆_33" data-name="椭圆 33" cx="8" cy="8" r="8" transform="translate(1500.77 2057.158)" fill="#7289ab" opacity="0.75"/>
    <path id="路径_10" data-name="路径 10" d="M1097.481,751.937l129.505-100.552" transform="translate(24.708 1723.973)" fill="none" stroke="#99bcfa" stroke-width="5"/>
    <circle id="椭圆_61" data-name="椭圆 61" cx="11" cy="11" r="11" transform="translate(1109.77 2570.158)" fill="#9fc0af" opacity="0.299"/>
    <circle id="椭圆_65" data-name="椭圆 65" cx="11" cy="11" r="11" transform="translate(1110.77 2840.158)" fill="#b7b497" opacity="0.299"/>
    <circle id="椭圆_66" data-name="椭圆 66" cx="11" cy="11" r="11" transform="translate(1498.77 2722.158)" fill="#b7b497" opacity="0.299"/>
    <ellipse id="椭圆_62" data-name="椭圆 62" cx="11.5" cy="11" rx="11.5" ry="11" transform="translate(1238.77 2519.158)" fill="#9fc0af" opacity="0.299"/>
    <circle id="椭圆_63" data-name="椭圆 63" cx="11" cy="11" r="11" transform="translate(1368.77 2570.158)" fill="#9fc0af" opacity="0.299"/>
    <circle id="椭圆_64" data-name="椭圆 64" cx="11" cy="11" r="11" transform="translate(1498.77 2682.158)" fill="#9fc0af" opacity="0.299"/>
    <g id="组_79" data-name="组 79" transform="translate(-24.23 1892.158)">
      <circle id="椭圆_49" data-name="椭圆 49" cx="11" cy="11" r="11" transform="translate(1135 573)" fill="#90bdff" opacity="0.299"/>
      <circle id="椭圆_50" data-name="椭圆 50" cx="8" cy="8" r="8" transform="translate(1138 576)" fill="#90bdff" opacity="0.75"/>
    </g>
    <ellipse id="椭圆_55" data-name="椭圆 55" cx="8" cy="7.5" rx="8" ry="7.5" transform="translate(1112.77 2161.158)" fill="#73b9bc"/>
    <circle id="椭圆_56" data-name="椭圆 56" cx="7.5" cy="7.5" r="7.5" transform="translate(1242.77 2161.158)" fill="#73b9bc"/>
    <circle id="椭圆_57" data-name="椭圆 57" cx="8" cy="8" r="8" transform="translate(1371.77 2108.158)" fill="#73b9bc"/>
    <circle id="椭圆_58" data-name="椭圆 58" cx="8" cy="8" r="8" transform="translate(1500.77 2108.158)" fill="#73b9bc"/>
    <line id="直线_10" data-name="直线 10" y2="14" transform="translate(1121.77 2705.158)" fill="none" stroke="#565656" stroke-width="1" stroke-dasharray="4"/>
    <line id="直线_11" data-name="直线 11" x1="1" y2="88" transform="translate(1120.77 2746.158)" fill="none" stroke="#565656" stroke-width="1" stroke-dasharray="4"/>
    <text id="_2022:_01.01-09.01_exclude_fork_repositories" data-name="* 2022: 01.01-09.01, exclude fork repositories" transform="translate(1229.77 2877.158)" fill="#7c7c7c" font-size="16" font-family="JetBrainsMono-Regular, JetBrains Mono"><tspan x="0" y="0">* 2022: 01.01-09.01, exclude fork repositories</tspan></text>
  </g>
</svg>
