<svg xmlns="http://www.w3.org/2000/svg" width="685.762" height="607" viewBox="0 0 685.762 607">
  <g id="Low_Code_Chart" data-name="Low Code Chart" transform="translate(-142.257 -6948.021)">
    <g id="组_73" data-name="组 73" transform="translate(-33.48 1985)">
      <text id="Low_Code" data-name="Low Code" transform="translate(455 4988.021)" fill="#fff" stroke="#fff" stroke-width="1" font-size="24" font-family="JetBrainsMono-SemiBold, JetBrains Mono" font-weight="600"><tspan x="0" y="0">Low Code</tspan></text>
      <text id="_2016" data-name="2016" transform="translate(234.238 5497.021)" fill="#e0e0e0" font-size="20" font-family="JetBrainsMono-SemiBold, JetBrains Mono" font-weight="600"><tspan x="0" y="0">2016</tspan></text>
      <text id="_2017" data-name="2017" transform="translate(330.238 5497.021)" fill="#e0e0e0" font-size="20" font-family="JetBrainsMono-SemiBold, JetBrains Mono" font-weight="600"><tspan x="0" y="0">2017</tspan></text>
      <text id="_2022" data-name="2022" transform="translate(810.238 5497.021)" fill="#e0e0e0" font-size="20" font-family="JetBrainsMono-SemiBold, JetBrains Mono" font-weight="600"><tspan x="0" y="0">2022</tspan></text>
      <text id="_350_" data-name="350%" transform="translate(175.738 5041.021)" fill="#e0e0e0" font-size="19" font-family="JetBrainsMono-Regular, JetBrains Mono"><tspan x="0" y="0">350%</tspan></text>
      <text id="_334.4_" data-name="334.4%" transform="translate(558.369 5068.021)" fill="#90bdff" font-size="19" font-family="JetBrainsMono-Bold, JetBrains Mono" font-weight="700"><tspan x="0" y="0">334.4%</tspan></text>
      <text id="_300_" data-name="300%
" transform="translate(175.738 5093.021)" fill="#e0e0e0" font-size="19" font-family="JetBrainsMono-Regular, JetBrains Mono"><tspan x="0" y="0">300%</tspan><tspan x="0" y="25"></tspan></text>
      <text id="_250_" data-name="250%" transform="translate(175.738 5142.021)" fill="#e0e0e0" font-size="19" font-family="JetBrainsMono-Regular, JetBrains Mono"><tspan x="0" y="0">250%</tspan></text>
      <text id="_200_" data-name="200%" transform="translate(175.738 5192.021)" fill="#e0e0e0" font-size="19" font-family="JetBrainsMono-Regular, JetBrains Mono"><tspan x="0" y="0">200%</tspan></text>
      <text id="_150_" data-name="150%" transform="translate(175.738 5242.021)" fill="#e0e0e0" font-size="19" font-family="JetBrainsMono-Regular, JetBrains Mono"><tspan x="0" y="0">150%</tspan></text>
      <text id="_100_" data-name="100%" transform="translate(175.738 5292.021)" fill="#e0e0e0" font-size="19" font-family="JetBrainsMono-Regular, JetBrains Mono"><tspan x="0" y="0">100%</tspan></text>
      <text id="_50_" data-name="50%" transform="translate(187.238 5342.021)" fill="#e0e0e0" font-size="19" font-family="JetBrainsMono-Regular, JetBrains Mono"><tspan x="0" y="0">50%</tspan></text>
      <text id="_0_" data-name="0%" transform="translate(198.238 5394.021)" fill="#e0e0e0" font-size="19" font-family="JetBrainsMono-Regular, JetBrains Mono"><tspan x="0" y="0">0%</tspan></text>
      <text id="_-50_" data-name="-50%" transform="translate(175.738 5441.021)" fill="#e0e0e0" font-size="19" font-family="JetBrainsMono-Regular, JetBrains Mono"><tspan x="0" y="0">-50%</tspan></text>
      <g id="组_66" data-name="组 66" opacity="0.503">
        <line id="直线_44" data-name="直线 44" y2="438" transform="translate(258.238 5022.5)" fill="none" stroke="#bfbfbf" stroke-width="1" stroke-dasharray="4"/>
        <line id="直线_58" data-name="直线 58" x1="603.262" transform="translate(255.238 5034.521)" fill="none" stroke="#bfbfbf" stroke-width="1" stroke-dasharray="4"/>
        <line id="直线_59" data-name="直线 59" x1="603.262" transform="translate(258.238 5084.521)" fill="none" stroke="#bfbfbf" stroke-width="1" stroke-dasharray="4"/>
        <line id="直线_60" data-name="直线 60" x1="603.262" transform="translate(258.238 5134.521)" fill="none" stroke="#bfbfbf" stroke-width="1" stroke-dasharray="4"/>
        <line id="直线_61" data-name="直线 61" x1="603.262" transform="translate(258.238 5184.521)" fill="none" stroke="#bfbfbf" stroke-width="1" stroke-dasharray="4"/>
        <line id="直线_62" data-name="直线 62" x1="603.262" transform="translate(258.238 5234.521)" fill="none" stroke="#bfbfbf" stroke-width="1" stroke-dasharray="4"/>
        <line id="直线_63" data-name="直线 63" x1="603.262" transform="translate(258.238 5284.521)" fill="none" stroke="#bfbfbf" stroke-width="1" stroke-dasharray="4"/>
        <line id="直线_64" data-name="直线 64" x1="603.262" transform="translate(258.238 5334.521)" fill="none" stroke="#bfbfbf" stroke-width="1" stroke-dasharray="4"/>
        <line id="直线_65" data-name="直线 65" x1="603.262" transform="translate(258.238 5384.521)" fill="none" stroke="#bfbfbf" stroke-width="1" stroke-dasharray="4"/>
        <line id="直线_66" data-name="直线 66" x1="603.262" transform="translate(258.238 5434.521)" fill="none" stroke="#bfbfbf" stroke-width="1" stroke-dasharray="4"/>
        <line id="直线_45" data-name="直线 45" y2="438" transform="translate(354.238 5022.5)" fill="none" stroke="#bfbfbf" stroke-width="1" stroke-dasharray="4"/>
        <line id="直线_46" data-name="直线 46" y2="438" transform="translate(450.238 5022.5)" fill="none" stroke="#bfbfbf" stroke-width="1" stroke-dasharray="4"/>
        <line id="直线_47" data-name="直线 47" y2="438" transform="translate(546.238 5022.021)" fill="none" stroke="#bfbfbf" stroke-width="1" stroke-dasharray="4"/>
        <line id="直线_48" data-name="直线 48" y2="438" transform="translate(642.238 5022.021)" fill="none" stroke="#bfbfbf" stroke-width="1" stroke-dasharray="4"/>
        <line id="直线_49" data-name="直线 49" y2="438" transform="translate(738.238 5022.521)" fill="none" stroke="#bfbfbf" stroke-width="1" stroke-dasharray="4"/>
        <line id="直线_50" data-name="直线 50" y2="438" transform="translate(834.238 5022.521)" fill="none" stroke="#bfbfbf" stroke-width="1" stroke-dasharray="4"/>
      </g>
      <circle id="椭圆_183" data-name="椭圆 183" cx="5" cy="5" r="5" transform="translate(253 5289)" fill="#90bdff"/>
      <g id="椭圆_204" data-name="椭圆 204" transform="translate(253 5296)" fill="#91ca8c" stroke="#90ca8b" stroke-width="1">
        <circle cx="5" cy="5" r="5" stroke="none"/>
        <circle cx="5" cy="5" r="4.5" fill="none"/>
      </g>
      <g id="椭圆_205" data-name="椭圆 205" transform="translate(349 5254)" fill="#91ca8c" stroke="#90ca8b" stroke-width="1">
        <circle cx="5" cy="5" r="5" stroke="none"/>
        <circle cx="5" cy="5" r="4.5" fill="none"/>
      </g>
      <g id="椭圆_206" data-name="椭圆 206" transform="translate(445 5320)" fill="#91ca8c" stroke="#90ca8b" stroke-width="1">
        <circle cx="5" cy="5" r="5" stroke="none"/>
        <circle cx="5" cy="5" r="4.5" fill="none"/>
      </g>
      <g id="椭圆_207" data-name="椭圆 207" transform="translate(541 5218)" fill="#91ca8c" stroke="#90ca8b" stroke-width="1">
        <circle cx="5" cy="5" r="5" stroke="none"/>
        <circle cx="5" cy="5" r="4.5" fill="none"/>
      </g>
      <g id="椭圆_208" data-name="椭圆 208" transform="translate(637 5300)" fill="#91ca8c" stroke="#90ca8b" stroke-width="1">
        <circle cx="5" cy="5" r="5" stroke="none"/>
        <circle cx="5" cy="5" r="4.5" fill="none"/>
      </g>
      <g id="椭圆_209" data-name="椭圆 209" transform="translate(733 5198)" fill="#91ca8c" stroke="#90ca8b" stroke-width="1">
        <circle cx="5" cy="5" r="5" stroke="none"/>
        <circle cx="5" cy="5" r="4.5" fill="none"/>
      </g>
      <g id="椭圆_210" data-name="椭圆 210" transform="translate(829 5292)" fill="#91ca8c" stroke="#90ca8b" stroke-width="1">
        <circle cx="5" cy="5" r="5" stroke="none"/>
        <circle cx="5" cy="5" r="4.5" fill="none"/>
      </g>
      <g id="椭圆_190" data-name="椭圆 190" transform="translate(253 5320)" fill="#ea7e53" stroke="#ea7e53" stroke-width="1">
        <circle cx="5" cy="5" r="5" stroke="none"/>
        <circle cx="5" cy="5" r="4.5" fill="none"/>
      </g>
      <g id="椭圆_197" data-name="椭圆 197" transform="translate(253 5315)" fill="#b78dc1" stroke="#b78dc1" stroke-width="1">
        <circle cx="5" cy="5" r="5" stroke="none"/>
        <circle cx="5" cy="5" r="4.5" fill="none"/>
      </g>
      <g id="椭圆_198" data-name="椭圆 198" transform="translate(349 5299)" fill="#b78dc1" stroke="#b78dc1" stroke-width="1">
        <circle cx="5" cy="5" r="5" stroke="none"/>
        <circle cx="5" cy="5" r="4.5" fill="none"/>
      </g>
      <g id="椭圆_199" data-name="椭圆 199" transform="translate(445 5355)" fill="#b78dc1" stroke="#b78dc1" stroke-width="1">
        <circle cx="5" cy="5" r="5" stroke="none"/>
        <circle cx="5" cy="5" r="4.5" fill="none"/>
      </g>
      <g id="椭圆_200" data-name="椭圆 200" transform="translate(541 5311)" fill="#b78dc1" stroke="#b78dc1" stroke-width="1">
        <circle cx="5" cy="5" r="5" stroke="none"/>
        <circle cx="5" cy="5" r="4.5" fill="none"/>
      </g>
      <g id="椭圆_201" data-name="椭圆 201" transform="translate(637 5315)" fill="#b78dc1" stroke="#b78dc1" stroke-width="1">
        <circle cx="5" cy="5" r="5" stroke="none"/>
        <circle cx="5" cy="5" r="4.5" fill="none"/>
      </g>
      <g id="椭圆_202" data-name="椭圆 202" transform="translate(733 5314)" fill="#b78dc1" stroke="#b78dc1" stroke-width="1">
        <circle cx="5" cy="5" r="5" stroke="none"/>
        <circle cx="5" cy="5" r="4.5" fill="none"/>
      </g>
      <g id="椭圆_203" data-name="椭圆 203" transform="translate(829 5313)" fill="#b78dc1" stroke="#b78dc1" stroke-width="1">
        <circle cx="5" cy="5" r="5" stroke="none"/>
        <circle cx="5" cy="5" r="4.5" fill="none"/>
      </g>
      <g id="椭圆_191" data-name="椭圆 191" transform="translate(349 5266)" fill="#ea7e53" stroke="#ea7e53" stroke-width="1">
        <circle cx="5" cy="5" r="5" stroke="none"/>
        <circle cx="5" cy="5" r="4.5" fill="none"/>
      </g>
      <g id="椭圆_192" data-name="椭圆 192" transform="translate(445 5392)" fill="#ea7e53" stroke="#ea7e53" stroke-width="1">
        <circle cx="5" cy="5" r="5" stroke="none"/>
        <circle cx="5" cy="5" r="4.5" fill="none"/>
      </g>
      <g id="椭圆_193" data-name="椭圆 193" transform="translate(541 5273)" fill="#ea7e53" stroke="#ea7e53" stroke-width="1">
        <circle cx="5" cy="5" r="5" stroke="none"/>
        <circle cx="5" cy="5" r="4.5" fill="none"/>
      </g>
      <g id="椭圆_194" data-name="椭圆 194" transform="translate(637 5218)" fill="#ea7e53" stroke="#ea7e53" stroke-width="1">
        <circle cx="5" cy="5" r="5" stroke="none"/>
        <circle cx="5" cy="5" r="4.5" fill="none"/>
      </g>
      <g id="椭圆_195" data-name="椭圆 195" transform="translate(733 5271)" fill="#ea7e53" stroke="#ea7e53" stroke-width="1">
        <circle cx="5" cy="5" r="5" stroke="none"/>
        <circle cx="5" cy="5" r="4.5" fill="none"/>
      </g>
      <g id="椭圆_196" data-name="椭圆 196" transform="translate(829 5299)" fill="#ea7e53" stroke="#ea7e53" stroke-width="1">
        <circle cx="5" cy="5" r="5" stroke="none"/>
        <circle cx="5" cy="5" r="4.5" fill="none"/>
      </g>
      <circle id="椭圆_184" data-name="椭圆 184" cx="5" cy="5" r="5" transform="translate(349 5380)" fill="#90bdff"/>
      <circle id="椭圆_185" data-name="椭圆 185" cx="5" cy="5" r="5" transform="translate(445 5213)" fill="#90bdff"/>
      <circle id="椭圆_186" data-name="椭圆 186" cx="5" cy="5" r="5" transform="translate(541 5264)" fill="#90bdff"/>
      <circle id="椭圆_187" data-name="椭圆 187" cx="5" cy="5" r="5" transform="translate(637 5067)" fill="#90bdff"/>
      <circle id="椭圆_188" data-name="椭圆 188" cx="5" cy="5" r="5" transform="translate(733 5365)" fill="#90bdff"/>
      <circle id="椭圆_189" data-name="椭圆 189" cx="5" cy="5" r="5" transform="translate(829 5407)" fill="#90bdff"/>
      <path id="路径_29" data-name="路径 29" d="M189.238,5237l95.955,91.527,96.564-168.268,95.643,54.28,95.99-201.193,95.284,300.792,95.617,41.217" transform="translate(69 57)" fill="none" stroke="#99bcfa" stroke-width="2"/>
      <path id="路径_30" data-name="路径 30" d="M189,5268l97.057-54.228L380.9,5341.2l96.408-120.362,97.57-55.368,94.168,55.368,95.318,26.848" transform="translate(69 57)" fill="none" stroke="#ea7e53" stroke-width="2"/>
      <path id="路径_31" data-name="路径 31" d="M189,5262l97.122-15.371,94.324,56.68,97.443-44.447,94.94,3.138H764.16" transform="translate(69 57)" fill="none" stroke="#b78dc1" stroke-width="2"/>
      <path id="路径_32" data-name="路径 32" d="M189.238,5244l96.546-42.2,94.419,65.919L478.4,5165.216l94.679,82.821,96.713-103.248,95.416,95.367" transform="translate(69 57)" fill="none" stroke="#90ca8b" stroke-width="2"/>
      <text id="_2018" data-name="2018" transform="translate(426.238 5497.021)" fill="#fff" font-size="20" font-family="JetBrainsMono-SemiBold, JetBrains Mono" font-weight="600"><tspan x="0" y="0">2018</tspan></text>
      <text id="_2019" data-name="2019" transform="translate(522.238 5497.021)" fill="#fff" font-size="20" font-family="JetBrainsMono-SemiBold, JetBrains Mono" font-weight="600"><tspan x="0" y="0">2019</tspan></text>
      <text id="_2020" data-name="2020" transform="translate(618.238 5497.021)" fill="#fff" font-size="20" font-family="JetBrainsMono-SemiBold, JetBrains Mono" font-weight="600"><tspan x="0" y="0">2020</tspan></text>
      <text id="_2021" data-name="2021" transform="translate(714.238 5497.021)" fill="#fff" font-size="20" font-family="JetBrainsMono-SemiBold, JetBrains Mono" font-weight="600"><tspan x="0" y="0">2021</tspan></text>
    </g>
    <g id="组_90" data-name="组 90" transform="translate(-24.362 1935)">
      <circle id="椭圆_397" data-name="椭圆 397" cx="5" cy="5" r="5" transform="translate(258.809 5604.021)" fill="#90bdff"/>
      <text id="New_repos" data-name="New repos" transform="translate(276.547 5614.521)" fill="#bfbfbf" font-size="16" font-family="JetBrainsMono-Regular, JetBrains Mono"><tspan x="0" y="0">New repos</tspan></text>
      <g id="椭圆_395" data-name="椭圆 395" transform="translate(518.31 5604.521)" fill="#b78dc1" stroke="#b78dc1" stroke-width="1">
        <circle cx="5" cy="5" r="5" stroke="none"/>
        <circle cx="5" cy="5" r="4.5" fill="none"/>
      </g>
      <text id="New_developers" data-name="New developers" transform="translate(536.31 5615.021)" fill="#bfbfbf" font-size="16" font-family="JetBrainsMono-Regular, JetBrains Mono"><tspan x="0" y="0">New developers</tspan></text>
      <g id="椭圆_396" data-name="椭圆 396" transform="translate(383.928 5604.021)" fill="#ea7e53" stroke="#ea7e53" stroke-width="1">
        <circle cx="5" cy="5" r="5" stroke="none"/>
        <circle cx="5" cy="5" r="4.5" fill="none"/>
      </g>
      <text id="New_events" data-name="New events" transform="translate(401.928 5615.021)" fill="#bfbfbf" font-size="16" font-family="JetBrainsMono-Regular, JetBrains Mono"><tspan x="0" y="0">New events</tspan></text>
      <g id="椭圆_394" data-name="椭圆 394" transform="translate(691.691 5605.021)" fill="#91ca8c" stroke="#90ca8b" stroke-width="1">
        <circle cx="5" cy="5" r="5" stroke="none"/>
        <circle cx="5" cy="5" r="4.5" fill="none"/>
      </g>
      <text id="New_stars" data-name="New stars" transform="translate(709.429 5615.021)" fill="#bfbfbf" font-size="16" font-family="JetBrainsMono-Regular, JetBrains Mono"><tspan x="0" y="0">New stars</tspan></text>
    </g>
  </g>
</svg>
