<svg xmlns="http://www.w3.org/2000/svg" width="1271" height="696" viewBox="0 0 1271 696">
  <g id="组_119" data-name="组 119" transform="translate(-461 -13663.895)">
    <path id="矩形_7" data-name="矩形 7" d="M6,0H434a0,0,0,0,1,0,0V48a0,0,0,0,1,0,0H6a6,6,0,0,1-6-6V6A6,6,0,0,1,6,0Z" transform="translate(1297 13735.895)" fill="#958dc1"/>
    <path id="矩形_22" data-name="矩形 22" d="M6,0H743a0,0,0,0,1,0,0V48a0,0,0,0,1,0,0H6a6,6,0,0,1-6-6V6A6,6,0,0,1,6,0Z" transform="translate(988 14095.895)" fill="#958dc1"/>
    <path id="矩形_8" data-name="矩形 8" d="M6,0H462a0,0,0,0,1,0,0V48a0,0,0,0,1,0,0H6a6,6,0,0,1-6-6V6A6,6,0,0,1,6,0Z" transform="translate(1269 13807.895)" fill="#7289ab"/>
    <path id="矩形_21" data-name="矩形 21" d="M6,0H791a0,0,0,0,1,0,0V48a0,0,0,0,1,0,0H6a6,6,0,0,1-6-6V6A6,6,0,0,1,6,0Z" transform="translate(940 14167.895)" fill="#7289ab"/>
    <path id="矩形_9" data-name="矩形 9" d="M6,0H515a0,0,0,0,1,0,0V48a0,0,0,0,1,0,0H6a6,6,0,0,1-6-6V6A6,6,0,0,1,6,0Z" transform="translate(1216 13879.895)" fill="#73a373"/>
    <path id="矩形_20" data-name="矩形 20" d="M6,0H1218a0,0,0,0,1,0,0V48a0,0,0,0,1,0,0H6a6,6,0,0,1-6-6V6A6,6,0,0,1,6,0Z" transform="translate(513 14239.895)" fill="#73a373"/>
    <path id="矩形_10" data-name="矩形 10" d="M6,0H602a0,0,0,0,1,0,0V48a0,0,0,0,1,0,0H6a6,6,0,0,1-6-6V6A6,6,0,0,1,6,0Z" transform="translate(1130 13951.895)" fill="#dd6b66"/>
    <path id="矩形_19" data-name="矩形 19" d="M6,0H1270a0,0,0,0,1,0,0V48a0,0,0,0,1,0,0H6a6,6,0,0,1-6-6V6A6,6,0,0,1,6,0Z" transform="translate(461 14311.895)" fill="#dd6b66"/>
    <path id="矩形_11" data-name="矩形 11" d="M6,0H624a0,0,0,0,1,0,0V48a0,0,0,0,1,0,0H6a6,6,0,0,1-6-6V6A6,6,0,0,1,6,0Z" transform="translate(1107 14023.895)" fill="#74999f"/>
    <path id="矩形_18" data-name="矩形 18" d="M6,0H415a0,0,0,0,1,0,0V48a0,0,0,0,1,0,0H6a6,6,0,0,1-6-6V6A6,6,0,0,1,6,0Z" transform="translate(1316 13663.895)" fill="#74999f"/>
    <text id="_5l1v3r1:_12592" data-name="5l1v3r1: 12592" transform="translate(1403.5 13745.707)" fill="#e0e0e0" font-size="24" font-family="JetBrainsMono-Bold, JetBrains Mono" font-weight="700"><tspan x="107.4" y="24">5l1v3r1: 12592</tspan></text>
    <text id="Baby8093girl:_12833" data-name="Baby8093girl: 12833" transform="translate(1316.5 13815.707)" fill="#e0e0e0" font-size="24" font-family="JetBrainsMono-Bold, JetBrains Mono" font-weight="700"><tspan x="122.4" y="24">Baby8093girl: 12833</tspan></text>
    <text id="gosoxharp:_14367" data-name="gosoxharp: 14367" transform="translate(1316.5 13887.666)" fill="#e0e0e0" font-size="24" font-family="JetBrainsMono-Bold, JetBrains Mono" font-weight="700"><tspan x="165.6" y="24">gosoxharp: 14367</tspan></text>
    <text id="_mitoksim:_20876" data-name=" mitoksim: 20876" transform="translate(1430 14177.707)" fill="#e0e0e0" font-size="24" font-family="JetBrainsMono-Bold, JetBrains Mono" font-weight="700"><tspan x="46.6" y="24" xml:space="preserve"> mitoksim: 20876</tspan></text>
    <text id="_frankfanslc:_36246" data-name=" frankfanslc: 36246" transform="translate(1368 14249.333)" fill="#e0e0e0" font-size="24" font-family="JetBrainsMono-Bold, JetBrains Mono" font-weight="700"><tspan x="65.4" y="24" xml:space="preserve"> frankfanslc: 36246</tspan></text>
    <text id="_Butters3388214:_37228" data-name=" Butters3388214: 37228" transform="translate(1368 14321.707)" fill="#e0e0e0" font-size="24" font-family="JetBrainsMono-Bold, JetBrains Mono" font-weight="700"><tspan x="22.2" y="24" xml:space="preserve"> Butters3388214: 37228</tspan></text>
    <text id="nikitavoloboev:_16130" data-name="nikitavoloboev: 16130" transform="translate(1335.5 14033.562)" fill="#e0e0e0" font-size="24" font-family="JetBrainsMono-Bold, JetBrains Mono" font-weight="700"><tspan x="69.1" y="24">nikitavoloboev: 16130</tspan></text>
    <text id="mvandermeulen:_12991" data-name="mvandermeulen: 12991" transform="translate(1409 13673.707)" fill="#e0e0e0" font-size="24" font-family="JetBrainsMono-Bold, JetBrains Mono" font-weight="700"><tspan x="73.1" y="24">mvandermeulen: 12991</tspan></text>
    <text id="dalakatt:_16073" data-name="dalakatt: 16073" transform="translate(1368 13961.562)" fill="#e0e0e0" font-size="24" font-family="JetBrainsMono-Bold, JetBrains Mono" font-weight="700"><tspan x="123" y="24">dalakatt: 16073</tspan></text>
    <text id="_edom71:_19224" data-name=" edom71: 19224" transform="translate(1490 14105.707)" fill="#e0e0e0" font-size="24" font-family="JetBrainsMono-Bold, JetBrains Mono" font-weight="700"><tspan x="15.4" y="24" xml:space="preserve"> edom71: 19224</tspan></text>
  </g>
</svg>
