<svg xmlns="http://www.w3.org/2000/svg" width="692.5" height="601.293" viewBox="0 0 692.5 601.293">
  <g id="Web3_Chart" data-name="Web3 Chart" transform="translate(-1014.151 -7685.021)">
    <g id="组_70" data-name="组 70" transform="translate(832.913 1418)">
      <text id="Web3" transform="translate(503.5 6292.021)" fill="#fff" stroke="#fff" stroke-width="1" font-size="24" font-family="JetBrainsMono-SemiBold, JetBrains Mono" font-weight="600"><tspan x="0" y="0">Web3</tspan></text>
      <text id="_2022" data-name="2022" transform="translate(825.738 6816.543)" fill="#e0e0e0" font-size="20" font-family="JetBrainsMono-SemiBold, JetBrains Mono" font-weight="600"><tspan x="0" y="0">2022</tspan></text>
      <text id="_400_" data-name="400%" transform="translate(186.738 6355.021)" fill="#e0e0e0" font-size="19" font-family="JetBrainsMono-Regular, JetBrains Mono"><tspan x="0" y="0">400%</tspan></text>
      <text id="_360.22_" data-name="360.22%" transform="translate(613.476 6386.021)" fill="#90bdff" font-size="19" font-family="JetBrainsMono-Bold, JetBrains Mono" font-weight="700"><tspan x="0" y="0">360.22%</tspan></text>
      <text id="_300_" data-name="300%" transform="translate(186.738 6436.021)" fill="#e0e0e0" font-size="19" font-family="JetBrainsMono-Regular, JetBrains Mono"><tspan x="0" y="0">300%</tspan></text>
      <text id="_200_" data-name="200%" transform="translate(186.738 6517.021)" fill="#e0e0e0" font-size="19" font-family="JetBrainsMono-Regular, JetBrains Mono"><tspan x="0" y="0">200%</tspan></text>
      <text id="_100_" data-name="100%" transform="translate(186.738 6598.021)" fill="#e0e0e0" font-size="19" font-family="JetBrainsMono-Regular, JetBrains Mono"><tspan x="0" y="0">100%</tspan></text>
      <text id="_0_" data-name="0%" transform="translate(209.738 6679.021)" fill="#e0e0e0" font-size="19" font-family="JetBrainsMono-Regular, JetBrains Mono"><tspan x="0" y="0">0%</tspan></text>
      <text id="_-100_" data-name="-100%" transform="translate(181.238 6760.021)" fill="#e0e0e0" font-size="19" font-family="JetBrainsMono-Regular, JetBrains Mono"><tspan x="0" y="0">-100%</tspan></text>
      <text id="_2018" data-name="2018" transform="translate(244.5 6816.543)" fill="#e0e0e0" font-size="20" font-family="JetBrainsMono-SemiBold, JetBrains Mono" font-weight="600"><tspan x="0" y="0">2018</tspan></text>
      <text id="_2019" data-name="2019" transform="translate(390.238 6816.543)" fill="#e0e0e0" font-size="20" font-family="JetBrainsMono-SemiBold, JetBrains Mono" font-weight="600"><tspan x="0" y="0">2019</tspan></text>
      <text id="_2020" data-name="2020" transform="translate(532.738 6816.543)" fill="#e0e0e0" font-size="20" font-family="JetBrainsMono-SemiBold, JetBrains Mono" font-weight="600"><tspan x="0" y="0">2020</tspan></text>
      <text id="_2021" data-name="2021" transform="translate(678.476 6816.543)" fill="#e0e0e0" font-size="20" font-family="JetBrainsMono-SemiBold, JetBrains Mono" font-weight="600"><tspan x="0" y="0">2021</tspan></text>
      <g id="组_88" data-name="组 88" opacity="0.496">
        <line id="直线_44" data-name="直线 44" y2="438" transform="translate(263.738 6341.5)" fill="none" stroke="#bfbfbf" stroke-width="1" stroke-dasharray="4"/>
        <line id="直线_58" data-name="直线 58" x1="603.262" transform="translate(263.738 6353.521)" fill="none" stroke="#bfbfbf" stroke-width="1" stroke-dasharray="4"/>
        <line id="直线_60" data-name="直线 60" x1="603.262" transform="translate(263.738 6429.521)" fill="none" stroke="#bfbfbf" stroke-width="1" stroke-dasharray="4"/>
        <line id="直线_61" data-name="直线 61" x1="603.262" transform="translate(263.738 6510.521)" fill="none" stroke="#bfbfbf" stroke-width="1" stroke-dasharray="4"/>
        <line id="直线_63" data-name="直线 63" x1="603.262" transform="translate(263.738 6591.521)" fill="none" stroke="#bfbfbf" stroke-width="1" stroke-dasharray="4"/>
        <line id="直线_65" data-name="直线 65" x1="603.262" transform="translate(263.738 6672.521)" fill="none" stroke="#bfbfbf" stroke-width="1" stroke-dasharray="4"/>
        <line id="直线_66" data-name="直线 66" x1="603.262" transform="translate(263.738 6753.521)" fill="none" stroke="#bfbfbf" stroke-width="1" stroke-dasharray="4"/>
        <line id="直线_45" data-name="直线 45" y2="438" transform="translate(409.976 6348.521)" fill="none" stroke="#bfbfbf" stroke-width="1" stroke-dasharray="4"/>
        <line id="直线_47" data-name="直线 47" y2="438" transform="translate(556.738 6348.521)" fill="none" stroke="#bfbfbf" stroke-width="1" stroke-dasharray="4"/>
        <line id="直线_81" data-name="直线 81" y2="438" transform="translate(702.976 6350.021)" fill="none" stroke="#bfbfbf" stroke-width="1" stroke-dasharray="4"/>
        <line id="直线_50" data-name="直线 50" y2="438" transform="translate(849.738 6341.521)" fill="none" stroke="#bfbfbf" stroke-width="1" stroke-dasharray="4"/>
      </g>
      <circle id="椭圆_374" data-name="椭圆 374" cx="5" cy="5" r="5" transform="translate(258.5 6516)" fill="#90bdff"/>
      <circle id="椭圆_378" data-name="椭圆 378" cx="5" cy="5" r="5" transform="translate(404.976 6697.021)" fill="#90bdff"/>
      <circle id="椭圆_379" data-name="椭圆 379" cx="5" cy="5" r="5" transform="translate(551.5 6660.021)" fill="#90bdff"/>
      <circle id="椭圆_380" data-name="椭圆 380" cx="5" cy="5" r="5" transform="translate(697.476 6387.021)" fill="#90bdff"/>
      <circle id="椭圆_381" data-name="椭圆 381" cx="5" cy="5" r="5" transform="translate(844.738 6406.021)" fill="#90bdff"/>
      <circle id="椭圆_375" data-name="椭圆 375" cx="5" cy="5" r="5" transform="translate(258.738 6569.021)" fill="#ea7e53"/>
      <circle id="椭圆_382" data-name="椭圆 382" cx="5" cy="5" r="5" transform="translate(404.976 6630.021)" fill="#ea7e53"/>
      <circle id="椭圆_383" data-name="椭圆 383" cx="5" cy="5" r="5" transform="translate(551.738 6638.021)" fill="#ea7e53"/>
      <circle id="椭圆_384" data-name="椭圆 384" cx="5" cy="5" r="5" transform="translate(697.976 6572.021)" fill="#ea7e53"/>
      <circle id="椭圆_385" data-name="椭圆 385" cx="5" cy="5" r="5" transform="translate(844.738 6522)" fill="#ea7e53"/>
      <circle id="椭圆_376" data-name="椭圆 376" cx="5" cy="5" r="5" transform="translate(258.738 6682.021)" fill="#b78dc1"/>
      <circle id="椭圆_386" data-name="椭圆 386" cx="5" cy="5" r="5" transform="translate(404.976 6685.021)" fill="#b78dc1"/>
      <circle id="椭圆_387" data-name="椭圆 387" cx="5" cy="5" r="5" transform="translate(551.5 6647.521)" fill="#b78dc1"/>
      <circle id="椭圆_388" data-name="椭圆 388" cx="5" cy="5" r="5" transform="translate(698.476 6544.021)" fill="#b78dc1"/>
      <circle id="椭圆_389" data-name="椭圆 389" cx="5" cy="5" r="5" transform="translate(844.738 6559.021)" fill="#b78dc1"/>
      <circle id="椭圆_377" data-name="椭圆 377" cx="5" cy="5" r="5" transform="translate(258.451 6657.521)" fill="#91ca8c"/>
      <circle id="椭圆_390" data-name="椭圆 390" cx="5" cy="5" r="5" transform="translate(404.976 6680.021)" fill="#91ca8c"/>
      <circle id="椭圆_391" data-name="椭圆 391" cx="5" cy="5" r="5" transform="translate(551.213 6675.021)" fill="#91ca8c"/>
      <circle id="椭圆_392" data-name="椭圆 392" cx="5" cy="5" r="5" transform="translate(697.976 6482.521)" fill="#91ca8c"/>
      <circle id="椭圆_393" data-name="椭圆 393" cx="5" cy="5" r="5" transform="translate(845.213 6464.021)" fill="#91ca8c"/>
      <path id="路径_45" data-name="路径 45" d="M194.5,6464l146.2,181.944,147.968-37.51L634.431,6333.92l147.041,20.341" transform="translate(69 57)" fill="none" stroke="#90bdff" stroke-width="2"/>
      <path id="路径_46" data-name="路径 46" d="M194.451,6517.021l146.073,60.92,146.819,8.5,147.618-65.784,146.262-50.715" transform="translate(69 57)" fill="none" stroke="#ea7e53" stroke-width="2"/>
      <path id="路径_47" data-name="路径 47" d="M194.451,6605.521l146.336,23.531L487.84,6622.7,634.75,6429.832l147.214-16.914" transform="translate(69 57)" fill="none" stroke="#91ca8c" stroke-width="2"/>
      <path id="路径_48" data-name="路径 48" d="M194.738,6630.021l146.373,3.619,147.146-38.165,146.984-103.67,146.4,15.185" transform="translate(69 57)" fill="none" stroke="#b78dc1" stroke-width="2"/>
    </g>
    <g id="组_91" data-name="组 91" transform="translate(859.638 2666.293)">
      <circle id="椭圆_397" data-name="椭圆 397" cx="5" cy="5" r="5" transform="translate(258.809 5604.021)" fill="#90bdff"/>
      <text id="New_repo" data-name="New repo" transform="translate(276.547 5614.521)" fill="#bfbfbf" font-size="16" font-family="JetBrainsMono-Regular, JetBrains Mono"><tspan x="0" y="0">New repo</tspan></text>
      <g id="椭圆_395" data-name="椭圆 395" transform="translate(518.31 5604.521)" fill="#b78dc1" stroke="#b78dc1" stroke-width="1">
        <circle cx="5" cy="5" r="5" stroke="none"/>
        <circle cx="5" cy="5" r="4.5" fill="none"/>
      </g>
      <text id="New_developer" data-name="New developer" transform="translate(536.31 5615.021)" fill="#bfbfbf" font-size="16" font-family="JetBrainsMono-Regular, JetBrains Mono"><tspan x="0" y="0">New developer</tspan></text>
      <g id="椭圆_396" data-name="椭圆 396" transform="translate(383.928 5604.021)" fill="#ea7e53" stroke="#ea7e53" stroke-width="1">
        <circle cx="5" cy="5" r="5" stroke="none"/>
        <circle cx="5" cy="5" r="4.5" fill="none"/>
      </g>
      <text id="New_event" data-name="New event" transform="translate(401.928 5615.021)" fill="#bfbfbf" font-size="16" font-family="JetBrainsMono-Regular, JetBrains Mono"><tspan x="0" y="0">New event</tspan></text>
      <g id="椭圆_394" data-name="椭圆 394" transform="translate(691.691 5605.021)" fill="#91ca8c" stroke="#90ca8b" stroke-width="1">
        <circle cx="5" cy="5" r="5" stroke="none"/>
        <circle cx="5" cy="5" r="4.5" fill="none"/>
      </g>
      <text id="New_star" data-name="New star" transform="translate(709.429 5615.021)" fill="#bfbfbf" font-size="16" font-family="JetBrainsMono-Regular, JetBrains Mono"><tspan x="0" y="0">New star</tspan></text>
    </g>
  </g>
</svg>
