<?xml version="1.0" encoding="UTF-8"?><svg id="_图层_2" xmlns="http://www.w3.org/2000/svg" xmlns:xlink="http://www.w3.org/1999/xlink" viewBox="0 0 1249.75 502.91"><defs><style>.cls-1,.cls-2,.cls-3,.cls-4{fill:#fff;}.cls-5{fill:#ffd948;}.cls-6{filter:url(#AI_斜角阴影_1);}.cls-6,.cls-7,.cls-8,.cls-9,.cls-10,.cls-11,.cls-12{fill:#ffe895;}.cls-2{filter:url(#AI_斜角阴影_1-2);}.cls-3{filter:url(#AI_斜角阴影_1-3);}.cls-4{filter:url(#AI_斜角阴影_1-4);}.cls-7{filter:url(#AI_斜角阴影_1-9);}.cls-8{filter:url(#AI_斜角阴影_1-7);}.cls-9{filter:url(#AI_斜角阴影_1-8);}.cls-10{filter:url(#AI_斜角阴影_1-6);}.cls-11{filter:url(#AI_斜角阴影_1-5);}.cls-12{filter:url(#AI_斜角阴影_1-10);}.cls-13{filter:url(#AI_斜角阴影_1-11);}</style><filter id="AI_斜角阴影_1" x="-20%" y="-20%" width="140%" height="140%"><feGaussianBlur in="SourceAlpha" result="blur" stdDeviation="4"/><feOffset dx="4" dy="4" in="blur" result="offsetBlur"/><feSpecularLighting in="blur" result="specOut" specularConstant="1" specularExponent="10" surfaceScale="5"><fePointLight x="-5000" y="-10000" z="-20000"/></feSpecularLighting><feComposite in="specOut" in2="SourceAlpha" operator="in" result="specOut"/><feComposite in="SourceGraphic" in2="specOut" k1="0" k2="1" k3="1" k4="0" operator="arithmetic" result="litPaint"/><feMerge><feMergeNode in="offsetBlur"/><feMergeNode in="litPaint"/></feMerge></filter><filter id="AI_斜角阴影_1-2" x="-20%" y="-20%" width="140%" height="140%"><feGaussianBlur in="SourceAlpha" result="blur" stdDeviation="4"/><feOffset dx="4" dy="4" in="blur" result="offsetBlur"/><feSpecularLighting in="blur" result="specOut" specularConstant="1" specularExponent="10" surfaceScale="5"><fePointLight x="-5000" y="-10000" z="-20000"/></feSpecularLighting><feComposite in="specOut" in2="SourceAlpha" operator="in" result="specOut"/><feComposite in="SourceGraphic" in2="specOut" k1="0" k2="1" k3="1" k4="0" operator="arithmetic" result="litPaint"/><feMerge><feMergeNode in="offsetBlur"/><feMergeNode in="litPaint"/></feMerge></filter><filter id="AI_斜角阴影_1-3" x="-20%" y="-20%" width="140%" height="140%"><feGaussianBlur in="SourceAlpha" result="blur" stdDeviation="4"/><feOffset dx="4" dy="4" in="blur" result="offsetBlur"/><feSpecularLighting in="blur" result="specOut" specularConstant="1" specularExponent="10" surfaceScale="5"><fePointLight x="-5000" y="-10000" z="-20000"/></feSpecularLighting><feComposite in="specOut" in2="SourceAlpha" operator="in" result="specOut"/><feComposite in="SourceGraphic" in2="specOut" k1="0" k2="1" k3="1" k4="0" operator="arithmetic" result="litPaint"/><feMerge><feMergeNode in="offsetBlur"/><feMergeNode in="litPaint"/></feMerge></filter><filter id="AI_斜角阴影_1-4" x="-20%" y="-20%" width="140%" height="140%"><feGaussianBlur in="SourceAlpha" result="blur" stdDeviation="4"/><feOffset dx="4" dy="4" in="blur" result="offsetBlur"/><feSpecularLighting in="blur" result="specOut" specularConstant="1" specularExponent="10" surfaceScale="5"><fePointLight x="-5000" y="-10000" z="-20000"/></feSpecularLighting><feComposite in="specOut" in2="SourceAlpha" operator="in" result="specOut"/><feComposite in="SourceGraphic" in2="specOut" k1="0" k2="1" k3="1" k4="0" operator="arithmetic" result="litPaint"/><feMerge><feMergeNode in="offsetBlur"/><feMergeNode in="litPaint"/></feMerge></filter><filter id="AI_斜角阴影_1-5" x="-20%" y="-20%" width="140%" height="140%"><feGaussianBlur in="SourceAlpha" result="blur" stdDeviation="4"/><feOffset dx="4" dy="4" in="blur" result="offsetBlur"/><feSpecularLighting in="blur" result="specOut" specularConstant="1" specularExponent="10" surfaceScale="5"><fePointLight x="-5000" y="-10000" z="-20000"/></feSpecularLighting><feComposite in="specOut" in2="SourceAlpha" operator="in" result="specOut"/><feComposite in="SourceGraphic" in2="specOut" k1="0" k2="1" k3="1" k4="0" operator="arithmetic" result="litPaint"/><feMerge><feMergeNode in="offsetBlur"/><feMergeNode in="litPaint"/></feMerge></filter><filter id="AI_斜角阴影_1-6" x="-20%" y="-20%" width="140%" height="140%"><feGaussianBlur in="SourceAlpha" result="blur" stdDeviation="4"/><feOffset dx="4" dy="4" in="blur" result="offsetBlur"/><feSpecularLighting in="blur" result="specOut" specularConstant="1" specularExponent="10" surfaceScale="5"><fePointLight x="-5000" y="-10000" z="-20000"/></feSpecularLighting><feComposite in="specOut" in2="SourceAlpha" operator="in" result="specOut"/><feComposite in="SourceGraphic" in2="specOut" k1="0" k2="1" k3="1" k4="0" operator="arithmetic" result="litPaint"/><feMerge><feMergeNode in="offsetBlur"/><feMergeNode in="litPaint"/></feMerge></filter><filter id="AI_斜角阴影_1-7" x="-20%" y="-20%" width="140%" height="140%"><feGaussianBlur in="SourceAlpha" result="blur" stdDeviation="4"/><feOffset dx="4" dy="4" in="blur" result="offsetBlur"/><feSpecularLighting in="blur" result="specOut" specularConstant="1" specularExponent="10" surfaceScale="5"><fePointLight x="-5000" y="-10000" z="-20000"/></feSpecularLighting><feComposite in="specOut" in2="SourceAlpha" operator="in" result="specOut"/><feComposite in="SourceGraphic" in2="specOut" k1="0" k2="1" k3="1" k4="0" operator="arithmetic" result="litPaint"/><feMerge><feMergeNode in="offsetBlur"/><feMergeNode in="litPaint"/></feMerge></filter><filter id="AI_斜角阴影_1-8" x="-20%" y="-20%" width="140%" height="140%"><feGaussianBlur in="SourceAlpha" result="blur" stdDeviation="4"/><feOffset dx="4" dy="4" in="blur" result="offsetBlur"/><feSpecularLighting in="blur" result="specOut" specularConstant="1" specularExponent="10" surfaceScale="5"><fePointLight x="-5000" y="-10000" z="-20000"/></feSpecularLighting><feComposite in="specOut" in2="SourceAlpha" operator="in" result="specOut"/><feComposite in="SourceGraphic" in2="specOut" k1="0" k2="1" k3="1" k4="0" operator="arithmetic" result="litPaint"/><feMerge><feMergeNode in="offsetBlur"/><feMergeNode in="litPaint"/></feMerge></filter><filter id="AI_斜角阴影_1-9" x="-20%" y="-20%" width="140%" height="140%"><feGaussianBlur in="SourceAlpha" result="blur" stdDeviation="4"/><feOffset dx="4" dy="4" in="blur" result="offsetBlur"/><feSpecularLighting in="blur" result="specOut" specularConstant="1" specularExponent="10" surfaceScale="5"><fePointLight x="-5000" y="-10000" z="-20000"/></feSpecularLighting><feComposite in="specOut" in2="SourceAlpha" operator="in" result="specOut"/><feComposite in="SourceGraphic" in2="specOut" k1="0" k2="1" k3="1" k4="0" operator="arithmetic" result="litPaint"/><feMerge><feMergeNode in="offsetBlur"/><feMergeNode in="litPaint"/></feMerge></filter><filter id="AI_斜角阴影_1-10" x="-20%" y="-20%" width="140%" height="140%"><feGaussianBlur in="SourceAlpha" result="blur" stdDeviation="4"/><feOffset dx="4" dy="4" in="blur" result="offsetBlur"/><feSpecularLighting in="blur" result="specOut" specularConstant="1" specularExponent="10" surfaceScale="5"><fePointLight x="-5000" y="-10000" z="-20000"/></feSpecularLighting><feComposite in="specOut" in2="SourceAlpha" operator="in" result="specOut"/><feComposite in="SourceGraphic" in2="specOut" k1="0" k2="1" k3="1" k4="0" operator="arithmetic" result="litPaint"/><feMerge><feMergeNode in="offsetBlur"/><feMergeNode in="litPaint"/></feMerge></filter><filter id="AI_斜角阴影_1-11" x="-20%" y="-20%" width="140%" height="140%"><feGaussianBlur in="SourceAlpha" result="blur" stdDeviation="4"/><feOffset dx="4" dy="4" in="blur" result="offsetBlur"/><feSpecularLighting in="blur" result="specOut" specularConstant="1" specularExponent="10" surfaceScale="5"><fePointLight x="-5000" y="-10000" z="-20000"/></feSpecularLighting><feComposite in="specOut" in2="SourceAlpha" operator="in" result="specOut"/><feComposite in="SourceGraphic" in2="specOut" k1="0" k2="1" k3="1" k4="0" operator="arithmetic" result="litPaint"/><feMerge><feMergeNode in="offsetBlur"/><feMergeNode in="litPaint"/></feMerge></filter></defs><g id="_图层_1-2"><g><path class="cls-6" d="M1171.11,317.7h3.1v-16.95c0-4.55,.12-8.11,.36-10.7,.24-2.58,.91-4.81,2.01-6.67,1.1-1.93,2.69-3.5,4.75-4.7,2.07-1.2,4.37-1.81,6.93-1.81,3.58,0,6.82,1.34,9.71,4.03,1.93,1.79,3.15,3.98,3.67,6.56,.52,2.58,.78,6.25,.78,11.01v19.22h10.33c4,0,7.04,.95,9.15,2.84,2.1,1.9,3.15,4.32,3.15,7.29,0,3.79-1.5,6.44-4.5,7.96-3,1.52-7.29,2.27-12.87,2.27h-5.27v51.88c0,4.41,.16,7.8,.46,10.18,.31,2.38,1.14,4.31,2.48,5.79,1.34,1.48,3.53,2.22,6.56,2.22,1.65,0,3.89-.29,6.72-.88,2.82-.58,5.03-.88,6.61-.88,2.27,0,4.32,.91,6.15,2.74,1.82,1.83,2.74,4.08,2.74,6.77,0,4.55-2.48,8.03-7.44,10.44-4.96,2.41-12.09,3.62-21.39,3.62-8.82,0-15.5-1.48-20.05-4.44-4.55-2.96-7.53-7.06-8.94-12.3-1.41-5.24-2.12-12.23-2.12-20.98v-54.16h-3.72c-4.07,0-7.17-.96-9.3-2.89-2.14-1.93-3.2-4.37-3.2-7.34s1.12-5.39,3.36-7.29c2.24-1.89,5.49-2.84,9.77-2.84Z"/><g><path class="cls-2" d="M611.88,66.77c15.71,0,29.2,3.19,40.46,9.56,11.27,6.37,19.79,15.43,25.58,27.18,5.79,11.75,8.68,25.54,8.68,41.39,0,11.71-1.59,22.36-4.76,31.94-3.17,9.58-7.92,17.88-14.26,24.91-6.34,7.03-14.12,12.4-23.36,16.12-9.23,3.72-19.81,5.58-31.73,5.58s-22.46-1.91-31.83-5.74c-9.37-3.82-17.19-9.21-23.46-16.17-6.27-6.96-11.01-15.33-14.21-25.11-3.2-9.78-4.81-20.36-4.81-31.73s1.67-22.32,5.01-32.04c3.34-9.71,8.18-17.98,14.52-24.8,6.34-6.82,14.05-12.04,23.15-15.66s19.43-5.43,31-5.43Zm43.61,77.93c0-11.09-1.79-20.7-5.37-28.83-3.58-8.13-8.7-14.28-15.35-18.45-6.65-4.17-14.28-6.25-22.89-6.25-6.13,0-11.8,1.15-17,3.46-5.2,2.31-9.68,5.67-13.44,10.08-3.76,4.41-6.72,10.04-8.89,16.9-2.17,6.86-3.26,14.56-3.26,23.1s1.09,16.4,3.26,23.36c2.17,6.96,5.24,12.73,9.2,17.31,3.96,4.58,8.51,8.01,13.64,10.28,5.13,2.27,10.76,3.41,16.9,3.41,7.85,0,15.07-1.96,21.65-5.89,6.58-3.93,11.82-9.99,15.71-18.19,3.89-8.2,5.84-18.29,5.84-30.28Z"/><path class="cls-3" d="M827.99,175.39c0,9.16-2.36,17.4-7.08,24.7-4.72,7.3-11.63,13.02-20.72,17.16-9.1,4.13-19.88,6.2-32.35,6.2-14.95,0-27.28-2.82-37-8.47-6.89-4.06-12.49-9.49-16.79-16.28-4.31-6.79-6.46-13.38-6.46-19.79,0-3.72,1.29-6.91,3.88-9.56,2.58-2.65,5.87-3.98,9.87-3.98,3.24,0,5.98,1.03,8.22,3.1,2.24,2.07,4.15,5.13,5.74,9.2,1.93,4.82,4.01,8.85,6.25,12.09,2.24,3.24,5.39,5.91,9.46,8.01,4.06,2.1,9.4,3.15,16.02,3.15,9.1,0,16.48-2.12,22.17-6.36,5.68-4.24,8.53-9.52,8.53-15.86,0-5.03-1.53-9.11-4.6-12.25-3.07-3.13-7.03-5.53-11.89-7.18-4.86-1.65-11.35-3.41-19.48-5.27-10.89-2.55-20-5.53-27.34-8.94-7.34-3.41-13.16-8.06-17.47-13.95-4.31-5.89-6.46-13.21-6.46-21.96s2.27-15.74,6.82-22.22c4.55-6.48,11.13-11.45,19.74-14.93,8.61-3.48,18.74-5.22,30.39-5.22,9.3,0,17.34,1.15,24.13,3.46,6.79,2.31,12.42,5.37,16.9,9.2,4.48,3.82,7.75,7.84,9.82,12.04,2.07,4.2,3.1,8.3,3.1,12.3,0,3.65-1.29,6.94-3.88,9.87-2.58,2.93-5.8,4.39-9.66,4.39-3.51,0-6.18-.88-8.01-2.64-1.83-1.76-3.81-4.63-5.94-8.63-2.76-5.72-6.06-10.18-9.92-13.38-3.86-3.2-10.06-4.81-18.6-4.81-7.92,0-14.31,1.74-19.17,5.22-4.86,3.48-7.29,7.67-7.29,12.56,0,3.03,.83,5.65,2.48,7.85,1.65,2.21,3.93,4.1,6.82,5.68,2.89,1.59,5.82,2.83,8.79,3.72,2.96,.9,7.85,2.21,14.67,3.93,8.54,2,16.28,4.2,23.2,6.61,6.93,2.41,12.82,5.34,17.67,8.78,4.86,3.45,8.65,7.8,11.37,13.07,2.72,5.27,4.08,11.73,4.08,19.38Z"/><path class="cls-4" d="M969.16,175.39c0,9.16-2.36,17.4-7.08,24.7-4.72,7.3-11.63,13.02-20.72,17.16-9.1,4.13-19.88,6.2-32.35,6.2-14.95,0-27.28-2.82-37-8.47-6.89-4.06-12.49-9.49-16.79-16.28-4.31-6.79-6.46-13.38-6.46-19.79,0-3.72,1.29-6.91,3.88-9.56,2.58-2.65,5.87-3.98,9.87-3.98,3.24,0,5.98,1.03,8.22,3.1,2.24,2.07,4.15,5.13,5.74,9.2,1.93,4.82,4.01,8.85,6.25,12.09,2.24,3.24,5.39,5.91,9.46,8.01,4.06,2.1,9.4,3.15,16.02,3.15,9.1,0,16.48-2.12,22.17-6.36,5.68-4.24,8.53-9.52,8.53-15.86,0-5.03-1.53-9.11-4.6-12.25-3.07-3.13-7.03-5.53-11.89-7.18-4.86-1.65-11.35-3.41-19.48-5.27-10.89-2.55-20-5.53-27.34-8.94-7.34-3.41-13.16-8.06-17.47-13.95-4.31-5.89-6.46-13.21-6.46-21.96s2.27-15.74,6.82-22.22c4.55-6.48,11.13-11.45,19.74-14.93,8.61-3.48,18.74-5.22,30.39-5.22,9.3,0,17.34,1.15,24.13,3.46,6.79,2.31,12.42,5.37,16.9,9.2,4.48,3.82,7.75,7.84,9.82,12.04,2.07,4.2,3.1,8.3,3.1,12.3,0,3.65-1.29,6.94-3.88,9.87-2.58,2.93-5.8,4.39-9.66,4.39-3.51,0-6.18-.88-8.01-2.64-1.83-1.76-3.81-4.63-5.94-8.63-2.76-5.72-6.06-10.18-9.92-13.38-3.86-3.2-10.06-4.81-18.6-4.81-7.92,0-14.31,1.74-19.17,5.22-4.86,3.48-7.29,7.67-7.29,12.56,0,3.03,.83,5.65,2.48,7.85,1.65,2.21,3.93,4.1,6.82,5.68,2.89,1.59,5.82,2.83,8.79,3.72,2.96,.9,7.85,2.21,14.67,3.93,8.54,2,16.28,4.2,23.2,6.61,6.93,2.41,12.82,5.34,17.67,8.78,4.86,3.45,8.65,7.8,11.37,13.07,2.72,5.27,4.08,11.73,4.08,19.38Z"/><path class="cls-11" d="M546.46,411.23v-119.37c0-6.2,1.41-10.85,4.24-13.95,2.82-3.1,6.48-4.65,10.95-4.65s8.35,1.53,11.21,4.6c2.86,3.07,4.29,7.74,4.29,14v119.37c0,6.27-1.43,10.95-4.29,14.06-2.86,3.1-6.6,4.65-11.21,4.65s-8.05-1.57-10.9-4.7c-2.86-3.14-4.29-7.8-4.29-14Z"/><path class="cls-10" d="M635.14,330.83v3.41c4.96-6.54,10.39-11.35,16.28-14.42,5.89-3.07,12.66-4.6,20.31-4.6s14.09,1.62,19.95,4.86c5.86,3.24,10.23,7.82,13.12,13.75,1.86,3.45,3.07,7.17,3.62,11.16,.55,4,.83,9.1,.83,15.3v52.5c0,5.65-1.29,9.92-3.88,12.82-2.58,2.89-5.94,4.34-10.08,4.34s-7.61-1.48-10.23-4.44c-2.62-2.96-3.93-7.2-3.93-12.71v-47.02c0-9.3-1.29-16.41-3.88-21.34-2.58-4.92-7.74-7.39-15.45-7.39-5.03,0-9.61,1.5-13.75,4.5-4.13,3-7.17,7.12-9.1,12.35-1.38,4.2-2.07,12.06-2.07,23.56v35.35c0,5.72-1.33,10.01-3.98,12.87-2.65,2.86-6.08,4.29-10.28,4.29s-7.41-1.48-10.03-4.44c-2.62-2.96-3.93-7.2-3.93-12.71v-81.54c0-5.37,1.17-9.39,3.51-12.04,2.34-2.65,5.54-3.98,9.61-3.98,2.48,0,4.72,.59,6.72,1.76,2,1.17,3.6,2.93,4.81,5.27,1.2,2.34,1.81,5.2,1.81,8.58Z"/><path class="cls-8" d="M828.19,393.05c0,7.79-1.9,14.45-5.68,20-3.79,5.55-9.39,9.75-16.79,12.61-7.41,2.86-16.42,4.29-27.03,4.29s-18.81-1.55-26.04-4.65c-7.23-3.1-12.57-6.98-16.02-11.63-3.45-4.65-5.17-9.32-5.17-14,0-3.1,1.1-5.75,3.31-7.96,2.2-2.2,4.99-3.31,8.37-3.31,2.96,0,5.24,.72,6.82,2.17,1.58,1.45,3.1,3.48,4.55,6.1,2.89,5.03,6.36,8.78,10.39,11.27,4.03,2.48,9.52,3.72,16.48,3.72,5.65,0,10.28-1.26,13.9-3.77,3.62-2.51,5.43-5.39,5.43-8.63,0-4.96-1.88-8.58-5.63-10.85-3.76-2.27-9.94-4.44-18.55-6.51-9.71-2.41-17.62-4.94-23.72-7.6-6.1-2.65-10.97-6.15-14.62-10.49-3.65-4.34-5.48-9.68-5.48-16.02,0-5.65,1.69-10.99,5.06-16.02,3.38-5.03,8.35-9.04,14.93-12.04,6.58-3,14.52-4.5,23.82-4.5,7.3,0,13.86,.76,19.69,2.27,5.82,1.52,10.68,3.55,14.57,6.1,3.89,2.55,6.85,5.37,8.89,8.48,2.03,3.1,3.05,6.13,3.05,9.09,0,3.24-1.09,5.89-3.26,7.96-2.17,2.07-5.25,3.1-9.25,3.1-2.89,0-5.36-.83-7.39-2.48-2.03-1.65-4.36-4.13-6.98-7.44-2.14-2.75-4.65-4.96-7.54-6.61-2.89-1.65-6.82-2.48-11.78-2.48s-9.34,1.09-12.71,3.26c-3.38,2.17-5.06,4.88-5.06,8.11,0,2.96,1.24,5.39,3.72,7.29,2.48,1.9,5.82,3.46,10.02,4.7,4.2,1.24,9.99,2.76,17.36,4.55,8.75,2.14,15.9,4.69,21.44,7.65,5.54,2.96,9.75,6.46,12.61,10.49,2.86,4.03,4.29,8.63,4.29,13.8Z"/><path class="cls-9" d="M866.33,302.1c-3.93,0-7.29-1.2-10.08-3.62-2.79-2.41-4.19-5.82-4.19-10.23,0-3.99,1.43-7.29,4.29-9.87,2.86-2.58,6.18-3.88,9.97-3.88s6.89,1.17,9.71,3.51c2.82,2.34,4.24,5.75,4.24,10.23s-1.38,7.74-4.13,10.18c-2.76,2.45-6.03,3.67-9.82,3.67Zm13.95,29.14v81.54c0,5.65-1.34,9.92-4.03,12.82-2.69,2.89-6.1,4.34-10.23,4.34s-7.49-1.48-10.08-4.44c-2.58-2.96-3.88-7.2-3.88-12.71v-80.71c0-5.58,1.29-9.78,3.88-12.61,2.58-2.82,5.94-4.24,10.08-4.24s7.54,1.41,10.23,4.24c2.69,2.83,4.03,6.75,4.03,11.78Z"/><path class="cls-7" d="M1013.19,335.89v81.96c0,9.37-1,17.43-3,24.18-2,6.75-5.2,12.33-9.61,16.74-4.41,4.41-10.18,7.68-17.31,9.82-7.13,2.13-16,3.2-26.61,3.2-9.71,0-18.4-1.36-26.04-4.08-7.65-2.72-13.54-6.24-17.67-10.54-4.13-4.31-6.2-8.73-6.2-13.28,0-3.45,1.17-6.25,3.51-8.42,2.34-2.17,5.17-3.26,8.47-3.26,4.13,0,7.75,1.82,10.85,5.48,1.51,1.86,3.08,3.74,4.7,5.63,1.62,1.89,3.41,3.51,5.37,4.86,1.96,1.34,4.32,2.34,7.08,3,2.75,.65,5.92,.98,9.51,.98,7.3,0,12.97-1.02,17-3.05,4.03-2.03,6.86-4.88,8.48-8.53,1.62-3.65,2.57-7.56,2.84-11.73,.27-4.17,.48-10.87,.62-20.1-4.34,6.06-9.35,10.68-15.04,13.85-5.68,3.17-12.45,4.75-20.31,4.75-9.44,0-17.69-2.41-24.75-7.23-7.06-4.82-12.49-11.58-16.28-20.26-3.79-8.68-5.68-18.71-5.68-30.07,0-8.48,1.15-16.12,3.46-22.94,2.31-6.82,5.6-12.57,9.87-17.26,4.27-4.69,9.2-8.22,14.78-10.59,5.58-2.38,11.71-3.57,18.4-3.57,7.99,0,14.92,1.53,20.77,4.6,5.86,3.07,11.3,7.87,16.33,14.42v-3.82c0-4.89,1.2-8.68,3.62-11.37,2.41-2.69,5.51-4.03,9.3-4.03,5.44,0,9.06,1.77,10.85,5.32,1.79,3.55,2.69,8.67,2.69,15.35Zm-81.75,35.76c0,11.44,2.5,20.09,7.49,25.94,4.99,5.86,11.45,8.78,19.38,8.78,4.68,0,9.11-1.26,13.28-3.77,4.17-2.51,7.56-6.3,10.18-11.37,2.62-5.06,3.93-11.21,3.93-18.45,0-11.51-2.53-20.46-7.6-26.87-5.06-6.41-11.73-9.61-20-9.61s-14.52,3.07-19.38,9.2c-4.86,6.13-7.29,14.85-7.29,26.15Z"/><path class="cls-12" d="M1069.31,290.42v41.86c3.58-4.13,7.08-7.41,10.49-9.82,3.41-2.41,7.18-4.22,11.32-5.43,4.13-1.2,8.58-1.81,13.33-1.81,7.16,0,13.52,1.52,19.07,4.55,5.55,3.03,9.9,7.44,13.07,13.23,2,3.38,3.34,7.15,4.03,11.32,.69,4.17,1.03,8.98,1.03,14.42v54.05c0,5.65-1.29,9.92-3.88,12.82-2.58,2.89-6.01,4.34-10.28,4.34-9.3,0-13.95-5.72-13.95-17.16v-47.64c0-9.03-1.34-15.97-4.03-20.82-2.69-4.86-7.79-7.29-15.3-7.29-5.03,0-9.56,1.43-13.59,4.29-4.03,2.86-7.05,6.77-9.04,11.73-1.52,4.2-2.27,11.68-2.27,22.43v37.31c0,5.58-1.26,9.84-3.77,12.76-2.52,2.93-6.01,4.39-10.49,4.39-9.3,0-13.95-5.72-13.95-17.16v-122.37c0-5.72,1.22-10.01,3.67-12.87,2.44-2.86,5.87-4.29,10.28-4.29s7.97,1.45,10.49,4.34c2.51,2.89,3.77,7.17,3.77,12.82Z"/><g class="cls-13"><rect class="cls-1" x="216.18" y="79.77" width="15.76" height="102.12"/><rect class="cls-1" x="0" y="219.2" width="64.7" height="106.35" rx="30.79" ry="30.79"/><rect class="cls-1" x="393.92" y="219.2" width="64.7" height="106.35" rx="30.79" ry="30.79"/><rect class="cls-1" x="184.68" y="115.85" width="79.65" height="130.92" rx="30.79" ry="30.79"/><g><rect class="cls-5" x="49.81" y="148.41" width="362.47" height="311.11" rx="89.48" ry="89.48"/><path class="cls-1" d="M322.8,469.52H139.29c-54.85,0-99.48-44.62-99.48-99.48V237.89c0-54.85,44.62-99.48,99.48-99.48h183.51c54.85,0,99.48,44.62,99.48,99.48v132.16c0,54.85-44.62,99.48-99.48,99.48ZM139.29,158.41c-43.82,0-79.48,35.65-79.48,79.48v132.16c0,43.82,35.65,79.48,79.48,79.48h183.51c43.82,0,79.48-35.65,79.48-79.48V237.89c0-43.82-35.65-79.48-79.48-79.48H139.29Z"/></g><g><circle class="cls-1" cx="230.78" cy="303.87" r="96.91"/><path class="cls-1" d="M230.78,410.79c-58.95,0-106.91-47.96-106.91-106.91s47.96-106.91,106.91-106.91,106.91,47.96,106.91,106.91-47.96,106.91-106.91,106.91Zm0-193.83c-47.92,0-86.91,38.99-86.91,86.91s38.99,86.91,86.91,86.91,86.91-38.99,86.91-86.91-38.99-86.91-86.91-86.91Z"/></g><g><circle class="cls-5" cx="230.78" cy="303.87" r="90.34"/><path d="M230.78,404.21c-55.33,0-100.34-45.01-100.34-100.34s45.01-100.34,100.34-100.34,100.34,45.01,100.34,100.34-45.01,100.34-100.34,100.34Zm0-180.69c-44.3,0-80.34,36.04-80.34,80.34s36.04,80.34,80.34,80.34,80.34-36.04,80.34-80.34-36.04-80.34-80.34-80.34Z"/></g><g><circle cx="230.78" cy="303.87" r="50.92"/><path class="cls-1" d="M230.78,364.79c-33.59,0-60.92-27.33-60.92-60.92s27.33-60.92,60.92-60.92,60.92,27.33,60.92,60.92-27.33,60.92-60.92,60.92Zm0-101.84c-22.56,0-40.92,18.36-40.92,40.92s18.36,40.92,40.92,40.92,40.92-18.36,40.92-40.92-18.36-40.92-40.92-40.92Z"/></g><g><circle class="cls-1" cx="211.07" cy="285.8" r="13.14"/><path class="cls-1" d="M211.07,308.94c-12.76,0-23.14-10.38-23.14-23.14s10.38-23.14,23.14-23.14,23.14,10.38,23.14,23.14-10.38,23.14-23.14,23.14Zm0-26.28c-1.73,0-3.14,1.41-3.14,3.14s1.41,3.14,3.14,3.14,3.14-1.41,3.14-3.14-1.41-3.14-3.14-3.14Z"/></g><path class="cls-1" d="M262.06,21.86h0C254.52,8.81,240.45,0,224.3,0c-21.51,0-39.34,15.59-42.92,36.08-12.88,2.98-22.5,14.51-22.5,28.3,0,16.06,13.02,29.07,29.07,29.07,.99,0,1.98-.05,2.95-.15h59.53c.98,.08,1.95,.15,2.95,.15,20.07,0,36.34-16.27,36.34-36.34,0-17.07-11.78-31.35-27.65-35.25Zm-37.82,13.85v39.13l-11.25-6.49v-26.15l-11.25,6.5v-12.99l22.5-12.99,11.25,6.5-11.25,6.49Zm22.61,26.11l-11.3,6.52v-26.08l11.3-6.52v26.08Z"/></g></g></g></g></svg>