<svg xmlns="http://www.w3.org/2000/svg" width="1400.97" height="242.5"><g data-name="组 5" fill="#fff"><g data-name="Group 1791"><path data-name="Path 4360" d="M478.612 187.754h-27.663V76.396h-40.785V53.351h107.654v23.045h-39.263Z"/><path data-name="Path 4361" d="M562.127 76.396h-25.815V53.351h25.815Zm0 111.347h-25.815V88.198h25.815Z"/><path data-name="Path 4362" d="M589.79 53.363h52.544c20.643 0 33.367 4.605 42.4 15.483a89.372 89.372 0 0 1 0 103.238c-9.032 10.879-21.933 15.671-42.4 15.671H589.79Zm52.544 111.347c20.833 0 31.144-14.558 31.144-44.055 0-29.687-10.322-44.245-31.144-44.245h-24.837v88.3Z"/><path data-name="Path 4363" d="M783.721 187.755h-60.473V53.363h59.917c35.39 0 43.879 23.047 43.879 35.393a31.145 31.145 0 0 1-18.44 27.662 37.312 37.312 0 0 1 22.3 32.621c.009 16.038-9.389 38.716-47.183 38.716Zm-32.822-80.926h30.029c12.714 0 19.533-5.351 19.533-15.116 0-10.01-6.819-15.3-19.533-15.3h-30.03Zm0 57.837h33c13.457 0 20.467-6.085 20.467-17.33 0-11.434-7.007-17.517-20.467-17.517h-33Z"/><path data-name="Path 4364" d="M959.432 74.752c-21.756 0-34.847 17.7-34.847 47.38 0 29.308 12.533 46.636 33.923 46.636a27.481 27.481 0 0 0 29.59-25.2c.046-.57.073-1.143.084-1.716h26.926c-1.667 30.788-23.969 50.14-57.336 50.14-37.426 0-60.839-27.1-60.839-70.237 0-43.511 23.592-70.605 61.573-70.605 31.345 0 53.644 17.517 56.047 47.748h-26.362a27.127 27.127 0 0 0-28.759-24.146Z"/><path data-name="Path 4365" d="M1060.267 187.755h-25.818V53.363h25.816Z"/><path data-name="Path 4366" d="M1178.079 140.006c0 31.888-18.986 51.987-49.228 51.987-30.608 0-49.229-19.91-49.229-52.732 0-32.623 18.621-52.72 49.039-52.72 31.154 0 49.418 19.731 49.418 53.465Zm-72.63-.745c0 18.986 9.4 31.888 23.359 31.888 13.824 0 23.358-12.9 23.358-31.52 0-19.542-9.208-32.256-23.358-32.256-13.96 0-23.359 12.9-23.359 31.889Z"/><path data-name="Path 4367" d="M1260.674 187.757v-11.8a32.722 32.722 0 0 1-29.865 16.039 30.876 30.876 0 0 1-33.366-34.481V88.199h25.816v63.965c0 11.978 5.561 17.885 16.582 17.885a19.032 19.032 0 0 0 20.844-19.542V88.22h25.805v99.547Z"/><path data-name="Path 4368" d="M1305.851 139.451c0-30.03 18.073-52.909 41.852-52.909a30.031 30.031 0 0 1 27.462 14.571v-47.75h25.8v134.392h-25.8v-10.143a30.244 30.244 0 0 1-27.462 14.382c-25.079 0-41.852-23.413-41.852-52.543Zm25.815 0c0 18.253 8.9 30.976 21.757 30.976s21.745-12.535 21.745-30.6c0-18.986-8.665-31.711-21.745-31.711-12.914 0-21.767 12.9-21.767 31.332Z"/></g><path data-name="路径 3" d="M267.718 56.755v-.011a113 113 0 0 0-209.324 36.9 75.4 75.4 0 0 0 24.692 148.462h154.446c2.526.2 5.06.39 7.642.39a94.24 94.24 0 0 0 22.545-185.744Zm-98.112 35.914v101.537l-29.186-16.828v-67.847l-29.2 16.862v-33.7l58.383-33.713 29.184 16.84Zm58.659 67.77-29.308 16.917v-67.647l29.308-16.939Z"/></g></svg>