<svg width="20" height="12" viewBox="0 0 20 12" fill="none" xmlns="http://www.w3.org/2000/svg">
    <path d="M13.9286 0C10.8482 0 8.30357 2.26765 7.91071 5.20588H4.12946C3.96959 4.81468 3.69502 4.47964 3.34103 4.2438C2.98704 4.00796 2.56978 3.88209 2.14286 3.88235C0.959821 3.88235 0 4.83088 0 6C0 7.16912 0.959821 8.11765 2.14286 8.11765C3.04241 8.11765 3.8125 7.57059 4.12946 6.79412H7.90848C8.30357 9.73235 10.8482 12 13.9286 12C17.2812 12 20 9.31324 20 6C20 2.68676 17.2812 0 13.9286 0ZM16.7857 6.57353C16.7857 6.67059 16.7054 6.75 16.6071 6.75H14.6875V8.64706C14.6875 8.74412 14.6071 8.82353 14.5089 8.82353H13.3482C13.25 8.82353 13.1696 8.74412 13.1696 8.64706V6.75H11.25C11.1518 6.75 11.0714 6.67059 11.0714 6.57353V5.42647C11.0714 5.32941 11.1518 5.25 11.25 5.25H13.1696V3.35294C13.1696 3.25588 13.25 3.17647 13.3482 3.17647H14.5089C14.6071 3.17647 14.6875 3.25588 14.6875 3.35294V5.25H16.6071C16.7054 5.25 16.7857 5.32941 16.7857 5.42647V6.57353Z" fill="currentColor"/>
</svg>
