<svg width="812" height="152" viewBox="0 0 812 152" fill="none" xmlns="http://www.w3.org/2000/svg">
    <g clip-path="url(#clip0_453_444)">
        <path d="M37.5088 47.1354H25.2573V59.3839H37.5088V47.1354Z" fill="#1D422E"/>
        <path d="M52.7149 47.1354H40.4634V59.3839H52.7149V47.1354Z" fill="#1D422E"/>
        <path d="M67.9336 47.1354H55.6821V59.3839H67.9336V47.1354Z" fill="#1D422E"/>
        <path d="M83.1519 47.1354H70.9004V59.3839H83.1519V47.1354Z" fill="#1D422E"/>
        <path d="M98.3584 47.1354H86.1069V59.3839H98.3584V47.1354Z" fill="#1D422E"/>
        <path d="M98.3584 47.1354H86.1069V59.3839H98.3584V47.1354Z" fill="#1D422E"/>
        <path d="M113.577 47.1354H101.325V59.3839H113.577V47.1354Z" fill="#1D422E"/>
        <path d="M128.783 47.1354H116.532V59.3839H128.783V47.1354Z" fill="#1D422E"/>
        <path d="M144.002 47.1354H131.75V59.3839H144.002V47.1354Z" fill="#1D422E"/>
        <path d="M159.22 47.1354H146.969V59.3839H159.22V47.1354Z" fill="#1D422E"/>
        <path d="M159.22 47.1354H146.969V59.3839H159.22V47.1354Z" fill="#1D422E"/>
        <path d="M174.426 47.1354H162.175V59.3839H174.426V47.1354Z" fill="#1D422E"/>
        <path d="M189.645 47.1354H177.394V59.3839H189.645V47.1354Z" fill="#1D422E"/>
        <path d="M204.851 47.1354H192.6V59.3839H204.851V47.1354Z" fill="#1D422E"/>
        <path d="M220.07 47.1354H207.818V59.3839H220.07V47.1354Z" fill="#1D422E"/>
        <path d="M37.5088 62.7457H25.2573V74.9942H37.5088V62.7457Z" fill="#1D422E"/>
        <path d="M52.7149 62.7457H40.4634V74.9942H52.7149V62.7457Z" fill="#1D422E"/>
        <path d="M67.9336 62.7457H55.6821V74.9942H67.9336V62.7457Z" fill="#1D422E"/>
        <path d="M83.1519 62.7457H70.9004V74.9942H83.1519V62.7457Z" fill="#1D422E"/>
        <path d="M98.3584 62.7457H86.1069V74.9942H98.3584V62.7457Z" fill="#1D422E"/>
        <path d="M98.3584 62.7457H86.1069V74.9942H98.3584V62.7457Z" fill="#1D422E"/>
        <path d="M113.577 62.7457H101.325V74.9942H113.577V62.7457Z" fill="#1D422E"/>
        <path d="M128.783 62.7457H116.532V74.9942H128.783V62.7457Z" fill="#1D422E"/>
        <path d="M144.002 62.7457H131.75V74.9942H144.002V62.7457Z" fill="#1D422E"/>
        <path d="M159.22 62.7457H146.969V74.9942H159.22V62.7457Z" fill="#1D422E"/>
        <path d="M159.22 62.7457H146.969V74.9942H159.22V62.7457Z" fill="#1D422E"/>
        <path d="M174.426 62.7457H162.175V74.9942H174.426V62.7457Z" fill="#1D422E"/>
        <path d="M189.645 62.7457H177.394V74.9942H189.645V62.7457Z" fill="#1D422E"/>
        <path d="M204.851 62.7457H192.6V74.9942H204.851V62.7457Z" fill="#1D422E"/>
        <path d="M220.07 62.7457H207.818V74.9942H220.07V62.7457Z" fill="#1D422E"/>
        <path d="M37.5088 78.3438H25.2573V90.5922H37.5088V78.3438Z" fill="#1D422E"/>
        <path d="M52.7149 78.3438H40.4634V90.5922H52.7149V78.3438Z" fill="#1D422E"/>
        <path d="M67.9336 78.3438H55.6821V90.5922H67.9336V78.3438Z" fill="#1D422E"/>
        <path d="M83.1519 78.3438H70.9004V90.5922H83.1519V78.3438Z" fill="#1D422E"/>
        <path d="M98.3584 78.3438H86.1069V90.5922H98.3584V78.3438Z" fill="#1D422E"/>
        <path d="M98.3584 78.3438H86.1069V90.5922H98.3584V78.3438Z" fill="#1D422E"/>
        <path d="M113.577 78.3438H101.325V90.5922H113.577V78.3438Z" fill="#1D422E"/>
        <path d="M128.783 78.3438H116.532V90.5922H128.783V78.3438Z" fill="#1D422E"/>
        <path d="M144.002 78.3438H131.75V90.5922H144.002V78.3438Z" fill="#1D422E"/>
        <path d="M159.22 78.3438H146.969V90.5922H159.22V78.3438Z" fill="#1D422E"/>
        <path d="M159.22 78.3438H146.969V90.5922H159.22V78.3438Z" fill="#1D422E"/>
        <path d="M174.426 78.3438H162.175V90.5922H174.426V78.3438Z" fill="#1D422E"/>
        <path d="M189.645 78.3438H177.394V90.5922H189.645V78.3438Z" fill="#1D422E"/>
        <path d="M204.851 78.3438H192.6V90.5922H204.851V78.3438Z" fill="#1D422E"/>
        <path d="M220.07 78.3438H207.818V90.5922H220.07V78.3438Z" fill="#1D422E"/>
        <path d="M37.5088 93.9541H25.2573V106.203H37.5088V93.9541Z" fill="#1D422E"/>
        <path d="M52.7149 93.9541H40.4634V106.203H52.7149V93.9541Z" fill="#1D422E"/>
        <path d="M67.9336 93.9541H55.6821V106.203H67.9336V93.9541Z" fill="#1D422E"/>
        <path d="M83.1519 93.9541H70.9004V106.203H83.1519V93.9541Z" fill="#1D422E"/>
        <path d="M98.3584 93.9541H86.1069V106.203H98.3584V93.9541Z" fill="#1D422E"/>
        <path d="M98.3584 93.9541H86.1069V106.203H98.3584V93.9541Z" fill="#1D422E"/>
        <path d="M113.577 93.9541H101.325V106.203H113.577V93.9541Z" fill="#1D422E"/>
        <path d="M128.783 93.9541H116.532V106.203H128.783V93.9541Z" fill="#1D422E"/>
        <path d="M144.002 93.9541H131.75V106.203H144.002V93.9541Z" fill="#1D422E"/>
        <path d="M159.22 93.9541H146.969V106.203H159.22V93.9541Z" fill="#1D422E"/>
        <path d="M159.22 93.9541H146.969V106.203H159.22V93.9541Z" fill="#1D422E"/>
        <path d="M174.426 93.9541H162.175V106.203H174.426V93.9541Z" fill="#1D422E"/>
        <path d="M189.645 93.9541H177.394V106.203H189.645V93.9541Z" fill="#1D422E"/>
        <path d="M204.851 93.9541H192.6V106.203H204.851V93.9541Z" fill="#1D422E"/>
        <path d="M220.07 93.9541H207.818V106.203H220.07V93.9541Z" fill="#1D422E"/>
        <path d="M37.5088 109.552H25.2573V121.801H37.5088V109.552Z" fill="#1D422E"/>
        <path d="M52.7149 109.552H40.4634V121.801H52.7149V109.552Z" fill="#1D422E"/>
        <path d="M67.9336 109.552H55.6821V121.801H67.9336V109.552Z" fill="#1D422E"/>
        <path d="M83.1519 109.552H70.9004V121.801H83.1519V109.552Z" fill="#1D422E"/>
        <path d="M98.3584 109.552H86.1069V121.801H98.3584V109.552Z" fill="#1D422E"/>
        <path d="M98.3584 109.552H86.1069V121.801H98.3584V109.552Z" fill="#1D422E"/>
        <path d="M113.577 109.552H101.325V121.801H113.577V109.552Z" fill="#1D422E"/>
        <path d="M128.783 109.552H116.532V121.801H128.783V109.552Z" fill="#1D422E"/>
        <path d="M144.002 109.552H131.75V121.801H144.002V109.552Z" fill="#1D422E"/>
        <path d="M159.22 109.552H146.969V121.801H159.22V109.552Z" fill="#1D422E"/>
        <path d="M159.22 109.552H146.969V121.801H159.22V109.552Z" fill="#1D422E"/>
        <path d="M174.426 109.552H162.175V121.801H174.426V109.552Z" fill="#1D422E"/>
        <path d="M189.645 109.552H177.394V121.801H189.645V109.552Z" fill="#1D422E"/>
        <path d="M204.851 109.552H192.6V121.801H204.851V109.552Z" fill="#1D422E"/>
        <path d="M220.07 109.552H207.818V121.801H220.07V109.552Z" fill="#1D422E"/>
        <path d="M37.5088 125.162H25.2573V137.411H37.5088V125.162Z" fill="#1D422E"/>
        <path d="M52.7149 125.162H40.4634V137.411H52.7149V125.162Z" fill="#1D422E"/>
        <path d="M67.9336 125.162H55.6821V137.411H67.9336V125.162Z" fill="#1D422E"/>
        <path d="M83.1519 125.162H70.9004V137.411H83.1519V125.162Z" fill="#1D422E"/>
        <path d="M98.3584 125.162H86.1069V137.411H98.3584V125.162Z" fill="#1D422E"/>
        <path d="M98.3584 125.162H86.1069V137.411H98.3584V125.162Z" fill="#1D422E"/>
        <path d="M113.577 125.162H101.325V137.411H113.577V125.162Z" fill="#1D422E"/>
        <path d="M128.783 125.162H116.532V137.411H128.783V125.162Z" fill="#1D422E"/>
        <path d="M144.002 125.162H131.75V137.411H144.002V125.162Z" fill="#1D422E"/>
        <path d="M159.22 125.162H146.969V137.411H159.22V125.162Z" fill="#1D422E"/>
        <path d="M159.22 125.162H146.969V137.411H159.22V125.162Z" fill="#1D422E"/>
        <path d="M174.426 125.162H162.175V137.411H174.426V125.162Z" fill="#1D422E"/>
        <path d="M189.645 125.162H177.394V137.411H189.645V125.162Z" fill="#1D422E"/>
        <path d="M204.851 125.162H192.6V137.411H204.851V125.162Z" fill="#1D422E"/>
        <path d="M220.07 125.162H207.818V137.411H220.07V125.162Z" fill="#1D422E"/>
        <path d="M280.919 31.5374H268.668V43.7858H280.919V31.5374Z" fill="#1D422E"/>
        <path d="M296.138 31.5374H283.887V43.7858H296.138V31.5374Z" fill="#1D422E"/>
        <path d="M311.344 31.5374H299.093V43.7858H311.344V31.5374Z" fill="#1D422E"/>
        <path d="M326.563 31.5374H314.312V43.7858H326.563V31.5374Z" fill="#1D422E"/>
        <path d="M220.07 47.1354H207.818V59.3839H220.07V47.1354Z" fill="#1D422E"/>
        <path d="M235.276 47.1354H223.024V59.3839H235.276V47.1354Z" fill="#1D422E"/>
        <path d="M250.495 47.1354H238.243V59.3839H250.495V47.1354Z" fill="#1D422E"/>
        <path d="M265.713 47.1354H253.462V59.3839H265.713V47.1354Z" fill="#1D422E"/>
        <path d="M280.919 47.1354H268.668V59.3839H280.919V47.1354Z" fill="#1D422E"/>
        <path d="M280.919 47.1354H268.668V59.3839H280.919V47.1354Z" fill="#1D422E"/>
        <path d="M296.138 47.1354H283.887V59.3839H296.138V47.1354Z" fill="#1D422E"/>
        <path d="M311.344 47.1354H299.093V59.3839H311.344V47.1354Z" fill="#1D422E"/>
        <path d="M326.563 47.1354H314.312V59.3839H326.563V47.1354Z" fill="#1D422E"/>
        <path d="M341.769 47.1354H329.518V59.3839H341.769V47.1354Z" fill="#1D422E"/>
        <path d="M341.769 47.1354H329.518V59.3839H341.769V47.1354Z" fill="#1D422E"/>
        <path d="M356.988 47.1354H344.736V59.3839H356.988V47.1354Z" fill="#1D422E"/>
        <path d="M372.207 47.1354H359.955V59.3839H372.207V47.1354Z" fill="#1D422E"/>
        <path d="M387.413 47.1354H375.161V59.3839H387.413V47.1354Z" fill="#1D422E"/>
        <path d="M402.631 47.1354H390.38V59.3839H402.631V47.1354Z" fill="#1D422E"/>
        <path d="M220.07 31.5374H207.818V43.7858H220.07V31.5374Z" fill="#1D422E"/>
        <path d="M235.276 31.5374H223.024V43.7858H235.276V31.5374Z" fill="#1D422E"/>
        <path d="M250.495 31.5374H238.243V43.7858H250.495V31.5374Z" fill="#1D422E"/>
        <path d="M265.713 31.5374H253.462V43.7858H265.713V31.5374Z" fill="#1D422E"/>
        <path d="M341.769 31.5374H329.518V43.7858H341.769V31.5374Z" fill="#1D422E"/>
        <path d="M341.769 31.5374H329.518V43.7858H341.769V31.5374Z" fill="#1D422E"/>
        <path d="M356.988 31.5374H344.736V43.7858H356.988V31.5374Z" fill="#1D422E"/>
        <path d="M372.207 31.5374H359.955V43.7858H372.207V31.5374Z" fill="#1D422E"/>
        <path d="M387.413 31.5374H375.161V43.7858H387.413V31.5374Z" fill="#1D422E"/>
        <path d="M220.07 62.7457H207.818V74.9942H220.07V62.7457Z" fill="#1D422E"/>
        <path d="M235.276 62.7457H223.024V74.9942H235.276V62.7457Z" fill="#1D422E"/>
        <path d="M250.495 62.7457H238.243V74.9942H250.495V62.7457Z" fill="#1D422E"/>
        <path d="M265.713 62.7457H253.462V74.9942H265.713V62.7457Z" fill="#1D422E"/>
        <path d="M280.919 62.7457H268.668V74.9942H280.919V62.7457Z" fill="#1D422E"/>
        <path d="M296.138 62.7457H283.887V74.9942H296.138V62.7457Z" fill="#1D422E"/>
        <path d="M311.344 62.7457H299.093V74.9942H311.344V62.7457Z" fill="#1D422E"/>
        <path d="M326.563 62.7457H314.312V74.9942H326.563V62.7457Z" fill="#1D422E"/>
        <path d="M341.769 62.7457H329.518V74.9942H341.769V62.7457Z" fill="#1D422E"/>
        <path d="M341.769 62.7457H329.518V74.9942H341.769V62.7457Z" fill="#1D422E"/>
        <path d="M356.988 62.7457H344.736V74.9942H356.988V62.7457Z" fill="#1D422E"/>
        <path d="M372.207 62.7457H359.955V74.9942H372.207V62.7457Z" fill="#1D422E"/>
        <path d="M387.413 62.7457H375.161V74.9942H387.413V62.7457Z" fill="#1D422E"/>
        <path d="M402.631 62.7457H390.38V74.9942H402.631V62.7457Z" fill="#1D422E"/>
        <path d="M220.07 78.3438H207.818V90.5922H220.07V78.3438Z" fill="#1D422E"/>
        <path d="M235.276 78.3438H223.024V90.5922H235.276V78.3438Z" fill="#1D422E"/>
        <path d="M250.495 78.3438H238.243V90.5922H250.495V78.3438Z" fill="#1D422E"/>
        <path d="M265.713 78.3438H253.462V90.5922H265.713V78.3438Z" fill="#1D422E"/>
        <path d="M280.919 78.3438H268.668V90.5922H280.919V78.3438Z" fill="#1D422E"/>
        <path d="M280.919 78.3438H268.668V90.5922H280.919V78.3438Z" fill="#1D422E"/>
        <path d="M296.138 78.3438H283.887V90.5922H296.138V78.3438Z" fill="#1D422E"/>
        <path d="M311.344 78.3438H299.093V90.5922H311.344V78.3438Z" fill="#1D422E"/>
        <path d="M326.563 78.3438H314.312V90.5922H326.563V78.3438Z" fill="#1D422E"/>
        <path d="M341.769 78.3438H329.518V90.5922H341.769V78.3438Z" fill="#1D422E"/>
        <path d="M341.769 78.3438H329.518V90.5922H341.769V78.3438Z" fill="#1D422E"/>
        <path d="M356.988 78.3438H344.736V90.5922H356.988V78.3438Z" fill="#1D422E"/>
        <path d="M372.207 78.3438H359.955V90.5922H372.207V78.3438Z" fill="#1D422E"/>
        <path d="M387.413 78.3438H375.161V90.5922H387.413V78.3438Z" fill="#1D422E"/>
        <path d="M402.631 78.3438H390.38V90.5922H402.631V78.3438Z" fill="#1D422E"/>
        <path d="M250.495 93.9541H238.243V106.203H250.495V93.9541Z" fill="#1D422E"/>
        <path d="M265.713 93.9541H253.462V106.203H265.713V93.9541Z" fill="#1D422E"/>
        <path d="M341.769 93.9541H329.518V106.203H341.769V93.9541Z" fill="#1D422E"/>
        <path d="M326.563 93.9541H314.312V106.203H326.563V93.9541Z" fill="#1D422E"/>
        <path d="M356.988 93.9541H344.736V106.203H356.988V93.9541Z" fill="#1D422E"/>
        <path d="M372.207 93.9541H359.955V106.203H372.207V93.9541Z" fill="#1D422E"/>
        <path d="M387.413 93.9541H375.161V106.203H387.413V93.9541Z" fill="#1D422E"/>
        <path d="M402.631 93.9541H390.38V106.203H402.631V93.9541Z" fill="#1D422E"/>
        <path d="M220.07 109.552H207.818V121.801H220.07V109.552Z" fill="#1D422E"/>
        <path d="M235.276 109.552H223.024V121.801H235.276V109.552Z" fill="#1D422E"/>
        <path d="M250.495 109.552H238.243V121.801H250.495V109.552Z" fill="#1D422E"/>
        <path d="M265.713 109.552H253.462V121.801H265.713V109.552Z" fill="#1D422E"/>
        <path d="M280.919 109.552H268.668V121.801H280.919V109.552Z" fill="#1D422E"/>
        <path d="M280.919 109.552H268.668V121.801H280.919V109.552Z" fill="#1D422E"/>
        <path d="M296.138 109.552H283.887V121.801H296.138V109.552Z" fill="#1D422E"/>
        <path d="M311.344 109.552H299.093V121.801H311.344V109.552Z" fill="#1D422E"/>
        <path d="M326.563 109.552H314.312V121.801H326.563V109.552Z" fill="#1D422E"/>
        <path d="M341.769 109.552H329.518V121.801H341.769V109.552Z" fill="#1D422E"/>
        <path d="M341.769 109.552H329.518V121.801H341.769V109.552Z" fill="#1D422E"/>
        <path d="M356.988 109.552H344.736V121.801H356.988V109.552Z" fill="#1D422E"/>
        <path d="M372.207 109.552H359.955V121.801H372.207V109.552Z" fill="#1D422E"/>
        <path d="M387.413 109.552H375.161V121.801H387.413V109.552Z" fill="#1D422E"/>
        <path d="M402.631 109.552H390.38V121.801H402.631V109.552Z" fill="#1D422E"/>
        <path d="M235.276 125.162H223.024V137.411H235.276V125.162Z" fill="#1D422E"/>
        <path d="M250.495 125.162H238.243V137.411H250.495V125.162Z" fill="#1D422E"/>
        <path d="M265.713 125.162H253.462V137.411H265.713V125.162Z" fill="#1D422E"/>
        <path d="M280.919 125.162H268.668V137.411H280.919V125.162Z" fill="#1D422E"/>
        <path d="M296.138 125.162H283.887V137.411H296.138V125.162Z" fill="#1D422E"/>
        <path d="M311.344 125.162H299.093V137.411H311.344V125.162Z" fill="#1D422E"/>
        <path d="M326.563 125.162H314.312V137.411H326.563V125.162Z" fill="#1D422E"/>
        <path d="M341.769 125.162H329.518V137.411H341.769V125.162Z" fill="#1D422E"/>
        <path d="M341.769 125.162H329.518V137.411H341.769V125.162Z" fill="#1D422E"/>
        <path d="M356.988 125.162H344.736V137.411H356.988V125.162Z" fill="#1D422E"/>
        <path d="M372.207 125.162H359.955V137.411H372.207V125.162Z" fill="#1D422E"/>
        <path d="M387.413 125.162H375.161V137.411H387.413V125.162Z" fill="#1D422E"/>
        <path d="M402.631 125.162H390.38V137.411H402.631V125.162Z" fill="#1D422E"/>
        <path d="M463.481 31.5374H451.229V43.7858H463.481V31.5374Z" fill="#1D422E"/>
        <path d="M478.699 31.5374H466.448V43.7858H478.699V31.5374Z" fill="#1D422E"/>
        <path d="M493.906 31.5374H481.654V43.7858H493.906V31.5374Z" fill="#1D422E"/>
        <path d="M509.124 31.5374H496.873V43.7858H509.124V31.5374Z" fill="#1D422E"/>
        <path d="M402.631 31.5374H390.38V43.7858H402.631V31.5374Z" fill="#1D422E"/>
        <path d="M417.837 31.5374H405.586V43.7858H417.837V31.5374Z" fill="#1D422E"/>
        <path d="M433.056 31.5374H420.805V43.7858H433.056V31.5374Z" fill="#1D422E"/>
        <path d="M448.274 31.5374H436.023V43.7858H448.274V31.5374Z" fill="#1D422E"/>
        <path d="M524.331 31.5374H512.079V43.7858H524.331V31.5374Z" fill="#1D422E"/>
        <path d="M539.549 31.5374H527.297V43.7858H539.549V31.5374Z" fill="#1D422E"/>
        <path d="M554.768 31.5374H542.516V43.7858H554.768V31.5374Z" fill="#1D422E"/>
        <path d="M569.974 31.5374H557.722V43.7858H569.974V31.5374Z" fill="#1D422E"/>
        <path d="M585.192 31.5374H572.941V43.7858H585.192V31.5374Z" fill="#1D422E"/>
        <path d="M524.331 47.1354H512.079V59.3839H524.331V47.1354Z" fill="#1D422E"/>
        <path d="M539.549 47.1354H527.297V59.3839H539.549V47.1354Z" fill="#1D422E"/>
        <path d="M554.768 47.1354H542.516V59.3839H554.768V47.1354Z" fill="#1D422E"/>
        <path d="M569.974 47.1354H557.722V59.3839H569.974V47.1354Z" fill="#1D422E"/>
        <path d="M585.192 47.1354H572.941V59.3839H585.192V47.1354Z" fill="#1D422E"/>
        <path d="M417.837 47.1354H405.586V59.3839H417.837V47.1354Z" fill="#1D422E"/>
        <path d="M433.056 47.1354H420.805V59.3839H433.056V47.1354Z" fill="#1D422E"/>
        <path d="M448.274 47.1354H436.023V59.3839H448.274V47.1354Z" fill="#1D422E"/>
        <path d="M463.481 47.1354H451.229V59.3839H463.481V47.1354Z" fill="#1D422E"/>
        <path d="M478.699 47.1354H466.448V59.3839H478.699V47.1354Z" fill="#1D422E"/>
        <path d="M493.906 47.1354H481.654V59.3839H493.906V47.1354Z" fill="#1D422E"/>
        <path d="M509.124 47.1354H496.873V59.3839H509.124V47.1354Z" fill="#1D422E"/>
        <path d="M402.631 125.162H390.38V137.411H402.631V125.162Z" fill="#1D422E"/>
        <path d="M417.837 125.162H405.586V137.411H417.837V125.162Z" fill="#1D422E"/>
        <path d="M433.056 125.162H420.805V137.411H433.056V125.162Z" fill="#1D422E"/>
        <path d="M448.274 125.162H436.023V137.411H448.274V125.162Z" fill="#1D422E"/>
        <path d="M463.481 125.162H451.229V137.411H463.481V125.162Z" fill="#1D422E"/>
        <path d="M463.481 125.162H451.229V137.411H463.481V125.162Z" fill="#1D422E"/>
        <path d="M478.699 125.162H466.448V137.411H478.699V125.162Z" fill="#1D422E"/>
        <path d="M493.906 125.162H481.654V137.411H493.906V125.162Z" fill="#1D422E"/>
        <path d="M509.124 125.162H496.873V137.411H509.124V125.162Z" fill="#1D422E"/>
        <path d="M524.331 125.162H512.079V137.411H524.331V125.162Z" fill="#1D422E"/>
        <path d="M524.331 125.162H512.079V137.411H524.331V125.162Z" fill="#1D422E"/>
        <path d="M539.549 125.162H527.297V137.411H539.549V125.162Z" fill="#1D422E"/>
        <path d="M554.768 125.162H542.516V137.411H554.768V125.162Z" fill="#1D422E"/>
        <path d="M569.974 125.162H557.722V137.411H569.974V125.162Z" fill="#1D422E"/>
        <path d="M585.192 125.162H572.941V137.411H585.192V125.162Z" fill="#1D422E"/>
        <path d="M37.5088 31.5374H25.2573V43.7858H37.5088V31.5374Z" fill="#1D422E"/>
        <path d="M52.7149 31.5374H40.4634V43.7858H52.7149V31.5374Z" fill="#1D422E"/>
        <path d="M67.9336 31.5374H55.6821V43.7858H67.9336V31.5374Z" fill="#1D422E"/>
        <path d="M83.1519 31.5374H70.9004V43.7858H83.1519V31.5374Z" fill="#1D422E"/>
        <path d="M98.3584 31.5374H86.1069V43.7858H98.3584V31.5374Z" fill="#1D422E"/>
        <path d="M113.577 31.5374H101.325V43.7858H113.577V31.5374Z" fill="#1D422E"/>
        <path d="M128.783 31.5374H116.532V43.7858H128.783V31.5374Z" fill="#1D422E"/>
        <path d="M144.002 31.5374H131.75V43.7858H144.002V31.5374Z" fill="#1D422E"/>
        <path d="M159.22 31.5374H146.969V43.7858H159.22V31.5374Z" fill="#1D422E"/>
        <path d="M174.426 31.5374H162.175V43.7858H174.426V31.5374Z" fill="#1D422E"/>
        <path d="M189.645 31.5374H177.394V43.7858H189.645V31.5374Z" fill="#1D422E"/>
        <path d="M204.851 31.5374H192.6V43.7858H204.851V31.5374Z" fill="#1D422E"/>
        <path d="M37.5088 78.3438H25.2573V90.5922H37.5088V78.3438Z" fill="#1D422E"/>
        <path d="M52.7149 78.3438H40.4634V90.5922H52.7149V78.3438Z" fill="#1D422E"/>
        <path d="M67.9336 78.3438H55.6821V90.5922H67.9336V78.3438Z" fill="#1D422E"/>
        <path d="M159.22 78.3438H146.969V90.5922H159.22V78.3438Z" fill="#1D422E"/>
        <path d="M220.07 78.3438H207.818V90.5922H220.07V78.3438Z" fill="#1D422E"/>
        <path d="M37.5088 93.9541H25.2573V106.203H37.5088V93.9541Z" fill="#1D422E"/>
        <path d="M52.7149 93.9541H40.4634V106.203H52.7149V93.9541Z" fill="#1D422E"/>
        <path d="M67.9336 93.9541H55.6821V106.203H67.9336V93.9541Z" fill="#1D422E"/>
        <path d="M98.3584 93.9541H86.1069V106.203H98.3584V93.9541Z" fill="#1D422E"/>
        <path d="M159.22 93.9541H146.969V106.203H159.22V93.9541Z" fill="#1D422E"/>
        <path d="M159.22 93.9541H146.969V106.203H159.22V93.9541Z" fill="#1D422E"/>
        <path d="M174.426 93.9541H162.175V106.203H174.426V93.9541Z" fill="#1D422E"/>
        <path d="M189.645 93.9541H177.394V106.203H189.645V93.9541Z" fill="#1D422E"/>
        <path d="M204.851 93.9541H192.6V106.203H204.851V93.9541Z" fill="#1D422E"/>
        <path d="M220.07 93.9541H207.818V106.203H220.07V93.9541Z" fill="#1D422E"/>
        <path d="M37.5088 109.552H25.2573V121.801H37.5088V109.552Z" fill="#1D422E"/>
        <path d="M52.7149 109.552H40.4634V121.801H52.7149V109.552Z" fill="#1D422E"/>
        <path d="M67.9336 109.552H55.6821V121.801H67.9336V109.552Z" fill="#1D422E"/>
        <path d="M98.3584 109.552H86.1069V121.801H98.3584V109.552Z" fill="#1D422E"/>
        <path d="M144.002 109.552H131.75V121.801H144.002V109.552Z" fill="#1D422E"/>
        <path d="M159.22 109.552H146.969V121.801H159.22V109.552Z" fill="#1D422E"/>
        <path d="M159.22 109.552H146.969V121.801H159.22V109.552Z" fill="#1D422E"/>
        <path d="M174.426 109.552H162.175V121.801H174.426V109.552Z" fill="#1D422E"/>
        <path d="M189.645 109.552H177.394V121.801H189.645V109.552Z" fill="#1D422E"/>
        <path d="M204.851 109.552H192.6V121.801H204.851V109.552Z" fill="#1D422E"/>
        <path d="M220.07 109.552H207.818V121.801H220.07V109.552Z" fill="#1D422E"/>
        <path d="M37.5088 125.162H25.2573V137.411H37.5088V125.162Z" fill="#1D422E"/>
        <path d="M52.7149 125.162H40.4634V137.411H52.7149V125.162Z" fill="#1D422E"/>
        <path d="M67.9336 125.162H55.6821V137.411H67.9336V125.162Z" fill="#1D422E"/>
        <path d="M98.3584 125.162H86.1069V137.411H98.3584V125.162Z" fill="#1D422E"/>
        <path d="M159.22 125.162H146.969V137.411H159.22V125.162Z" fill="#1D422E"/>
        <path d="M159.22 125.162H146.969V137.411H159.22V125.162Z" fill="#1D422E"/>
        <path d="M174.426 125.162H162.175V137.411H174.426V125.162Z" fill="#1D422E"/>
        <path d="M189.645 125.162H177.394V137.411H189.645V125.162Z" fill="#1D422E"/>
        <path d="M204.851 125.162H192.6V137.411H204.851V125.162Z" fill="#1D422E"/>
        <path d="M220.07 125.162H207.818V137.411H220.07V125.162Z" fill="#1D422E"/>
        <path d="M280.919 62.7457H268.668V74.9942H280.919V62.7457Z" fill="#1D422E"/>
        <path d="M296.138 62.7457H283.887V74.9942H296.138V62.7457Z" fill="#1D422E"/>
        <path d="M311.344 62.7457H299.093V74.9942H311.344V62.7457Z" fill="#1D422E"/>
        <path d="M341.769 62.7457H329.518V74.9942H341.769V62.7457Z" fill="#1D422E"/>
        <path d="M235.276 78.3438H223.024V90.5922H235.276V78.3438Z" fill="#1D422E"/>
        <path d="M280.919 78.3438H268.668V90.5922H280.919V78.3438Z" fill="#1D422E"/>
        <path d="M296.138 78.3438H283.887V90.5922H296.138V78.3438Z" fill="#1D422E"/>
        <path d="M311.344 78.3438H299.093V90.5922H311.344V78.3438Z" fill="#1D422E"/>
        <path d="M341.769 78.3438H329.518V90.5922H341.769V78.3438Z" fill="#1D422E"/>
        <path d="M356.988 78.3438H344.736V90.5922H356.988V78.3438Z" fill="#1D422E"/>
        <path d="M372.207 78.3438H359.955V90.5922H372.207V78.3438Z" fill="#1D422E"/>
        <path d="M387.413 78.3438H375.161V90.5922H387.413V78.3438Z" fill="#1D422E"/>
        <path d="M402.631 78.3438H390.38V90.5922H402.631V78.3438Z" fill="#1D422E"/>
        <path d="M220.07 62.7457H207.818V74.9942H220.07V62.7457Z" fill="#1D422E"/>
        <path d="M280.919 62.7457H268.668V74.9942H280.919V62.7457Z" fill="#1D422E"/>
        <path d="M311.344 62.7457H299.093V74.9942H311.344V62.7457Z" fill="#1D422E"/>
        <path d="M402.631 62.7457H390.38V74.9942H402.631V62.7457Z" fill="#1D422E"/>
        <path d="M220.07 93.9541H207.818V106.203H220.07V93.9541Z" fill="#1D422E"/>
        <path d="M235.276 93.9541H223.024V106.203H235.276V93.9541Z" fill="#1D422E"/>
        <path d="M280.919 93.9541H268.668V106.203H280.919V93.9541Z" fill="#1D422E"/>
        <path d="M296.138 93.9541H283.887V106.203H296.138V93.9541Z" fill="#1D422E"/>
        <path d="M311.344 93.9541H299.093V106.203H311.344V93.9541Z" fill="#1D422E"/>
        <path d="M402.631 93.9541H390.38V106.203H402.631V93.9541Z" fill="#1D422E"/>
        <path d="M220.07 109.552H207.818V121.801H220.07V109.552Z" fill="#1D422E"/>
        <path d="M235.276 109.552H223.024V121.801H235.276V109.552Z" fill="#1D422E"/>
        <path d="M280.919 109.552H268.668V121.801H280.919V109.552Z" fill="#1D422E"/>
        <path d="M280.919 109.552H268.668V121.801H280.919V109.552Z" fill="#1D422E"/>
        <path d="M296.138 109.552H283.887V121.801H296.138V109.552Z" fill="#1D422E"/>
        <path d="M311.344 109.552H299.093V121.801H311.344V109.552Z" fill="#1D422E"/>
        <path d="M387.413 109.552H375.161V121.801H387.413V109.552Z" fill="#1D422E"/>
        <path d="M402.631 109.552H390.38V121.801H402.631V109.552Z" fill="#1D422E"/>
        <path d="M220.07 125.162H207.818V137.411H220.07V125.162Z" fill="#1D422E"/>
        <path d="M280.919 125.162H268.668V137.411H280.919V125.162Z" fill="#1D422E"/>
        <path d="M280.919 125.162H268.668V137.411H280.919V125.162Z" fill="#1D422E"/>
        <path d="M296.138 125.162H283.887V137.411H296.138V125.162Z" fill="#1D422E"/>
        <path d="M311.344 125.162H299.093V137.411H311.344V125.162Z" fill="#1D422E"/>
        <path d="M372.207 125.162H359.955V137.411H372.207V125.162Z" fill="#1D422E"/>
        <path d="M387.413 125.162H375.161V137.411H387.413V125.162Z" fill="#1D422E"/>
        <path d="M402.631 125.162H390.38V137.411H402.631V125.162Z" fill="#1D422E"/>
        <path d="M463.481 62.7457H451.229V74.9942H463.481V62.7457Z" fill="#1D422E"/>
        <path d="M478.699 62.7457H466.448V74.9942H478.699V62.7457Z" fill="#1D422E"/>
        <path d="M493.906 62.7457H481.654V74.9942H493.906V62.7457Z" fill="#1D422E"/>
        <path d="M509.124 62.7457H496.873V74.9942H509.124V62.7457Z" fill="#1D422E"/>
        <path d="M524.331 62.7457H512.079V74.9942H524.331V62.7457Z" fill="#1D422E"/>
        <path d="M402.631 78.3438H390.38V90.5922H402.631V78.3438Z" fill="#1D422E"/>
        <path d="M448.274 78.3438H436.023V90.5922H448.274V78.3438Z" fill="#1D422E"/>
        <path d="M463.481 78.3438H451.229V90.5922H463.481V78.3438Z" fill="#1D422E"/>
        <path d="M417.837 78.3438H405.586V90.5922H417.837V78.3438Z" fill="#1D422E"/>
        <path d="M433.056 78.3438H420.805V90.5922H433.056V78.3438Z" fill="#1D422E"/>
        <path d="M478.699 78.3438H466.448V90.5922H478.699V78.3438Z" fill="#1D422E"/>
        <path d="M493.906 78.3438H481.654V90.5922H493.906V78.3438Z" fill="#1D422E"/>
        <path d="M509.124 78.3438H496.873V90.5922H509.124V78.3438Z" fill="#1D422E"/>
        <path d="M524.331 78.3438H512.079V90.5922H524.331V78.3438Z" fill="#1D422E"/>
        <path d="M539.549 78.3438H527.297V90.5922H539.549V78.3438Z" fill="#1D422E"/>
        <path d="M554.768 78.3438H542.516V90.5922H554.768V78.3438Z" fill="#1D422E"/>
        <path d="M569.974 78.3438H557.722V90.5922H569.974V78.3438Z" fill="#1D422E"/>
        <path d="M585.192 78.3438H572.941V90.5922H585.192V78.3438Z" fill="#1D422E"/>
        <path d="M433.056 62.7457H420.805V74.9942H433.056V62.7457Z" fill="#1D422E"/>
        <path d="M417.837 62.7457H405.586V74.9942H417.837V62.7457Z" fill="#1D422E"/>
        <path d="M448.274 62.7457H436.023V74.9942H448.274V62.7457Z" fill="#1D422E"/>
        <path d="M463.481 62.7457H451.229V74.9942H463.481V62.7457Z" fill="#1D422E"/>
        <path d="M524.331 62.7457H512.079V74.9942H524.331V62.7457Z" fill="#1D422E"/>
        <path d="M539.549 62.7457H527.297V74.9942H539.549V62.7457Z" fill="#1D422E"/>
        <path d="M554.768 62.7457H542.516V74.9942H554.768V62.7457Z" fill="#1D422E"/>
        <path d="M569.974 62.7457H557.722V74.9942H569.974V62.7457Z" fill="#1D422E"/>
        <path d="M585.192 62.7457H572.941V74.9942H585.192V62.7457Z" fill="#1D422E"/>
        <path d="M448.274 93.9541H436.023V106.203H448.274V93.9541Z" fill="#1D422E"/>
        <path d="M463.481 93.9541H451.229V106.203H463.481V93.9541Z" fill="#1D422E"/>
        <path d="M478.699 93.9541H466.448V106.203H478.699V93.9541Z" fill="#1D422E"/>
        <path d="M417.837 93.9541H405.586V106.203H417.837V93.9541Z" fill="#1D422E"/>
        <path d="M433.056 93.9541H420.805V106.203H433.056V93.9541Z" fill="#1D422E"/>
        <path d="M493.906 93.9541H481.654V106.203H493.906V93.9541Z" fill="#1D422E"/>
        <path d="M509.124 93.9541H496.873V106.203H509.124V93.9541Z" fill="#1D422E"/>
        <path d="M524.331 93.9541H512.079V106.203H524.331V93.9541Z" fill="#1D422E"/>
        <path d="M539.549 93.9541H527.297V106.203H539.549V93.9541Z" fill="#1D422E"/>
        <path d="M554.768 93.9541H542.516V106.203H554.768V93.9541Z" fill="#1D422E"/>
        <path d="M569.974 93.9541H557.722V106.203H569.974V93.9541Z" fill="#1D422E"/>
        <path d="M585.192 93.9541H572.941V106.203H585.192V93.9541Z" fill="#1D422E"/>
        <path d="M448.274 109.552H436.023V121.801H448.274V109.552Z" fill="#1D422E"/>
        <path d="M463.481 109.552H451.229V121.801H463.481V109.552Z" fill="#1D422E"/>
        <path d="M478.699 109.552H466.448V121.801H478.699V109.552Z" fill="#1D422E"/>
        <path d="M417.837 109.552H405.586V121.801H417.837V109.552Z" fill="#1D422E"/>
        <path d="M433.056 109.552H420.805V121.801H433.056V109.552Z" fill="#1D422E"/>
        <path d="M493.906 109.552H481.654V121.801H493.906V109.552Z" fill="#1D422E"/>
        <path d="M509.124 109.552H496.873V121.801H509.124V109.552Z" fill="#1D422E"/>
        <path d="M524.331 109.552H512.079V121.801H524.331V109.552Z" fill="#1D422E"/>
        <path d="M539.549 109.552H527.297V121.801H539.549V109.552Z" fill="#1D422E"/>
        <path d="M554.768 109.552H542.516V121.801H554.768V109.552Z" fill="#1D422E"/>
        <path d="M569.974 109.552H557.722V121.801H569.974V109.552Z" fill="#1D422E"/>
        <path d="M585.192 109.552H572.941V121.801H585.192V109.552Z" fill="#1D422E"/>
        <path d="M448.274 125.162H436.023V137.411H448.274V125.162Z" fill="#1D422E"/>
        <path d="M463.481 125.162H451.229V137.411H463.481V125.162Z" fill="#1D422E"/>
        <path d="M493.906 125.162H481.654V137.411H493.906V125.162Z" fill="#1D422E"/>
        <path d="M509.124 125.162H496.873V137.411H509.124V125.162Z" fill="#1D422E"/>
        <path d="M524.331 125.162H512.079V137.411H524.331V125.162Z" fill="#1D422E"/>
        <path d="M554.768 125.162H542.516V137.411H554.768V125.162Z" fill="#1D422E"/>
        <path d="M569.974 125.162H557.722V137.411H569.974V125.162Z" fill="#1D422E"/>
        <path d="M585.192 125.162H572.941V137.411H585.192V125.162Z" fill="#1D422E"/>
        <path d="M600.398 47.1354H588.147V59.3839H600.398V47.1354Z" fill="#1D422E"/>
        <path d="M615.617 47.1354H603.366V59.3839H615.617V47.1354Z" fill="#1D422E"/>
        <path d="M630.823 47.1354H618.572V59.3839H630.823V47.1354Z" fill="#1D422E"/>
        <path d="M646.042 47.1354H633.791V59.3839H646.042V47.1354Z" fill="#1D422E"/>
        <path d="M661.26 47.1354H649.009V59.3839H661.26V47.1354Z" fill="#1D422E"/>
        <path d="M661.26 47.1354H649.009V59.3839H661.26V47.1354Z" fill="#1D422E"/>
        <path d="M676.467 47.1354H664.215V59.3839H676.467V47.1354Z" fill="#1D422E"/>
        <path d="M691.686 47.1354H679.434V59.3839H691.686V47.1354Z" fill="#1D422E"/>
        <path d="M706.892 47.1354H694.64V59.3839H706.892V47.1354Z" fill="#1D422E"/>
        <path d="M722.11 47.1354H709.859V59.3839H722.11V47.1354Z" fill="#1D422E"/>
        <path d="M600.398 31.5374H588.147V43.7858H600.398V31.5374Z" fill="#1D422E"/>
        <path d="M615.617 31.5374H603.366V43.7858H615.617V31.5374Z" fill="#1D422E"/>
        <path d="M630.823 31.5374H618.572V43.7858H630.823V31.5374Z" fill="#1D422E"/>
        <path d="M646.042 31.5374H633.791V43.7858H646.042V31.5374Z" fill="#1D422E"/>
        <path d="M661.26 31.5374H649.009V43.7858H661.26V31.5374Z" fill="#1D422E"/>
        <path d="M676.467 31.5374H664.215V43.7858H676.467V31.5374Z" fill="#1D422E"/>
        <path d="M691.686 31.5374H679.434V43.7858H691.686V31.5374Z" fill="#1D422E"/>
        <path d="M706.892 31.5374H694.64V43.7858H706.892V31.5374Z" fill="#1D422E"/>
        <path d="M722.11 31.5374H709.859V43.7858H722.11V31.5374Z" fill="#1D422E"/>
        <path d="M737.329 31.5374H725.077V43.7858H737.329V31.5374Z" fill="#1D422E"/>
        <path d="M752.535 31.5374H740.284V43.7858H752.535V31.5374Z" fill="#1D422E"/>
        <path d="M767.754 31.5374H755.502V43.7858H767.754V31.5374Z" fill="#1D422E"/>
        <path d="M782.96 31.5374H770.708V43.7858H782.96V31.5374Z" fill="#1D422E"/>
        <path d="M600.398 62.7457H588.147V74.9942H600.398V62.7457Z" fill="#1D422E"/>
        <path d="M615.617 62.7457H603.366V74.9942H615.617V62.7457Z" fill="#1D422E"/>
        <path d="M630.823 62.7457H618.572V74.9942H630.823V62.7457Z" fill="#1D422E"/>
        <path d="M646.042 62.7457H633.791V74.9942H646.042V62.7457Z" fill="#1D422E"/>
        <path d="M661.26 62.7457H649.009V74.9942H661.26V62.7457Z" fill="#1D422E"/>
        <path d="M661.26 62.7457H649.009V74.9942H661.26V62.7457Z" fill="#1D422E"/>
        <path d="M676.467 62.7457H664.215V74.9942H676.467V62.7457Z" fill="#1D422E"/>
        <path d="M691.686 62.7457H679.434V74.9942H691.686V62.7457Z" fill="#1D422E"/>
        <path d="M706.892 62.7457H694.64V74.9942H706.892V62.7457Z" fill="#1D422E"/>
        <path d="M722.11 62.7457H709.859V74.9942H722.11V62.7457Z" fill="#1D422E"/>
        <path d="M600.398 78.3438H588.147V90.5922H600.398V78.3438Z" fill="#1D422E"/>
        <path d="M615.617 78.3438H603.366V90.5922H615.617V78.3438Z" fill="#1D422E"/>
        <path d="M630.823 78.3438H618.572V90.5922H630.823V78.3438Z" fill="#1D422E"/>
        <path d="M646.042 78.3438H633.791V90.5922H646.042V78.3438Z" fill="#1D422E"/>
        <path d="M661.26 78.3438H649.009V90.5922H661.26V78.3438Z" fill="#1D422E"/>
        <path d="M661.26 78.3438H649.009V90.5922H661.26V78.3438Z" fill="#1D422E"/>
        <path d="M676.467 78.3438H664.215V90.5922H676.467V78.3438Z" fill="#1D422E"/>
        <path d="M691.686 78.3438H679.434V90.5922H691.686V78.3438Z" fill="#1D422E"/>
        <path d="M706.892 78.3438H694.64V90.5922H706.892V78.3438Z" fill="#1D422E"/>
        <path d="M722.11 78.3438H709.859V90.5922H722.11V78.3438Z" fill="#1D422E"/>
        <path d="M600.398 93.9541H588.147V106.203H600.398V93.9541Z" fill="#1D422E"/>
        <path d="M615.617 93.9541H603.366V106.203H615.617V93.9541Z" fill="#1D422E"/>
        <path d="M630.823 93.9541H618.572V106.203H630.823V93.9541Z" fill="#1D422E"/>
        <path d="M646.042 93.9541H633.791V106.203H646.042V93.9541Z" fill="#1D422E"/>
        <path d="M661.26 93.9541H649.009V106.203H661.26V93.9541Z" fill="#1D422E"/>
        <path d="M661.26 93.9541H649.009V106.203H661.26V93.9541Z" fill="#1D422E"/>
        <path d="M676.467 93.9541H664.215V106.203H676.467V93.9541Z" fill="#1D422E"/>
        <path d="M691.686 93.9541H679.434V106.203H691.686V93.9541Z" fill="#1D422E"/>
        <path d="M706.892 93.9541H694.64V106.203H706.892V93.9541Z" fill="#1D422E"/>
        <path d="M722.11 93.9541H709.859V106.203H722.11V93.9541Z" fill="#1D422E"/>
        <path d="M600.398 109.552H588.147V121.801H600.398V109.552Z" fill="#1D422E"/>
        <path d="M615.617 109.552H603.366V121.801H615.617V109.552Z" fill="#1D422E"/>
        <path d="M630.823 109.552H618.572V121.801H630.823V109.552Z" fill="#1D422E"/>
        <path d="M646.042 109.552H633.791V121.801H646.042V109.552Z" fill="#1D422E"/>
        <path d="M661.26 109.552H649.009V121.801H661.26V109.552Z" fill="#1D422E"/>
        <path d="M661.26 109.552H649.009V121.801H661.26V109.552Z" fill="#1D422E"/>
        <path d="M676.467 109.552H664.215V121.801H676.467V109.552Z" fill="#1D422E"/>
        <path d="M691.686 109.552H679.434V121.801H691.686V109.552Z" fill="#1D422E"/>
        <path d="M706.892 109.552H694.64V121.801H706.892V109.552Z" fill="#1D422E"/>
        <path d="M722.11 109.552H709.859V121.801H722.11V109.552Z" fill="#1D422E"/>
        <path d="M722.11 109.552H709.859V121.801H722.11V109.552Z" fill="#1D422E"/>
        <path d="M737.329 109.552H725.077V121.801H737.329V109.552Z" fill="#1D422E"/>
        <path d="M752.535 109.552H740.284V121.801H752.535V109.552Z" fill="#1D422E"/>
        <path d="M767.754 109.552H755.502V121.801H767.754V109.552Z" fill="#1D422E"/>
        <path d="M782.96 109.552H770.708V121.801H782.96V109.552Z" fill="#1D422E"/>
        <path d="M600.398 125.162H588.147V137.411H600.398V125.162Z" fill="#1D422E"/>
        <path d="M615.617 125.162H603.366V137.411H615.617V125.162Z" fill="#1D422E"/>
        <path d="M630.823 125.162H618.572V137.411H630.823V125.162Z" fill="#1D422E"/>
        <path d="M646.042 125.162H633.791V137.411H646.042V125.162Z" fill="#1D422E"/>
        <path d="M661.26 125.162H649.009V137.411H661.26V125.162Z" fill="#1D422E"/>
        <path d="M661.26 125.162H649.009V137.411H661.26V125.162Z" fill="#1D422E"/>
        <path d="M676.467 125.162H664.215V137.411H676.467V125.162Z" fill="#1D422E"/>
        <path d="M691.686 125.162H679.434V137.411H691.686V125.162Z" fill="#1D422E"/>
        <path d="M706.892 125.162H694.64V137.411H706.892V125.162Z" fill="#1D422E"/>
        <path d="M722.11 125.162H709.859V137.411H722.11V125.162Z" fill="#1D422E"/>
        <path d="M722.11 125.162H709.859V137.411H722.11V125.162Z" fill="#1D422E"/>
        <path d="M737.329 125.162H725.077V137.411H737.329V125.162Z" fill="#1D422E"/>
        <path d="M752.535 125.162H740.284V137.411H752.535V125.162Z" fill="#1D422E"/>
        <path d="M767.754 125.162H755.502V137.411H767.754V125.162Z" fill="#1D422E"/>
        <path d="M782.96 125.162H770.708V137.411H782.96V125.162Z" fill="#1D422E"/>
        <path d="M783.454 78.3438H771.203V90.5922H783.454V78.3438Z" fill="#1D422E"/>
        <path d="M783.454 62.7457H771.203V74.9942H783.454V62.7457Z" fill="#1D422E"/>
        <path d="M783.454 93.9541H771.203V106.203H783.454V93.9541Z" fill="#1D422E"/>
        <path d="M783.454 109.552H771.203V121.801H783.454V109.552Z" fill="#1D422E"/>
        <path d="M783.454 125.162H771.203V137.411H783.454V125.162Z" fill="#1D422E"/>
        <path d="M737.329 47.1354H725.077V59.3839H737.329V47.1354Z" fill="#1D422E"/>
        <path d="M752.535 47.1354H740.284V59.3839H752.535V47.1354Z" fill="#1D422E"/>
        <path d="M767.754 47.1354H755.502V59.3839H767.754V47.1354Z" fill="#1D422E"/>
        <path d="M737.329 62.7457H725.077V74.9942H737.329V62.7457Z" fill="#1D422E"/>
        <path d="M752.535 62.7457H740.284V74.9942H752.535V62.7457Z" fill="#1D422E"/>
        <path d="M767.754 62.7457H755.502V74.9942H767.754V62.7457Z" fill="#1D422E"/>
        <path d="M737.329 78.3438H725.077V90.5922H737.329V78.3438Z" fill="#1D422E"/>
        <path d="M752.535 78.3438H740.284V90.5922H752.535V78.3438Z" fill="#1D422E"/>
        <path d="M767.754 78.3438H755.502V90.5922H767.754V78.3438Z" fill="#1D422E"/>
        <path d="M737.329 93.9541H725.077V106.203H737.329V93.9541Z" fill="#1D422E"/>
        <path d="M752.535 93.9541H740.284V106.203H752.535V93.9541Z" fill="#1D422E"/>
        <path d="M767.754 93.9541H755.502V106.203H767.754V93.9541Z" fill="#1D422E"/>
        <path d="M782.96 47.1354H770.708V59.3839H782.96V47.1354Z" fill="#1D422E"/>
        <path d="M37.5088 62.7457H25.2573V74.9942H37.5088V62.7457Z" fill="#1D422E"/>
        <path d="M52.7149 62.7457H40.4634V74.9942H52.7149V62.7457Z" fill="#1D422E"/>
        <path d="M67.9336 62.7457H55.6821V74.9942H67.9336V62.7457Z" fill="#1D422E"/>
        <path d="M83.1519 62.7457H70.9004V74.9942H83.1519V62.7457Z" fill="#1D422E"/>
        <path d="M98.3584 62.7457H86.1069V74.9942H98.3584V62.7457Z" fill="#1D422E"/>
        <path d="M174.426 62.7457H162.175V74.9942H174.426V62.7457Z" fill="#1D422E"/>
        <path d="M204.851 62.7457H192.6V74.9942H204.851V62.7457Z" fill="#1D422E"/>
        <path d="M128.783 47.1354H116.532V59.3839H128.783V47.1354Z" fill="#61B160"/>
        <path d="M144.002 47.1354H131.75V59.3839H144.002V47.1354Z" fill="#61B160"/>
        <path d="M159.22 47.1354H146.969V59.3839H159.22V47.1354Z" fill="#61B160"/>
        <path d="M128.783 62.7457H116.532V74.9942H128.783V62.7457Z" fill="#61B160"/>
        <path d="M128.783 78.3438H116.532V90.5922H128.783V78.3438Z" fill="#61B160"/>
        <path d="M144.002 78.3438H131.75V90.5922H144.002V78.3438Z" fill="#61B160"/>
        <path d="M128.783 93.9541H116.532V106.203H128.783V93.9541Z" fill="#61B160"/>
        <path d="M128.783 109.552H116.532V121.801H128.783V109.552Z" fill="#61B160"/>
        <path d="M159.22 78.3438H146.969V90.5922H159.22V78.3438Z" fill="#61B160"/>
        <path d="M144.002 109.552H131.75V121.801H144.002V109.552Z" fill="#61B160"/>
        <path d="M159.22 109.552H146.969V121.801H159.22V109.552Z" fill="#61B160"/>
        <path d="M189.645 47.1354H177.394V59.3839H189.645V47.1354Z" fill="#61B160"/>
        <path d="M204.851 47.1354H192.6V59.3839H204.851V47.1354Z" fill="#61B160"/>
        <path d="M220.07 47.1354H207.818V59.3839H220.07V47.1354Z" fill="#61B160"/>
        <path d="M235.276 47.1354H223.024V59.3839H235.276V47.1354Z" fill="#61B160"/>
        <path d="M250.495 47.1354H238.243V59.3839H250.495V47.1354Z" fill="#61B160"/>
        <path d="M220.07 78.3438H207.818V90.5922H220.07V78.3438Z" fill="#61B160"/>
        <path d="M220.07 62.7457H207.818V74.9942H220.07V62.7457Z" fill="#61B160"/>
        <path d="M220.07 93.9541H207.818V106.203H220.07V93.9541Z" fill="#61B160"/>
        <path d="M220.07 109.552H207.818V121.801H220.07V109.552Z" fill="#61B160"/>
        <path d="M311.344 47.1354H299.093V59.3839H311.344V47.1354Z" fill="#61B160"/>
        <path d="M326.563 47.1354H314.312V59.3839H326.563V47.1354Z" fill="#61B160"/>
        <path d="M326.563 109.552H314.312V121.801H326.563V109.552Z" fill="#61B160"/>
        <path d="M296.138 62.7457H283.887V74.9942H296.138V62.7457Z" fill="#61B160"/>
        <path d="M296.138 78.3438H283.887V90.5922H296.138V78.3438Z" fill="#61B160"/>
        <path d="M296.138 93.9541H283.887V106.203H296.138V93.9541Z" fill="#61B160"/>
        <path d="M311.344 109.552H299.093V121.801H311.344V109.552Z" fill="#61B160"/>
        <path d="M357.252 47.1354H345V59.3839H357.252V47.1354Z" fill="#61B160"/>
        <path d="M372.252 47.1354H360V59.3839H372.252V47.1354Z" fill="#61B160"/>
        <path d="M387.252 47.1354H375V59.3839H387.252V47.1354Z" fill="#61B160"/>
        <path d="M357.252 62.7087H345V74.9572H357.252V62.7087Z" fill="#61B160"/>
        <path d="M357.252 92.7087H345V104.957H357.252V92.7087Z" fill="#61B160"/>
        <path d="M387.252 77.7087H375V89.9572H387.252V77.7087Z" fill="#61B160"/>
        <path d="M357.252 107.709H345V119.957H357.252V107.709Z" fill="#61B160"/>
        <path d="M357.252 77.7087H345V89.9572H357.252V77.7087Z" fill="#61B160"/>
        <path d="M372.252 62.7087H360V74.9572H372.252V62.7087Z" fill="#61B160"/>
        <path d="M387.252 62.7087H375V74.9572H387.252V62.7087Z" fill="#61B160"/>
        <path d="M402.631 47.7087H390.38V59.9572H402.631V47.7087Z" fill="#61B160"/>
        <path d="M402.631 109.552H390.38V121.801H402.631V109.552Z" fill="#61B160"/>
        <path d="M433.056 47.1354H420.805V59.3839H433.056V47.1354Z" fill="#61B160"/>
        <path d="M448.274 47.1354H436.023V59.3839H448.274V47.1354Z" fill="#61B160"/>
        <path d="M463.481 47.1354H451.229V59.3839H463.481V47.1354Z" fill="#61B160"/>
        <path d="M448.274 78.3438H436.023V90.5922H448.274V78.3438Z" fill="#61B160"/>
        <path d="M463.481 78.3438H451.229V90.5922H463.481V78.3438Z" fill="#61B160"/>
        <path d="M433.056 78.3438H420.805V90.5922H433.056V78.3438Z" fill="#61B160"/>
        <path d="M433.056 62.7457H420.805V74.9942H433.056V62.7457Z" fill="#61B160"/>
        <path d="M433.056 93.9541H420.805V106.203H433.056V93.9541Z" fill="#61B160"/>
        <path d="M448.274 109.552H436.023V121.801H448.274V109.552Z" fill="#61B160"/>
        <path d="M463.481 109.552H451.229V121.801H463.481V109.552Z" fill="#61B160"/>
        <path d="M433.056 109.552H420.805V121.801H433.056V109.552Z" fill="#61B160"/>
        <path d="M524.331 47.1354H512.079V59.3839H524.331V47.1354Z" fill="#61B160"/>
        <path d="M493.906 47.1354H481.654V59.3839H493.906V47.1354Z" fill="#61B160"/>
        <path d="M509.124 47.1354H496.873V59.3839H509.124V47.1354Z" fill="#61B160"/>
        <path d="M493.906 62.7457H481.654V74.9942H493.906V62.7457Z" fill="#61B160"/>
        <path d="M493.906 78.3438H481.654V90.5922H493.906V78.3438Z" fill="#61B160"/>
        <path d="M539.549 78.3438H527.297V90.5922H539.549V78.3438Z" fill="#61B160"/>
        <path d="M539.549 62.7457H527.297V74.9942H539.549V62.7457Z" fill="#61B160"/>
        <path d="M493.906 93.9541H481.654V106.203H493.906V93.9541Z" fill="#61B160"/>
        <path d="M539.549 93.9541H527.297V106.203H539.549V93.9541Z" fill="#61B160"/>
        <path d="M493.906 109.552H481.654V121.801H493.906V109.552Z" fill="#61B160"/>
        <path d="M509.124 109.552H496.873V121.801H509.124V109.552Z" fill="#61B160"/>
        <path d="M524.331 109.552H512.079V121.801H524.331V109.552Z" fill="#61B160"/>
        <path d="M569.974 47.1354H557.722V59.3839H569.974V47.1354Z" fill="#61B160"/>
        <path d="M585.192 47.1354H572.941V59.3839H585.192V47.1354Z" fill="#61B160"/>
        <path d="M585.192 78.3438H572.941V90.5922H585.192V78.3438Z" fill="#61B160"/>
        <path d="M585.192 62.7457H572.941V74.9942H585.192V62.7457Z" fill="#61B160"/>
        <path d="M585.192 93.9541H572.941V106.203H585.192V93.9541Z" fill="#61B160"/>
        <path d="M569.974 109.552H557.722V121.801H569.974V109.552Z" fill="#61B160"/>
        <path d="M585.192 109.552H572.941V121.801H585.192V109.552Z" fill="#61B160"/>
        <path d="M600.398 47.1354H588.147V59.3839H600.398V47.1354Z" fill="#61B160"/>
        <path d="M600.398 109.552H588.147V121.801H600.398V109.552Z" fill="#61B160"/>
        <path d="M630.823 47.1354H618.572V59.3839H630.823V47.1354Z" fill="#61B160"/>
        <path d="M646.042 47.1354H633.791V59.3839H646.042V47.1354Z" fill="#61B160"/>
        <path d="M661.26 47.1354H649.009V59.3839H661.26V47.1354Z" fill="#61B160"/>
        <path d="M676.467 47.1354H664.215V59.3839H676.467V47.1354Z" fill="#61B160"/>
        <path d="M691.686 47.1354H679.434V59.3839H691.686V47.1354Z" fill="#61B160"/>
        <path d="M661.26 62.7457H649.009V74.9942H661.26V62.7457Z" fill="#61B160"/>
        <path d="M661.26 78.3438H649.009V90.5922H661.26V78.3438Z" fill="#61B160"/>
        <path d="M661.26 93.9541H649.009V106.203H661.26V93.9541Z" fill="#61B160"/>
        <path d="M661.26 109.552H649.009V121.801H661.26V109.552Z" fill="#61B160"/>
        <path d="M722.11 62.7457H709.859V74.9942H722.11V62.7457Z" fill="#61B160"/>
        <path d="M722.11 109.552H709.859V121.801H722.11V109.552Z" fill="#61B160"/>
        <path d="M737.329 109.552H725.077V121.801H737.329V109.552Z" fill="#61B160"/>
        <path d="M752.535 109.552H740.284V121.801H752.535V109.552Z" fill="#61B160"/>
        <path d="M737.329 47.1354H725.077V59.3839H737.329V47.1354Z" fill="#61B160"/>
        <path d="M752.535 47.1354H740.284V59.3839H752.535V47.1354Z" fill="#61B160"/>
        <path d="M767.754 47.1354H755.502V59.3839H767.754V47.1354Z" fill="#61B160"/>
        <path d="M737.329 78.3438H725.077V90.5922H737.329V78.3438Z" fill="#61B160"/>
        <path d="M752.535 78.3438H740.284V90.5922H752.535V78.3438Z" fill="#61B160"/>
        <path d="M767.754 93.9541H755.502V106.203H767.754V93.9541Z" fill="#61B160"/>
        <path d="M67.9336 47.1354H55.6821V59.3839H67.9336V47.1354Z" fill="#61B160"/>
        <path d="M83.1519 47.1354H70.9004V59.3839H83.1519V47.1354Z" fill="#61B160"/>
        <path d="M83.1519 78.3438H70.9004V90.5922H83.1519V78.3438Z" fill="#61B160"/>
        <path d="M98.3584 78.3438H86.1069V90.5922H98.3584V78.3438Z" fill="#61B160"/>
        <path d="M83.1519 109.552H70.9004V121.801H83.1519V109.552Z" fill="#61B160"/>
        <path d="M52.7149 78.3438H40.4634V90.5922H52.7149V78.3438Z" fill="#61B160"/>
        <path d="M52.7149 93.9541H40.4634V106.203H52.7149V93.9541Z" fill="#61B160"/>
        <path d="M98.3584 93.9541H86.1069V106.203H98.3584V93.9541Z" fill="#61B160"/>
        <path d="M67.9336 109.552H55.6821V121.801H67.9336V109.552Z" fill="#61B160"/>
        <path d="M52.7149 62.7457H40.4634V74.9942H52.7149V62.7457Z" fill="#61B160"/>
        <path d="M41.1681 22.1935H42.3426C42.5404 23.3429 43.3316 23.9856 44.5555 23.9856C45.7794 23.9856 46.7314 23.2564 46.7314 22.2923C46.7314 21.4148 46.2121 20.9328 44.8522 20.5496L43.789 20.2406C42.2684 19.8204 41.5143 18.9799 41.5143 17.7192C41.5143 16.2484 42.8 15.1608 44.5432 15.1608C46.2863 15.1608 47.6215 16.2237 47.7204 17.6945H46.5459C46.4223 16.7923 45.6187 16.1866 44.5432 16.1866C43.4058 16.1866 42.6517 16.7923 42.6517 17.7069C42.6517 18.4855 43.1462 18.9428 44.3577 19.2642L45.3715 19.5485C47.0652 20.0058 47.8688 20.871 47.8688 22.2923C47.8688 23.9115 46.4718 25.0115 44.4813 25.0115C42.6022 25.0115 41.3041 23.9115 41.1558 22.1935H41.1681Z" fill="#C4C4C4"/>
        <path d="M49.4761 21.4642C49.4761 19.4248 50.9102 17.9293 52.9006 17.9293C54.891 17.9293 56.1025 19.2395 56.1025 21.2047C56.1025 21.4271 56.0902 21.5507 56.0778 21.7114H50.6011C50.7 23.108 51.6025 24.0103 52.9377 24.0103C53.8649 24.0103 54.6314 23.6024 54.9157 22.9227H56.0283C55.7193 24.1833 54.5201 24.9991 52.9624 24.9991C50.9102 24.9991 49.4884 23.553 49.4884 21.4518L49.4761 21.4642ZM54.9775 20.8339C54.9033 19.6968 54.0874 18.9305 52.9377 18.9305C51.7879 18.9305 50.8607 19.6968 50.6505 20.8339H54.9775Z" fill="#C4C4C4"/>
        <path d="M58.0558 18.0653H58.9954L59.0448 19.0788H59.1314C59.5888 18.3372 60.3553 17.9293 61.3072 17.9293C63.0133 17.9293 64.3608 19.4372 64.3608 21.4642C64.3608 23.4912 63.0133 25.0114 61.3072 25.0114C60.3429 25.0114 59.6135 24.6036 59.1932 23.9485H59.1067V27.6194H58.0435V18.0776L58.0558 18.0653ZM61.196 24.0103C62.4075 24.0103 63.2605 22.9227 63.2605 21.4642C63.2605 20.0058 62.3952 18.9305 61.196 18.9305C59.9968 18.9305 59.1314 19.981 59.1314 21.4642C59.1314 22.9474 60.0091 24.0103 61.196 24.0103Z" fill="#C4C4C4"/>
        <path d="M106.728 15.2843H108.657C111.438 15.2843 112.996 17.0147 112.996 20.0799C112.996 23.1451 111.438 24.8755 108.657 24.8755H106.728V15.2967V15.2843ZM108.669 23.8743C110.795 23.8743 111.883 22.5765 111.883 20.0799C111.883 17.5832 110.783 16.2854 108.669 16.2854H107.853V23.8743H108.669Z" fill="#C4C4C4"/>
        <path d="M114.578 21.4642C114.578 19.4248 116.012 17.9293 118.003 17.9293C119.993 17.9293 121.205 19.2395 121.205 21.2047C121.205 21.4271 121.192 21.5507 121.18 21.7114H115.703C115.802 23.108 116.705 24.0103 118.04 24.0103C118.967 24.0103 119.733 23.6024 120.018 22.9227H121.13C120.821 24.1833 119.622 24.9991 118.064 24.9991C116.012 24.9991 114.59 23.553 114.59 21.4518L114.578 21.4642ZM120.067 20.8339C119.993 19.6968 119.177 18.9305 118.027 18.9305C116.878 18.9305 115.95 19.6968 115.74 20.8339H120.067Z" fill="#C4C4C4"/>
        <path d="M122.8 21.4642C122.8 19.4001 124.271 17.9293 126.348 17.9293C128.042 17.9293 129.29 18.8563 129.538 20.29H128.413C128.202 19.4496 127.411 18.9305 126.348 18.9305C124.877 18.9305 123.912 19.9563 123.912 21.4642C123.912 22.9721 124.889 24.0103 126.348 24.0103C127.411 24.0103 128.215 23.4912 128.413 22.6384H129.538C129.29 24.0721 128.042 25.0114 126.348 25.0114C124.271 25.0114 122.8 23.5406 122.8 21.4642Z" fill="#C4C4C4"/>
        <path d="M172.263 22.0822V21.563H173.376V22.0822C173.376 23.244 174.118 23.9732 175.292 23.9732C176.467 23.9732 177.196 23.1698 177.196 21.9956V15.2843H178.309V21.9956C178.309 23.7754 177.072 25.0114 175.292 25.0114C173.512 25.0114 172.263 23.862 172.263 22.0822Z" fill="#C4C4C4"/>
        <path d="M180.41 23.0709C180.41 21.6743 181.634 20.8585 183.86 20.7349L185.219 20.6484V20.4878C185.219 19.499 184.564 18.9181 183.452 18.9181C182.537 18.9181 181.832 19.3877 181.684 20.0799H180.571C180.695 18.8563 181.931 17.9417 183.452 17.9417C185.195 17.9417 186.283 18.9428 186.283 20.5001V23.5406C186.283 23.899 186.542 24.1339 186.864 24.1339C186.963 24.1339 187.074 24.1339 187.16 24.0844L187.333 24.8507C187.123 24.9496 186.901 24.9867 186.654 24.9867C185.924 24.9867 185.38 24.5294 185.294 23.8125V23.7013H185.207C184.774 24.5047 183.773 25.0238 182.697 25.0238C181.3 25.0238 180.398 24.2575 180.398 23.0833L180.41 23.0709ZM182.846 24.035C184.193 24.035 185.219 23.0215 185.219 21.699V21.4765L183.934 21.5754C182.364 21.6866 181.523 22.1934 181.523 23.0462C181.523 23.6642 182.03 24.0474 182.846 24.0474V24.035Z" fill="#C4C4C4"/>
        <path d="M191.858 18.9305C190.696 18.9305 189.905 19.771 189.905 21.0069V24.8632H188.842V18.0529H189.781L189.831 18.9552H189.917C190.325 18.3001 191.129 17.917 192.081 17.917C193.7 17.917 194.751 19.0541 194.751 20.7968V24.8632H193.688V20.8833C193.688 19.6721 192.971 18.9305 191.871 18.9305H191.858Z" fill="#C4C4C4"/>
        <path d="M237.563 15.2843H243.658V16.2978H238.676V19.7338H242.818V20.7473H238.676V24.8631H237.563V15.2843Z" fill="#C4C4C4"/>
        <path d="M245.278 21.4642C245.278 19.4248 246.712 17.9293 248.702 17.9293C250.693 17.9293 251.904 19.2395 251.904 21.2047C251.904 21.4271 251.892 21.5507 251.88 21.7114H246.403C246.502 23.108 247.404 24.0103 248.739 24.0103C249.667 24.0103 250.433 23.6024 250.717 22.9227H251.83C251.521 24.1833 250.322 24.9991 248.764 24.9991C246.712 24.9991 245.29 23.553 245.29 21.4518L245.278 21.4642ZM250.767 20.8339C250.693 19.6968 249.877 18.9305 248.727 18.9305C247.577 18.9305 246.65 19.6968 246.44 20.8339H250.767Z" fill="#C4C4C4"/>
        <path d="M254.945 23.8497H254.859L254.785 24.8755H253.857V15.0125H254.921V18.9923H255.007C255.428 18.3125 256.194 17.9293 257.121 17.9293C258.852 17.9293 260.175 19.4496 260.175 21.4642C260.175 23.4789 258.852 25.0115 257.121 25.0115C256.157 25.0115 255.39 24.6036 254.945 23.8497ZM257.01 24.0103C258.184 24.0103 259.062 22.9474 259.062 21.4642C259.062 19.9811 258.184 18.9305 257.01 18.9305C255.835 18.9305 254.933 19.9934 254.933 21.4642C254.933 22.935 255.798 24.0103 257.01 24.0103Z" fill="#C4C4C4"/>
        <path d="M302.715 15.2843H304.124L305.62 19.0046H305.707L307.203 15.2843H308.612V24.8631H307.499V17.2866H307.413L306.152 20.4136H305.163L303.902 17.2866H303.815V24.8631H302.703V15.2843H302.715Z" fill="#C4C4C4"/>
        <path d="M310.714 23.0709C310.714 21.6743 311.938 20.8585 314.163 20.7349L315.523 20.6484V20.4878C315.523 19.499 314.868 18.9181 313.755 18.9181C312.84 18.9181 312.135 19.3877 311.987 20.0799H310.874C310.998 18.8563 312.234 17.9417 313.755 17.9417C315.498 17.9417 316.586 18.9428 316.586 20.5001V23.5406C316.586 23.899 316.846 24.1339 317.155 24.1339C317.254 24.1339 317.365 24.1339 317.451 24.0844L317.625 24.8507C317.414 24.9496 317.192 24.9867 316.945 24.9867C316.215 24.9867 315.671 24.5294 315.585 23.8125V23.7013H315.498C315.065 24.5047 314.064 25.0238 312.988 25.0238C311.591 25.0238 310.689 24.2575 310.689 23.0833L310.714 23.0709ZM313.149 24.035C314.484 24.035 315.523 23.0215 315.523 21.699V21.4765L314.237 21.5754C312.667 21.6866 311.826 22.1934 311.826 23.0462C311.826 23.6642 312.333 24.0474 313.162 24.0474L313.149 24.035Z" fill="#C4C4C4"/>
        <path d="M318.7 23.9115H320.332V19.017H318.7V18.0529H321.259L321.309 19.0417H321.395C321.766 18.3619 322.57 17.917 323.472 17.917C324.474 17.917 325.302 18.399 325.747 19.2148L324.956 19.8327C324.585 19.2518 323.991 18.9181 323.336 18.9181C322.162 18.9181 321.395 19.8204 321.395 21.217V23.8991H324.424V24.8632H318.7V23.8991V23.9115Z" fill="#C4C4C4"/>
        <path d="M370.587 15.2843H372.07L374.877 24.8631H373.714L372.96 22.2181H369.697L368.942 24.8631H367.78L370.587 15.2843ZM372.688 21.2293L371.378 16.5203H371.291L369.981 21.2293H372.688Z" fill="#C4C4C4"/>
        <path d="M376.595 18.0653H377.535L377.584 19.0788H377.671C378.128 18.3372 378.895 17.9293 379.847 17.9293C381.553 17.9293 382.9 19.4372 382.9 21.4642C382.9 23.4912 381.553 25.0114 379.847 25.0114C378.883 25.0114 378.153 24.6036 377.733 23.9485H377.646V27.6194H376.583V18.0776L376.595 18.0653ZM379.723 24.0103C380.935 24.0103 381.788 22.9227 381.788 21.4642C381.788 20.0058 380.922 18.9305 379.723 18.9305C378.524 18.9305 377.659 19.981 377.659 21.4642C377.659 22.9474 378.536 24.0103 379.723 24.0103Z" fill="#C4C4C4"/>
        <path d="M384.371 23.9115H386.003V19.017H384.371V18.0529H386.93L386.98 19.0417H387.066C387.437 18.3619 388.241 17.917 389.143 17.917C390.144 17.917 390.973 18.399 391.418 19.2148L390.627 19.8327C390.256 19.2518 389.662 18.9181 389.007 18.9181C387.833 18.9181 387.066 19.8204 387.066 21.217V23.8991H390.095V24.8632H384.371V23.8991V23.9115Z" fill="#C4C4C4"/>
        <path d="M433.588 15.2843H434.997L436.493 19.0046H436.579L438.075 15.2843H439.485V24.8631H438.372V17.2866H438.285L437.024 20.4136H436.035L434.774 17.2866H434.688V24.8631H433.575V15.2843H433.588Z" fill="#C4C4C4"/>
        <path d="M441.586 23.0709C441.586 21.6743 442.81 20.8585 445.035 20.7349L446.395 20.6484V20.4878C446.395 19.499 445.74 18.9181 444.627 18.9181C443.712 18.9181 443.008 19.3877 442.859 20.0799H441.747C441.87 18.8563 443.107 17.9417 444.627 17.9417C446.37 17.9417 447.458 18.9428 447.458 20.5001V23.5406C447.458 23.899 447.718 24.1339 448.039 24.1339C448.138 24.1339 448.25 24.1339 448.336 24.0844L448.509 24.8507C448.299 24.9496 448.077 24.9867 447.829 24.9867C447.1 24.9867 446.556 24.5294 446.469 23.8125V23.7013H446.383C445.95 24.5047 444.949 25.0238 443.873 25.0238C442.476 25.0238 441.574 24.2575 441.574 23.0833L441.586 23.0709ZM444.022 24.035C445.369 24.035 446.395 23.0215 446.395 21.699V21.4765L445.11 21.5754C443.539 21.6866 442.699 22.1934 442.699 23.0462C442.699 23.6642 443.206 24.0474 444.022 24.0474V24.035Z" fill="#C4C4C4"/>
        <path d="M449.375 27.1867L449.882 26.3339C450.253 26.5934 450.648 26.7417 451.081 26.7417C451.773 26.7417 452.305 26.371 452.577 25.6294L452.849 24.8631H452.392L449.548 18.0529H450.698L453.096 23.8619H453.183L455.235 18.0529H456.36L453.566 25.9754C453.158 27.1373 452.194 27.7305 451.143 27.7305C450.475 27.7305 449.857 27.5204 449.375 27.1743V27.1867Z" fill="#C4C4C4"/>
        <path d="M499.098 22.0822V21.563H500.211V22.0822C500.211 23.244 500.953 23.9732 502.127 23.9732C503.302 23.9732 504.031 23.1698 504.031 21.9956V15.2843H505.144V21.9956C505.144 23.7754 503.907 25.0114 502.127 25.0114C500.347 25.0114 499.098 23.862 499.098 22.0822Z" fill="#C4C4C4"/>
        <path d="M507.443 22.1193V18.0653H508.506V22.0451C508.506 23.2317 509.223 23.998 510.361 23.998C511.498 23.998 512.289 23.1946 512.289 21.9215V18.0653H513.352V24.8755H512.413L512.363 23.9733H512.277C511.869 24.6407 511.127 25.0115 510.237 25.0115C508.506 25.0115 507.443 23.9115 507.443 22.1193Z" fill="#C4C4C4"/>
        <path d="M518.693 18.9305C517.531 18.9305 516.739 19.771 516.739 21.0069V24.8632H515.676V18.0529H516.616L516.665 18.9552H516.752C517.16 18.3001 517.951 17.917 518.915 17.917C520.535 17.917 521.586 19.0541 521.586 20.7968V24.8632H520.522V20.8833C520.522 19.6721 519.805 18.9305 518.705 18.9305H518.693Z" fill="#C4C4C4"/>
        <path d="M564.274 22.0822V21.563H565.387V22.0822C565.387 23.244 566.129 23.9732 567.303 23.9732C568.478 23.9732 569.207 23.1698 569.207 21.9956V15.2843H570.32V21.9956C570.32 23.7754 569.084 25.0114 567.303 25.0114C565.523 25.0114 564.274 23.862 564.274 22.0822Z" fill="#C4C4C4"/>
        <path d="M572.62 22.1193V18.0653H573.683V22.0451C573.683 23.2317 574.4 23.998 575.537 23.998C576.675 23.998 577.466 23.1946 577.466 21.9215V18.0653H578.529V24.8755H577.589L577.54 23.9733H577.453C577.046 24.6407 576.304 25.0115 575.414 25.0115C573.683 25.0115 572.62 23.9115 572.62 22.1193Z" fill="#C4C4C4"/>
        <path d="M580.729 23.9114H583.536V15.9641H580.729V15H584.599V23.899H587.133V24.8631H580.729V23.899V23.9114Z" fill="#C4C4C4"/>
        <path d="M632.085 15.2843H633.568L636.375 24.8631H635.212L634.458 22.2181H631.195L630.44 24.8631H629.278L632.085 15.2843ZM634.174 21.2293L632.864 16.5203H632.777L631.467 21.2293H634.174Z" fill="#C4C4C4"/>
        <path d="M638.081 22.1193V18.0653H639.144V22.0451C639.144 23.2317 639.861 23.998 640.998 23.998C642.136 23.998 642.927 23.1946 642.927 21.9215V18.0653H643.99V24.8755H643.05L643.001 23.9733H642.914C642.506 24.6407 641.765 25.0115 640.875 25.0115C639.144 25.0115 638.081 23.9115 638.081 22.1193Z" fill="#C4C4C4"/>
        <path d="M645.795 25.716L647.155 24.3935C646.524 24.1339 646.116 23.6395 646.116 23.0339C646.116 22.4777 646.524 21.9215 647.118 21.6249C646.735 21.2417 646.512 20.735 646.512 20.1788C646.512 18.881 647.686 17.9293 649.294 17.9293C649.899 17.9293 650.431 18.0653 650.864 18.3001C651.296 17.917 651.729 17.3731 652.001 16.7922L652.879 17.4226C652.656 17.8428 652.125 18.4237 651.581 18.844C651.89 19.2147 652.075 19.6597 652.075 20.1664C652.075 21.4642 650.901 22.4159 649.294 22.4159C648.75 22.4159 648.255 22.3047 647.847 22.1193C647.439 22.28 647.204 22.589 647.204 22.9227C647.204 23.3553 647.6 23.6395 648.267 23.6395H650.245C651.717 23.6395 652.669 24.3935 652.669 25.5676C652.669 26.8407 651.296 27.743 649.405 27.743C647.662 27.743 646.203 26.9272 645.807 25.716H645.795ZM649.393 26.8036C650.678 26.8036 651.544 26.334 651.544 25.6294C651.544 24.9867 651 24.5789 650.122 24.5789H648.132L646.957 25.7283C647.439 26.4081 648.342 26.816 649.393 26.816V26.8036ZM649.281 21.4889C650.295 21.4889 650.963 20.9575 650.963 20.1788C650.963 19.4001 650.295 18.8687 649.281 18.8687C648.267 18.8687 647.6 19.4001 647.6 20.1788C647.6 20.9575 648.28 21.4889 649.281 21.4889Z" fill="#C4C4C4"/>
        <path d="M694.838 22.1935H696.012C696.21 23.3429 697.002 23.9856 698.225 23.9856C699.449 23.9856 700.401 23.2564 700.401 22.2923C700.401 21.4148 699.882 20.9328 698.522 20.5496L697.459 20.2406C695.938 19.8204 695.184 18.9799 695.184 17.7192C695.184 16.2484 696.47 15.1608 698.213 15.1608C699.956 15.1608 701.291 16.2237 701.39 17.6945H700.216C700.092 16.7923 699.289 16.1866 698.213 16.1866C697.076 16.1866 696.322 16.7923 696.322 17.7069C696.322 18.4855 696.816 18.9428 698.028 19.2642L699.041 19.5485C700.735 20.0058 701.539 20.871 701.539 22.2923C701.539 23.9115 700.142 25.0115 698.151 25.0115C696.272 25.0115 694.974 23.9115 694.826 22.1935H694.838Z" fill="#C4C4C4"/>
        <path d="M703.158 21.4642C703.158 19.4248 704.592 17.9293 706.583 17.9293C708.573 17.9293 709.785 19.2395 709.785 21.2047C709.785 21.4271 709.772 21.5507 709.76 21.7114H704.283C704.382 23.108 705.285 24.0103 706.62 24.0103C707.547 24.0103 708.313 23.6024 708.585 22.9227H709.698C709.389 24.1833 708.19 24.9991 706.632 24.9991C704.58 24.9991 703.158 23.553 703.158 21.4518V21.4642ZM708.647 20.8339C708.573 19.6968 707.757 18.9305 706.607 18.9305C705.458 18.9305 704.53 19.6968 704.32 20.8339H708.647Z" fill="#C4C4C4"/>
        <path d="M711.725 18.0653H712.665L712.714 19.0788H712.801C713.258 18.3372 714.025 17.9293 714.977 17.9293C716.683 17.9293 718.03 19.4372 718.03 21.4642C718.03 23.4912 716.683 25.0114 714.977 25.0114C714.012 25.0114 713.283 24.6036 712.863 23.9485H712.776V27.6194H711.713V18.0776L711.725 18.0653ZM714.865 24.0103C716.065 24.0103 716.93 22.9227 716.93 21.4642C716.93 20.0058 716.065 18.9305 714.865 18.9305C713.666 18.9305 712.801 19.981 712.801 21.4642C712.801 22.9474 713.679 24.0103 714.865 24.0103Z" fill="#C4C4C4"/>
        <path d="M760.126 20.08C760.126 16.99 761.362 15.1484 763.452 15.1484C765.541 15.1484 766.777 16.9777 766.777 20.08C766.777 23.1823 765.541 25.0115 763.452 25.0115C761.362 25.0115 760.126 23.1823 760.126 20.08ZM763.464 23.9856C764.861 23.9856 765.652 22.5766 765.652 20.08C765.652 17.5833 764.861 16.1743 763.464 16.1743C762.067 16.1743 761.276 17.5833 761.276 20.08C761.276 22.5766 762.067 23.9856 763.464 23.9856Z" fill="#C4C4C4"/>
        <path d="M768.359 21.4642C768.359 19.4001 769.818 17.9293 771.907 17.9293C773.601 17.9293 774.85 18.8563 775.097 20.29H773.972C773.762 19.4496 772.971 18.9305 771.907 18.9305C770.436 18.9305 769.472 19.9563 769.472 21.4642C769.472 22.9721 770.449 24.0103 771.907 24.0103C772.971 24.0103 773.774 23.4912 773.972 22.6384H775.097C774.85 24.0721 773.601 25.0114 771.907 25.0114C769.831 25.0114 768.359 23.5406 768.359 21.4642Z" fill="#C4C4C4"/>
        <path d="M778.719 22.589V19.0294H776.457V18.0653H777.359C778.349 18.0653 778.769 17.5585 778.806 16.4956L778.831 15.8035H779.758V18.0777H783.071V19.0417H779.758V22.4654C779.758 23.4418 780.302 24.0227 781.192 24.0227C781.798 24.0227 782.28 23.8002 782.75 23.2687L783.467 23.9115C782.898 24.6407 782.07 25.0238 781.13 25.0238C779.634 25.0238 778.707 24.0968 778.707 22.6013L778.719 22.589Z" fill="#C4C4C4"/>
        <path d="M794.235 1H17.7653C8.29522 1 0.618164 8.67516 0.618164 18.1429V134.621C0.618164 144.089 8.29522 151.764 17.7653 151.764H794.235C803.705 151.764 811.382 144.089 811.382 134.621V18.1429C811.382 8.67516 803.705 1 794.235 1Z" stroke="#5B5B5B" stroke-miterlimit="10"/>
    </g>
    <defs>
        <clipPath id="clip0_453_444">
            <rect width="812" height="152" fill="white"/>
        </clipPath>
    </defs>
</svg>
