<svg width="43" height="24" viewBox="0 0 43 24" fill="none" xmlns="http://www.w3.org/2000/svg">
    <rect x="0.25" y="0.25" width="42.5" height="23.5" rx="11.75" stroke="url(#paint0_linear_106_149)" stroke-width="0.5"/>
    <path d="M10.0568 16V7.27273H13.108C13.7159 7.27273 14.2173 7.37784 14.6122 7.58807C15.0071 7.79545 15.3011 8.07528 15.4943 8.42756C15.6875 8.77699 15.7841 9.16477 15.7841 9.59091C15.7841 9.96591 15.7173 10.2756 15.5838 10.5199C15.4531 10.7642 15.2798 10.9574 15.0639 11.0994C14.8509 11.2415 14.6193 11.3466 14.3693 11.4148V11.5C14.6364 11.517 14.9048 11.6108 15.1747 11.7812C15.4446 11.9517 15.6705 12.196 15.8523 12.5142C16.0341 12.8324 16.125 13.2216 16.125 13.6818C16.125 14.1193 16.0256 14.5128 15.8267 14.8622C15.6278 15.2116 15.3139 15.4886 14.8849 15.6932C14.456 15.8977 13.8977 16 13.2102 16H10.0568ZM11.1136 15.0625H13.2102C13.9006 15.0625 14.3906 14.929 14.6804 14.6619C14.973 14.392 15.1193 14.0653 15.1193 13.6818C15.1193 13.3864 15.044 13.1136 14.8935 12.8636C14.7429 12.6108 14.5284 12.4091 14.25 12.2585C13.9716 12.1051 13.642 12.0284 13.2614 12.0284H11.1136V15.0625ZM11.1136 11.108H13.0739C13.392 11.108 13.679 11.0455 13.9347 10.9205C14.1932 10.7955 14.3977 10.6193 14.5483 10.392C14.7017 10.1648 14.7784 9.89773 14.7784 9.59091C14.7784 9.20739 14.6449 8.8821 14.3778 8.61506C14.1108 8.34517 13.6875 8.21023 13.108 8.21023H11.1136V11.108ZM20.4695 16.1364C19.8388 16.1364 19.2947 15.9972 18.8374 15.7188C18.3828 15.4375 18.032 15.0455 17.7848 14.5426C17.5405 14.0369 17.4183 13.4489 17.4183 12.7784C17.4183 12.108 17.5405 11.517 17.7848 11.0057C18.032 10.4915 18.3757 10.0909 18.8161 9.80398C19.2592 9.5142 19.7763 9.36932 20.3672 9.36932C20.7081 9.36932 21.0447 9.42614 21.3771 9.53977C21.7095 9.65341 22.0121 9.83807 22.2848 10.0938C22.5575 10.3466 22.7749 10.6818 22.9368 11.0994C23.0987 11.517 23.1797 12.0312 23.1797 12.642V13.0682H18.1342V12.1989H22.157C22.157 11.8295 22.0831 11.5 21.9354 11.2102C21.7905 10.9205 21.5831 10.6918 21.3132 10.5241C21.0462 10.3565 20.7308 10.2727 20.3672 10.2727C19.9666 10.2727 19.62 10.3722 19.3274 10.571C19.0376 10.767 18.8146 11.0227 18.6584 11.3381C18.5021 11.6534 18.424 11.9915 18.424 12.3523V12.9318C18.424 13.4261 18.5092 13.8452 18.6797 14.1889C18.853 14.5298 19.093 14.7898 19.3999 14.9688C19.7067 15.1449 20.0632 15.233 20.4695 15.233C20.7337 15.233 20.9723 15.196 21.1854 15.1222C21.4013 15.0455 21.5874 14.9318 21.7436 14.7812C21.8999 14.6278 22.0206 14.4375 22.1058 14.2102L23.0774 14.483C22.9751 14.8125 22.8033 15.1023 22.5618 15.3523C22.3203 15.5994 22.022 15.7926 21.6669 15.9318C21.3118 16.0682 20.9126 16.1364 20.4695 16.1364ZM27.5561 9.45455V10.3068H24.1641V9.45455H27.5561ZM25.1527 7.88636H26.1584V14.125C26.1584 14.4091 26.1996 14.6222 26.282 14.7642C26.3672 14.9034 26.4751 14.9972 26.6058 15.0455C26.7393 15.0909 26.88 15.1136 27.0277 15.1136C27.1385 15.1136 27.2294 15.108 27.3004 15.0966C27.3714 15.0824 27.4283 15.071 27.4709 15.0625L27.6754 15.9659C27.6072 15.9915 27.5121 16.017 27.3899 16.0426C27.2678 16.071 27.1129 16.0852 26.9254 16.0852C26.6413 16.0852 26.3629 16.0241 26.0902 15.902C25.8203 15.7798 25.5959 15.5938 25.4169 15.3438C25.2408 15.0938 25.1527 14.7784 25.1527 14.3977V7.88636ZM30.995 16.1534C30.5803 16.1534 30.2038 16.0753 29.8658 15.919C29.5277 15.7599 29.2592 15.5312 29.0604 15.233C28.8615 14.9318 28.7621 14.5682 28.7621 14.142C28.7621 13.767 28.8359 13.4631 28.9837 13.2301C29.1314 12.9943 29.3288 12.8097 29.576 12.6761C29.8232 12.5426 30.0959 12.4432 30.3942 12.3778C30.6953 12.3097 30.9979 12.2557 31.3018 12.2159C31.6996 12.1648 32.022 12.1264 32.2692 12.1009C32.5192 12.0724 32.701 12.0256 32.8146 11.9602C32.9311 11.8949 32.9893 11.7812 32.9893 11.6193V11.5852C32.9893 11.1648 32.8743 10.8381 32.6442 10.6051C32.4169 10.3722 32.0717 10.2557 31.6087 10.2557C31.1286 10.2557 30.7521 10.3608 30.4794 10.571C30.2067 10.7812 30.0149 11.0057 29.9041 11.2443L28.9496 10.9034C29.12 10.5057 29.3473 10.196 29.6314 9.97443C29.9183 9.75 30.2308 9.59375 30.5689 9.50568C30.9098 9.41477 31.245 9.36932 31.5746 9.36932C31.7848 9.36932 32.0263 9.39489 32.299 9.44602C32.5746 9.49432 32.8402 9.59517 33.0959 9.74858C33.3544 9.90199 33.5689 10.1335 33.7393 10.4432C33.9098 10.7528 33.995 11.1676 33.995 11.6875V16H32.9893V15.1136H32.9382C32.87 15.2557 32.7564 15.4077 32.5973 15.5696C32.4382 15.7315 32.2266 15.8693 31.9624 15.983C31.6982 16.0966 31.3757 16.1534 30.995 16.1534ZM31.1484 15.25C31.5462 15.25 31.8814 15.1719 32.1541 15.0156C32.4297 14.8594 32.6371 14.6577 32.7763 14.4105C32.9183 14.1634 32.9893 13.9034 32.9893 13.6307V12.7102C32.9467 12.7614 32.853 12.8082 32.7081 12.8509C32.5661 12.8906 32.4013 12.9261 32.2138 12.9574C32.0291 12.9858 31.8487 13.0114 31.6726 13.0341C31.4993 13.054 31.3587 13.071 31.2507 13.0852C30.9893 13.1193 30.745 13.1747 30.5178 13.2514C30.2933 13.3253 30.1115 13.4375 29.9723 13.5881C29.8359 13.7358 29.7678 13.9375 29.7678 14.1932C29.7678 14.5426 29.897 14.8068 30.1555 14.9858C30.4169 15.1619 30.7479 15.25 31.1484 15.25Z" fill="url(#paint1_linear_106_149)"/>
    <defs>
        <linearGradient id="paint0_linear_106_149" x1="0" y1="24" x2="45.6061" y2="24" gradientUnits="userSpaceOnUse">
            <stop stop-color="#5667FF"/>
            <stop offset="1" stop-color="#A168FF"/>
        </linearGradient>
        <linearGradient id="paint1_linear_106_149" x1="9" y1="17" x2="37.6364" y2="17" gradientUnits="userSpaceOnUse">
            <stop stop-color="#5667FF"/>
            <stop offset="1" stop-color="#A168FF"/>
        </linearGradient>
    </defs>
</svg>
