<svg xmlns="http://www.w3.org/2000/svg" width="24" height="24" viewBox="-4 -4 24 24">
    <circle cx="8" cy="8" r="10" fill="#7c7c7c" />
    <path d="M5.75 7.5a.75.75 0 01.75.75v1.5a.75.75 0 01-1.5 0v-1.5a.75.75 0 01.75-.75zm5.25.75a.75.75 0 00-1.5 0v1.5a.75.75 0 001.5 0v-1.5z" />
    <path fill-rule="evenodd"
          d="M6.25 0a.75.75 0 000 1.5H7.5v2H3.75A2.25 2.25 0 001.5 5.75V8H.75a.75.75 0 000 1.5h.75v2.75a2.25 2.25 0 002.25 2.25h8.5a2.25 2.25 0 002.25-2.25V9.5h.75a.75.75 0 000-1.5h-.75V5.75a2.25 2.25 0 00-2.25-2.25H9V.75A.75.75 0 008.25 0h-2zM3 5.75A.75.75 0 013.75 5h8.5a.75.75 0 01.75.75v6.5a.75.75 0 01-.75.75h-8.5a.75.75 0 01-.75-.75v-6.5z" />
</svg>